%
M48
M72
T01C0.0130
T02C0.0236
T03C0.0315
T04C0.0394
T05C0.0400
%
T01
X2700Y1650
X4300Y3650
X2700Y5700
X4550Y7850
X3150Y9650
X6150Y12150
X7200Y14150
X4650Y15650
X7150Y8200
X7950Y5750
X6250Y3250
X6300Y1750
T02
X8650Y5150
T03
X2713Y4634
X2713Y6666
X2713Y8634
X2713Y2666
T04
X1650Y2321
X1650Y4979
X1650Y6321
X1650Y8979
T05
X2150Y10650
X2150Y11650
X2150Y12650
X2150Y13650
X2150Y14650
X2150Y15650
X5650Y9650
X5650Y8650
X6150Y5150
X6150Y4150
X10650Y4400
X10650Y3400
X10650Y2400
X10650Y5400
X10650Y6400
X10650Y7400
X10650Y8400
X10650Y9400
X10650Y10400
X10650Y11400
X10650Y12400
X10650Y15650
X9650Y15650
X8150Y15650
X7150Y15650
M30
