G75*
%MOIN*%
%OFA0B0*%
%FSLAX24Y24*%
%IPPOS*%
%LPD*%
%AMOC8*
5,1,8,0,0,1.08239X$1,22.5*
%
%ADD10R,0.0394X0.0433*%
%ADD11R,0.0709X0.0394*%
%ADD12R,0.0394X0.0709*%
%ADD13C,0.0600*%
%ADD14R,0.0600X0.0600*%
%ADD15C,0.0591*%
%ADD16C,0.0472*%
%ADD17R,0.0531X0.0157*%
%ADD18C,0.0050*%
%ADD19R,0.0295X0.0378*%
%ADD20R,0.0295X0.0213*%
%ADD21R,0.0256X0.0197*%
%ADD22C,0.0060*%
%ADD23C,0.0100*%
%ADD24C,0.0270*%
%ADD25C,0.0320*%
%ADD26C,0.0376*%
%ADD27C,0.0120*%
%ADD28C,0.0080*%
%ADD29C,0.0200*%
D10*
X007150Y008815D03*
X007150Y009485D03*
X007650Y004985D03*
X007650Y004315D03*
D11*
X004150Y008599D03*
X004150Y009701D03*
D12*
X004099Y004650D03*
X005201Y004650D03*
D13*
X005850Y004150D02*
X006450Y004150D01*
X006450Y005150D02*
X005850Y005150D01*
X005950Y008650D02*
X005350Y008650D01*
X005350Y009650D02*
X005950Y009650D01*
X002450Y010650D02*
X001850Y010650D01*
X001850Y011650D02*
X002450Y011650D01*
X002450Y012650D02*
X001850Y012650D01*
X001850Y013650D02*
X002450Y013650D01*
X002450Y014650D02*
X001850Y014650D01*
X001850Y015650D02*
X002450Y015650D01*
X007150Y015350D02*
X007150Y015950D01*
X008150Y015950D02*
X008150Y015350D01*
X010350Y012400D02*
X010950Y012400D01*
X010950Y011400D02*
X010350Y011400D01*
X010350Y010400D02*
X010950Y010400D01*
X010950Y009400D02*
X010350Y009400D01*
X010350Y008400D02*
X010950Y008400D01*
X010950Y007400D02*
X010350Y007400D01*
X010350Y006400D02*
X010950Y006400D01*
X010950Y005400D02*
X010350Y005400D01*
X010350Y004400D02*
X010950Y004400D01*
X010950Y003400D02*
X010350Y003400D01*
X010350Y002400D02*
X010950Y002400D01*
D14*
X010650Y015650D03*
X009650Y015650D03*
D15*
X001650Y008979D03*
X001650Y006321D03*
X001650Y004979D03*
X001650Y002321D03*
D16*
X002713Y002666D03*
X002713Y004634D03*
X002713Y006666D03*
X002713Y008634D03*
D17*
X002713Y008162D03*
X002713Y007906D03*
X002713Y007650D03*
X002713Y007394D03*
X002713Y007138D03*
X002713Y004162D03*
X002713Y003906D03*
X002713Y003650D03*
X002713Y003394D03*
X002713Y003138D03*
D18*
X001975Y003139D02*
X001325Y003139D01*
X001325Y003187D02*
X001975Y003187D01*
X001975Y003236D02*
X001325Y003236D01*
X001325Y003284D02*
X001975Y003284D01*
X001975Y003333D02*
X001325Y003333D01*
X001325Y003381D02*
X001975Y003381D01*
X001975Y003430D02*
X001325Y003430D01*
X001325Y003478D02*
X001975Y003478D01*
X001975Y003527D02*
X001325Y003527D01*
X001325Y003552D02*
X001325Y002961D01*
X001975Y002961D01*
X001975Y003552D01*
X001325Y003552D01*
X001325Y003748D02*
X001975Y003748D01*
X001975Y004339D01*
X001325Y004339D01*
X001325Y003748D01*
X001325Y003769D02*
X001975Y003769D01*
X001975Y003818D02*
X001325Y003818D01*
X001325Y003866D02*
X001975Y003866D01*
X001975Y003915D02*
X001325Y003915D01*
X001325Y003963D02*
X001975Y003963D01*
X001975Y004012D02*
X001325Y004012D01*
X001325Y004060D02*
X001975Y004060D01*
X001975Y004109D02*
X001325Y004109D01*
X001325Y004157D02*
X001975Y004157D01*
X001975Y004206D02*
X001325Y004206D01*
X001325Y004254D02*
X001975Y004254D01*
X001975Y004303D02*
X001325Y004303D01*
X001325Y004556D02*
X001975Y004556D01*
X001975Y005225D01*
X001970Y005269D01*
X001955Y005310D01*
X001932Y005348D01*
X001901Y005379D01*
X001863Y005402D01*
X001822Y005417D01*
X001778Y005422D01*
X001522Y005422D01*
X001478Y005417D01*
X001437Y005402D01*
X001399Y005379D01*
X001368Y005348D01*
X001345Y005310D01*
X001330Y005269D01*
X001325Y005225D01*
X001325Y004556D01*
X001325Y004594D02*
X001975Y004594D01*
X001975Y004642D02*
X001325Y004642D01*
X001325Y004691D02*
X001975Y004691D01*
X001975Y004739D02*
X001325Y004739D01*
X001325Y004788D02*
X001975Y004788D01*
X001975Y004836D02*
X001325Y004836D01*
X001325Y004885D02*
X001975Y004885D01*
X001975Y004933D02*
X001325Y004933D01*
X001325Y004982D02*
X001975Y004982D01*
X001975Y005030D02*
X001325Y005030D01*
X001325Y005079D02*
X001975Y005079D01*
X001975Y005127D02*
X001325Y005127D01*
X001325Y005176D02*
X001975Y005176D01*
X001975Y005224D02*
X001325Y005224D01*
X001332Y005273D02*
X001968Y005273D01*
X001949Y005321D02*
X001351Y005321D01*
X001390Y005370D02*
X001910Y005370D01*
X001810Y005418D02*
X001490Y005418D01*
X001522Y005878D02*
X001478Y005883D01*
X001437Y005898D01*
X001399Y005921D01*
X001368Y005952D01*
X001345Y005990D01*
X001330Y006031D01*
X001325Y006075D01*
X001325Y006744D01*
X001975Y006744D01*
X001975Y006075D01*
X001970Y006031D01*
X001955Y005990D01*
X001932Y005952D01*
X001901Y005921D01*
X001863Y005898D01*
X001822Y005883D01*
X001778Y005878D01*
X001522Y005878D01*
X001428Y005903D02*
X001872Y005903D01*
X001931Y005952D02*
X001369Y005952D01*
X001341Y006000D02*
X001959Y006000D01*
X001972Y006049D02*
X001328Y006049D01*
X001325Y006097D02*
X001975Y006097D01*
X001975Y006146D02*
X001325Y006146D01*
X001325Y006194D02*
X001975Y006194D01*
X001975Y006243D02*
X001325Y006243D01*
X001325Y006291D02*
X001975Y006291D01*
X001975Y006340D02*
X001325Y006340D01*
X001325Y006388D02*
X001975Y006388D01*
X001975Y006437D02*
X001325Y006437D01*
X001325Y006485D02*
X001975Y006485D01*
X001975Y006534D02*
X001325Y006534D01*
X001325Y006582D02*
X001975Y006582D01*
X001975Y006631D02*
X001325Y006631D01*
X001325Y006679D02*
X001975Y006679D01*
X001975Y006728D02*
X001325Y006728D01*
X001325Y006961D02*
X001975Y006961D01*
X001975Y007552D01*
X001325Y007552D01*
X001325Y006961D01*
X001325Y006970D02*
X001975Y006970D01*
X001975Y007019D02*
X001325Y007019D01*
X001325Y007067D02*
X001975Y007067D01*
X001975Y007116D02*
X001325Y007116D01*
X001325Y007164D02*
X001975Y007164D01*
X001975Y007213D02*
X001325Y007213D01*
X001325Y007261D02*
X001975Y007261D01*
X001975Y007310D02*
X001325Y007310D01*
X001325Y007358D02*
X001975Y007358D01*
X001975Y007407D02*
X001325Y007407D01*
X001325Y007455D02*
X001975Y007455D01*
X001975Y007504D02*
X001325Y007504D01*
X001325Y007748D02*
X001975Y007748D01*
X001975Y008339D01*
X001325Y008339D01*
X001325Y007748D01*
X001325Y007795D02*
X001975Y007795D01*
X001975Y007843D02*
X001325Y007843D01*
X001325Y007892D02*
X001975Y007892D01*
X001975Y007940D02*
X001325Y007940D01*
X001325Y007989D02*
X001975Y007989D01*
X001975Y008037D02*
X001325Y008037D01*
X001325Y008086D02*
X001975Y008086D01*
X001975Y008134D02*
X001325Y008134D01*
X001325Y008183D02*
X001975Y008183D01*
X001975Y008231D02*
X001325Y008231D01*
X001325Y008280D02*
X001975Y008280D01*
X001975Y008328D02*
X001325Y008328D01*
X001325Y008556D02*
X001975Y008556D01*
X001975Y009225D01*
X001970Y009269D01*
X001955Y009310D01*
X001932Y009348D01*
X001901Y009379D01*
X001863Y009402D01*
X001822Y009417D01*
X001778Y009422D01*
X001522Y009422D01*
X001478Y009417D01*
X001437Y009402D01*
X001399Y009379D01*
X001368Y009348D01*
X001345Y009310D01*
X001330Y009269D01*
X001325Y009225D01*
X001325Y008556D01*
X001325Y008571D02*
X001975Y008571D01*
X001975Y008619D02*
X001325Y008619D01*
X001325Y008668D02*
X001975Y008668D01*
X001975Y008716D02*
X001325Y008716D01*
X001325Y008765D02*
X001975Y008765D01*
X001975Y008813D02*
X001325Y008813D01*
X001325Y008862D02*
X001975Y008862D01*
X001975Y008910D02*
X001325Y008910D01*
X001325Y008959D02*
X001975Y008959D01*
X001975Y009007D02*
X001325Y009007D01*
X001325Y009056D02*
X001975Y009056D01*
X001975Y009104D02*
X001325Y009104D01*
X001325Y009153D02*
X001975Y009153D01*
X001975Y009201D02*
X001325Y009201D01*
X001328Y009250D02*
X001972Y009250D01*
X001960Y009298D02*
X001340Y009298D01*
X001368Y009347D02*
X001932Y009347D01*
X001875Y009395D02*
X001425Y009395D01*
X001325Y003090D02*
X001975Y003090D01*
X001975Y003042D02*
X001325Y003042D01*
X001325Y002993D02*
X001975Y002993D01*
X001975Y002744D02*
X001325Y002744D01*
X001325Y002075D01*
X001330Y002031D01*
X001345Y001990D01*
X001368Y001952D01*
X001399Y001921D01*
X001437Y001898D01*
X001478Y001883D01*
X001522Y001878D01*
X001778Y001878D01*
X001822Y001883D01*
X001863Y001898D01*
X001901Y001921D01*
X001932Y001952D01*
X001955Y001990D01*
X001970Y002031D01*
X001975Y002075D01*
X001975Y002744D01*
X001975Y002702D02*
X001325Y002702D01*
X001325Y002654D02*
X001975Y002654D01*
X001975Y002605D02*
X001325Y002605D01*
X001325Y002557D02*
X001975Y002557D01*
X001975Y002508D02*
X001325Y002508D01*
X001325Y002460D02*
X001975Y002460D01*
X001975Y002411D02*
X001325Y002411D01*
X001325Y002363D02*
X001975Y002363D01*
X001975Y002314D02*
X001325Y002314D01*
X001325Y002266D02*
X001975Y002266D01*
X001975Y002217D02*
X001325Y002217D01*
X001325Y002169D02*
X001975Y002169D01*
X001975Y002120D02*
X001325Y002120D01*
X001326Y002072D02*
X001974Y002072D01*
X001967Y002023D02*
X001333Y002023D01*
X001354Y001975D02*
X001946Y001975D01*
X001905Y001926D02*
X001395Y001926D01*
D19*
X004266Y002945D03*
X004266Y007445D03*
D20*
X004266Y006772D03*
X005034Y006772D03*
X005034Y007528D03*
X005034Y003028D03*
X005034Y002272D03*
X004266Y002272D03*
D21*
X006904Y002178D03*
X006904Y002493D03*
X006904Y002807D03*
X006904Y003122D03*
X007396Y003122D03*
X007396Y002807D03*
X007396Y002493D03*
X007396Y002178D03*
X007396Y006678D03*
X007396Y006993D03*
X007396Y007307D03*
X007396Y007622D03*
X006904Y007622D03*
X006904Y007307D03*
X006904Y006993D03*
X006904Y006678D03*
D22*
X006904Y006993D02*
X006747Y006993D01*
X006650Y007090D01*
X006175Y007090D01*
X005175Y006090D01*
X004775Y006090D01*
X004590Y006275D01*
X004590Y006550D01*
X004590Y006825D01*
X004425Y006990D01*
X003875Y006990D01*
X003690Y007175D01*
X003690Y007625D01*
X003625Y007690D01*
X003450Y007690D01*
X003433Y007688D01*
X003416Y007684D01*
X003400Y007677D01*
X003386Y007667D01*
X003373Y007654D01*
X003363Y007640D01*
X003356Y007624D01*
X003352Y007607D01*
X003350Y007590D01*
X003350Y007550D01*
X003348Y007537D01*
X003343Y007525D01*
X003335Y007515D01*
X003325Y007507D01*
X003313Y007502D01*
X003300Y007500D01*
X003287Y007502D01*
X003275Y007507D01*
X003265Y007515D01*
X003257Y007525D01*
X003252Y007537D01*
X003250Y007550D01*
X003250Y007600D01*
X003248Y007618D01*
X003243Y007634D01*
X003235Y007650D01*
X003224Y007664D01*
X003210Y007675D01*
X003194Y007683D01*
X003178Y007688D01*
X003160Y007690D01*
X003100Y007690D01*
X003060Y007650D01*
X002713Y007650D01*
X002713Y007906D02*
X003004Y007906D01*
X003100Y007810D01*
X003675Y007810D01*
X003810Y007675D01*
X003810Y007225D01*
X003925Y007110D01*
X004475Y007110D01*
X004710Y006875D01*
X004710Y006550D01*
X004932Y006772D01*
X005034Y006772D01*
X004710Y006550D02*
X004710Y006325D01*
X004825Y006210D01*
X005125Y006210D01*
X006125Y007210D01*
X006210Y007210D01*
X006220Y007211D01*
X006230Y007215D01*
X006238Y007222D01*
X006245Y007230D01*
X006249Y007240D01*
X006250Y007250D01*
X006252Y007267D01*
X006256Y007284D01*
X006263Y007300D01*
X006273Y007314D01*
X006286Y007327D01*
X006300Y007337D01*
X006316Y007344D01*
X006333Y007348D01*
X006350Y007350D01*
X006363Y007348D01*
X006375Y007343D01*
X006385Y007335D01*
X006393Y007325D01*
X006398Y007313D01*
X006400Y007300D01*
X006450Y007250D02*
X006463Y007252D01*
X006475Y007257D01*
X006485Y007265D01*
X006493Y007275D01*
X006498Y007287D01*
X006500Y007300D01*
X006450Y007250D02*
X006437Y007252D01*
X006425Y007257D01*
X006415Y007265D01*
X006407Y007275D01*
X006402Y007287D01*
X006400Y007300D01*
X006550Y007350D02*
X006563Y007348D01*
X006575Y007343D01*
X006585Y007335D01*
X006593Y007325D01*
X006598Y007313D01*
X006600Y007300D01*
X006602Y007287D01*
X006607Y007275D01*
X006615Y007265D01*
X006625Y007257D01*
X006637Y007252D01*
X006650Y007250D01*
X006846Y007250D01*
X006904Y007307D01*
X006550Y007350D02*
X006537Y007348D01*
X006525Y007343D01*
X006515Y007335D01*
X006507Y007325D01*
X006502Y007313D01*
X006500Y007300D01*
X007396Y007307D02*
X007803Y007307D01*
X007900Y007210D01*
X008463Y007210D01*
X008463Y007090D02*
X007900Y007090D01*
X007803Y006993D01*
X007396Y006993D01*
X008463Y007090D02*
X008481Y007088D01*
X008499Y007084D01*
X008516Y007076D01*
X008530Y007065D01*
X008543Y007052D01*
X008554Y007038D01*
X008562Y007021D01*
X008566Y007003D01*
X008568Y006985D01*
X008688Y006985D02*
X008686Y007012D01*
X008681Y007039D01*
X008673Y007065D01*
X008662Y007090D01*
X008648Y007113D01*
X008631Y007134D01*
X008612Y007153D01*
X008591Y007170D01*
X008568Y007184D01*
X008543Y007195D01*
X008517Y007203D01*
X008490Y007208D01*
X008463Y007210D01*
X008568Y006985D02*
X008570Y006958D01*
X008575Y006931D01*
X008583Y006905D01*
X008594Y006880D01*
X008608Y006857D01*
X008625Y006836D01*
X008644Y006817D01*
X008665Y006800D01*
X008688Y006786D01*
X008713Y006775D01*
X008739Y006767D01*
X008766Y006762D01*
X008793Y006760D01*
X009320Y006760D01*
X009320Y006880D02*
X009120Y006880D01*
X009104Y006882D01*
X009090Y006887D01*
X009076Y006895D01*
X009065Y006906D01*
X009057Y006920D01*
X009052Y006934D01*
X009050Y006950D01*
X009048Y006967D01*
X009044Y006984D01*
X009037Y007000D01*
X009027Y007014D01*
X009014Y007027D01*
X009000Y007037D01*
X008984Y007044D01*
X008967Y007048D01*
X008950Y007050D01*
X008933Y007048D01*
X008916Y007044D01*
X008900Y007037D01*
X008886Y007027D01*
X008873Y007014D01*
X008863Y007000D01*
X008856Y006984D01*
X008852Y006967D01*
X008850Y006950D01*
X008850Y006937D01*
X008849Y006924D01*
X008844Y006912D01*
X008838Y006901D01*
X008829Y006892D01*
X008818Y006886D01*
X008806Y006881D01*
X008793Y006880D01*
X008775Y006882D01*
X008757Y006886D01*
X008741Y006894D01*
X008726Y006905D01*
X008713Y006918D01*
X008702Y006933D01*
X008694Y006949D01*
X008690Y006967D01*
X008688Y006985D01*
X009320Y006760D02*
X009347Y006762D01*
X009374Y006767D01*
X009400Y006775D01*
X009425Y006786D01*
X009448Y006800D01*
X009469Y006817D01*
X009488Y006836D01*
X009505Y006857D01*
X009519Y006880D01*
X009530Y006905D01*
X009538Y006931D01*
X009543Y006958D01*
X009545Y006985D01*
X009547Y007003D01*
X009551Y007021D01*
X009559Y007038D01*
X009570Y007052D01*
X009583Y007065D01*
X009598Y007076D01*
X009614Y007084D01*
X009632Y007088D01*
X009650Y007090D01*
X009960Y007090D01*
X010650Y006400D01*
X010460Y007210D02*
X009650Y007210D01*
X009623Y007208D01*
X009596Y007203D01*
X009570Y007195D01*
X009545Y007184D01*
X009522Y007170D01*
X009501Y007153D01*
X009482Y007134D01*
X009465Y007113D01*
X009451Y007090D01*
X009440Y007065D01*
X009432Y007039D01*
X009427Y007012D01*
X009425Y006985D01*
X009423Y006967D01*
X009419Y006949D01*
X009411Y006933D01*
X009400Y006918D01*
X009387Y006905D01*
X009373Y006894D01*
X009356Y006886D01*
X009338Y006882D01*
X009320Y006880D01*
X010460Y007210D02*
X010650Y007400D01*
X010650Y004400D02*
X010460Y004210D01*
X009650Y004210D01*
X009633Y004212D01*
X009616Y004216D01*
X009600Y004223D01*
X009586Y004233D01*
X009573Y004246D01*
X009563Y004260D01*
X009556Y004276D01*
X009552Y004293D01*
X009550Y004310D01*
X009550Y004350D01*
X009548Y004367D01*
X009544Y004384D01*
X009537Y004400D01*
X009527Y004414D01*
X009514Y004427D01*
X009500Y004437D01*
X009484Y004444D01*
X009467Y004448D01*
X009450Y004450D01*
X009433Y004448D01*
X009416Y004444D01*
X009400Y004437D01*
X009386Y004427D01*
X009373Y004414D01*
X009363Y004400D01*
X009356Y004384D01*
X009352Y004367D01*
X009350Y004350D01*
X009350Y004310D01*
X009348Y004293D01*
X009344Y004276D01*
X009337Y004260D01*
X009327Y004246D01*
X009314Y004233D01*
X009300Y004223D01*
X009284Y004216D01*
X009267Y004212D01*
X009250Y004210D01*
X009125Y004210D01*
X007708Y002792D01*
X007411Y002792D01*
X007396Y002807D01*
X007396Y002493D02*
X007577Y002493D01*
X009175Y004090D01*
X009960Y004090D01*
X010650Y003400D01*
X006904Y002807D02*
X006747Y002807D01*
X006650Y002710D01*
X006390Y002710D01*
X006380Y002711D01*
X006370Y002715D01*
X006362Y002722D01*
X006355Y002730D01*
X006351Y002740D01*
X006350Y002750D01*
X006348Y002763D01*
X006343Y002775D01*
X006335Y002785D01*
X006325Y002793D01*
X006313Y002798D01*
X006300Y002800D01*
X006287Y002798D01*
X006275Y002793D01*
X006265Y002785D01*
X006257Y002775D01*
X006252Y002763D01*
X006250Y002750D01*
X006249Y002740D01*
X006245Y002730D01*
X006238Y002722D01*
X006230Y002715D01*
X006220Y002711D01*
X006210Y002710D01*
X006125Y002710D01*
X005125Y001710D01*
X004990Y001710D01*
X004980Y001711D01*
X004970Y001715D01*
X004962Y001722D01*
X004955Y001730D01*
X004951Y001740D01*
X004950Y001750D01*
X004948Y001763D01*
X004943Y001775D01*
X004935Y001785D01*
X004925Y001793D01*
X004913Y001798D01*
X004900Y001800D01*
X004887Y001798D01*
X004875Y001793D01*
X004865Y001785D01*
X004857Y001775D01*
X004852Y001763D01*
X004850Y001750D01*
X004849Y001740D01*
X004845Y001730D01*
X004838Y001722D01*
X004830Y001715D01*
X004820Y001711D01*
X004810Y001710D01*
X004775Y001710D01*
X004710Y001775D01*
X004710Y002050D01*
X004710Y002375D01*
X004475Y002610D01*
X003975Y002610D01*
X003810Y002775D01*
X003810Y003525D01*
X003525Y003810D01*
X003150Y003810D01*
X003054Y003906D01*
X002713Y003906D01*
X002713Y003650D02*
X003110Y003650D01*
X003150Y003690D01*
X003475Y003690D01*
X003690Y003475D01*
X003690Y003240D01*
X003688Y003222D01*
X003683Y003206D01*
X003675Y003190D01*
X003664Y003176D01*
X003650Y003165D01*
X003634Y003157D01*
X003618Y003152D01*
X003600Y003150D01*
X003587Y003148D01*
X003575Y003143D01*
X003565Y003135D01*
X003557Y003125D01*
X003552Y003113D01*
X003550Y003100D01*
X003552Y003087D01*
X003557Y003075D01*
X003565Y003065D01*
X003575Y003057D01*
X003587Y003052D01*
X003600Y003050D01*
X003613Y003048D01*
X003625Y003043D01*
X003635Y003035D01*
X003643Y003025D01*
X003648Y003013D01*
X003650Y003000D01*
X003648Y002987D01*
X003643Y002975D01*
X003635Y002965D01*
X003625Y002957D01*
X003613Y002952D01*
X003600Y002950D01*
X003587Y002948D01*
X003575Y002943D01*
X003565Y002935D01*
X003557Y002925D01*
X003552Y002913D01*
X003550Y002900D01*
X003552Y002887D01*
X003557Y002875D01*
X003565Y002865D01*
X003575Y002857D01*
X003587Y002852D01*
X003600Y002850D01*
X003650Y002850D01*
X003660Y002849D01*
X003670Y002845D01*
X003678Y002838D01*
X003685Y002830D01*
X003689Y002820D01*
X003690Y002810D01*
X003690Y002725D01*
X003925Y002490D01*
X004425Y002490D01*
X004590Y002325D01*
X004590Y002050D01*
X004368Y002272D01*
X004266Y002272D01*
X004590Y002050D02*
X004590Y001725D01*
X004725Y001590D01*
X005175Y001590D01*
X006175Y002590D01*
X006650Y002590D01*
X006747Y002493D01*
X006904Y002493D01*
X005034Y002272D02*
X004932Y002272D01*
X004710Y002050D01*
X004590Y006550D02*
X004368Y006772D01*
X004266Y006772D01*
D23*
X001350Y001744D02*
X001350Y001350D01*
X011450Y001350D01*
X011450Y016450D01*
X001350Y016450D01*
X001350Y009556D01*
X001414Y009582D01*
X001414Y009582D01*
X001485Y009597D01*
X001602Y009597D01*
X001602Y009027D01*
X001698Y009027D01*
X001698Y009597D01*
X001815Y009597D01*
X001886Y009582D01*
X001886Y009582D01*
X001954Y009554D01*
X001954Y009554D01*
X002006Y009520D01*
X002015Y009514D01*
X002015Y009514D01*
X002015Y009514D01*
X002067Y009462D01*
X002107Y009401D01*
X002107Y009401D01*
X002136Y009333D01*
X002136Y009333D01*
X002150Y009261D01*
X002150Y009027D01*
X001698Y009027D01*
X001698Y008930D01*
X001698Y008474D01*
X001602Y008474D01*
X001602Y008930D01*
X001698Y008930D01*
X002150Y008930D01*
X002150Y008579D01*
X002150Y008532D01*
X002138Y008488D01*
X002115Y008448D01*
X002086Y008419D01*
X002110Y008395D01*
X002110Y007693D01*
X002067Y007650D01*
X002110Y007607D01*
X002110Y006905D01*
X002086Y006881D01*
X002115Y006852D01*
X002138Y006812D01*
X002150Y006768D01*
X002150Y006370D01*
X001698Y006370D01*
X001698Y006826D01*
X001602Y006826D01*
X001602Y006370D01*
X001698Y006370D01*
X001698Y006273D01*
X001698Y005703D01*
X001815Y005703D01*
X001886Y005718D01*
X001886Y005718D01*
X001954Y005746D01*
X002015Y005786D01*
X002067Y005838D01*
X002067Y005838D01*
X002107Y005899D01*
X002136Y005967D01*
X002150Y006039D01*
X002150Y006273D01*
X001698Y006273D01*
X001602Y006273D01*
X001602Y005703D01*
X001485Y005703D01*
X001414Y005718D01*
X001414Y005718D01*
X001350Y005744D01*
X001350Y005556D01*
X001414Y005582D01*
X001414Y005582D01*
X001485Y005597D01*
X001602Y005597D01*
X001602Y005027D01*
X001698Y005027D01*
X001698Y005597D01*
X001815Y005597D01*
X001886Y005582D01*
X001886Y005582D01*
X001954Y005554D01*
X001954Y005554D01*
X001999Y005524D01*
X002015Y005514D01*
X002015Y005514D01*
X002015Y005514D01*
X002067Y005462D01*
X002107Y005401D01*
X002107Y005401D01*
X002136Y005333D01*
X002136Y005333D01*
X002150Y005261D01*
X002150Y005027D01*
X001698Y005027D01*
X001698Y004930D01*
X001698Y004474D01*
X001602Y004474D01*
X001602Y004930D01*
X001698Y004930D01*
X002150Y004930D01*
X002150Y004579D01*
X002150Y004532D01*
X002138Y004488D01*
X002115Y004448D01*
X002086Y004419D01*
X002110Y004395D01*
X002110Y003693D01*
X002067Y003650D01*
X002110Y003607D01*
X002110Y002905D01*
X002086Y002881D01*
X002115Y002852D01*
X002138Y002812D01*
X002150Y002768D01*
X002150Y002370D01*
X001698Y002370D01*
X001698Y002826D01*
X001602Y002826D01*
X001602Y002370D01*
X001698Y002370D01*
X001698Y002273D01*
X001698Y001703D01*
X001815Y001703D01*
X001886Y001718D01*
X001886Y001718D01*
X001954Y001746D01*
X002015Y001786D01*
X002067Y001838D01*
X002067Y001838D01*
X002107Y001899D01*
X002136Y001967D01*
X002150Y002039D01*
X002150Y002273D01*
X001698Y002273D01*
X001602Y002273D01*
X001602Y001703D01*
X001485Y001703D01*
X001414Y001718D01*
X001414Y001718D01*
X001350Y001744D01*
X001350Y001741D02*
X001357Y001741D01*
X001350Y001643D02*
X004475Y001643D01*
X004450Y001667D02*
X004532Y001585D01*
X004667Y001450D01*
X005233Y001450D01*
X005315Y001532D01*
X006233Y002450D01*
X006592Y002450D01*
X006666Y002376D01*
X006666Y002349D01*
X006679Y002335D01*
X006666Y002322D01*
X006666Y002034D01*
X006730Y001969D01*
X007077Y001969D01*
X007142Y002034D01*
X007142Y002322D01*
X007128Y002335D01*
X007142Y002349D01*
X007142Y002637D01*
X007128Y002650D01*
X007142Y002663D01*
X007142Y002951D01*
X007128Y002965D01*
X007142Y002978D01*
X007142Y003266D01*
X007077Y003331D01*
X006730Y003331D01*
X006666Y003266D01*
X006666Y002978D01*
X006679Y002965D01*
X006666Y002951D01*
X006666Y002924D01*
X006592Y002850D01*
X006462Y002850D01*
X006439Y002889D01*
X006368Y002930D01*
X006358Y002940D01*
X006242Y002940D01*
X006232Y002930D01*
X006161Y002889D01*
X006138Y002850D01*
X006067Y002850D01*
X005067Y001850D01*
X005062Y001850D01*
X005039Y001889D01*
X004968Y001930D01*
X004958Y001940D01*
X004850Y001940D01*
X004850Y001992D01*
X004914Y002056D01*
X005227Y002056D01*
X005291Y002120D01*
X005291Y002424D01*
X005227Y002488D01*
X004841Y002488D01*
X004818Y002465D01*
X004768Y002515D01*
X004560Y002723D01*
X004564Y002737D01*
X004564Y002921D01*
X004290Y002921D01*
X004290Y002969D01*
X004564Y002969D01*
X004564Y003154D01*
X004554Y003192D01*
X004534Y003226D01*
X004506Y003254D01*
X004472Y003274D01*
X004434Y003284D01*
X004290Y003284D01*
X004290Y002969D01*
X004242Y002969D01*
X004242Y002921D01*
X003969Y002921D01*
X003969Y002814D01*
X003950Y002833D01*
X003950Y003583D01*
X003868Y003665D01*
X003633Y003900D01*
X003812Y003900D01*
X004012Y004100D01*
X004412Y004100D01*
X004424Y004112D01*
X004884Y003653D01*
X004884Y003244D01*
X004841Y003244D01*
X004776Y003180D01*
X004776Y002876D01*
X004841Y002812D01*
X005227Y002812D01*
X005291Y002876D01*
X005291Y003180D01*
X005227Y003244D01*
X005184Y003244D01*
X005184Y003777D01*
X004500Y004461D01*
X004500Y005112D01*
X004412Y005200D01*
X003588Y005200D01*
X003093Y004705D01*
X003084Y004747D01*
X003055Y004817D01*
X003013Y004880D01*
X002959Y004934D01*
X002896Y004977D01*
X002826Y005006D01*
X002751Y005020D01*
X002742Y005020D01*
X002742Y004663D01*
X002684Y004663D01*
X002684Y004606D01*
X002327Y004606D01*
X002327Y004596D01*
X002342Y004522D01*
X002371Y004451D01*
X002405Y004400D01*
X002388Y004400D01*
X002300Y004312D01*
X002300Y003988D01*
X002337Y003951D01*
X002337Y003782D01*
X002341Y003778D01*
X002337Y003774D01*
X002337Y003526D01*
X002341Y003522D01*
X002337Y003518D01*
X002337Y003319D01*
X002327Y003309D01*
X002307Y003275D01*
X002297Y003237D01*
X002297Y003138D01*
X002297Y003040D01*
X002307Y003002D01*
X002327Y002967D01*
X002355Y002939D01*
X002389Y002920D01*
X002414Y002913D01*
X002413Y002912D01*
X002371Y002849D01*
X002342Y002778D01*
X002327Y002704D01*
X002327Y002694D01*
X002684Y002694D01*
X002684Y002637D01*
X002327Y002637D01*
X002327Y002628D01*
X002342Y002553D01*
X002371Y002483D01*
X002413Y002420D01*
X002467Y002366D01*
X002530Y002323D01*
X002600Y002294D01*
X002675Y002280D01*
X002684Y002280D01*
X002684Y002637D01*
X002742Y002637D01*
X002742Y002694D01*
X003099Y002694D01*
X003099Y002704D01*
X003084Y002778D01*
X003055Y002849D01*
X003013Y002912D01*
X003012Y002913D01*
X003037Y002920D01*
X003071Y002939D01*
X003099Y002967D01*
X003119Y003002D01*
X003129Y003040D01*
X003129Y003138D01*
X002713Y003138D01*
X002713Y002909D01*
X002713Y003138D01*
X002713Y003138D01*
X002713Y003138D01*
X002297Y003138D01*
X002713Y003138D01*
X002713Y003138D01*
X003129Y003138D01*
X003129Y003237D01*
X003119Y003275D01*
X003099Y003309D01*
X003089Y003319D01*
X003089Y003510D01*
X003168Y003510D01*
X003208Y003550D01*
X003417Y003550D01*
X003550Y003417D01*
X003550Y003290D01*
X003542Y003290D01*
X003532Y003280D01*
X003461Y003239D01*
X003461Y003239D01*
X003420Y003168D01*
X003410Y003158D01*
X003410Y003042D01*
X003420Y003032D01*
X003438Y003000D01*
X003420Y002968D01*
X003410Y002958D01*
X003410Y002842D01*
X003420Y002832D01*
X003461Y002761D01*
X003532Y002720D01*
X003542Y002710D01*
X003550Y002710D01*
X003550Y002667D01*
X003632Y002585D01*
X003785Y002432D01*
X003867Y002350D01*
X004009Y002350D01*
X004009Y002120D01*
X004073Y002056D01*
X004386Y002056D01*
X004450Y001992D01*
X004450Y001667D01*
X004450Y001741D02*
X001943Y001741D01*
X001954Y001746D02*
X001954Y001746D01*
X002015Y001786D02*
X002015Y001786D01*
X002068Y001840D02*
X004450Y001840D01*
X004450Y001938D02*
X002124Y001938D01*
X002136Y001967D02*
X002136Y001967D01*
X002149Y002037D02*
X004406Y002037D01*
X004009Y002135D02*
X002150Y002135D01*
X002150Y002234D02*
X004009Y002234D01*
X004009Y002332D02*
X002909Y002332D01*
X002896Y002323D02*
X002959Y002366D01*
X003013Y002420D01*
X003055Y002483D01*
X003084Y002553D01*
X003099Y002628D01*
X003099Y002637D01*
X002742Y002637D01*
X002742Y002280D01*
X002751Y002280D01*
X002826Y002294D01*
X002896Y002323D01*
X002742Y002332D02*
X002684Y002332D01*
X002684Y002431D02*
X002742Y002431D01*
X002742Y002529D02*
X002684Y002529D01*
X002684Y002628D02*
X002742Y002628D01*
X002742Y002694D02*
X002684Y002694D01*
X002684Y002909D01*
X002713Y002909D01*
X002742Y002909D01*
X002742Y002694D01*
X002742Y002726D02*
X002684Y002726D01*
X002684Y002825D02*
X002742Y002825D01*
X002713Y002923D02*
X002713Y002923D01*
X002713Y003022D02*
X002713Y003022D01*
X002713Y003120D02*
X002713Y003120D01*
X003042Y002923D02*
X003410Y002923D01*
X003424Y002825D02*
X003065Y002825D01*
X003095Y002726D02*
X003521Y002726D01*
X003461Y002761D02*
X003461Y002761D01*
X003461Y002761D01*
X003590Y002628D02*
X003099Y002628D01*
X003074Y002529D02*
X003688Y002529D01*
X003787Y002431D02*
X003020Y002431D01*
X002517Y002332D02*
X001698Y002332D01*
X001698Y002234D02*
X001602Y002234D01*
X001602Y002135D02*
X001698Y002135D01*
X001698Y002037D02*
X001602Y002037D01*
X001602Y001938D02*
X001698Y001938D01*
X001698Y001840D02*
X001602Y001840D01*
X001602Y001741D02*
X001698Y001741D01*
X001350Y001544D02*
X004573Y001544D01*
X004960Y001938D02*
X005155Y001938D01*
X005039Y001889D02*
X005039Y001889D01*
X004894Y002037D02*
X005254Y002037D01*
X005291Y002135D02*
X005352Y002135D01*
X005291Y002234D02*
X005451Y002234D01*
X005549Y002332D02*
X005291Y002332D01*
X005285Y002431D02*
X005648Y002431D01*
X005746Y002529D02*
X004754Y002529D01*
X004655Y002628D02*
X005845Y002628D01*
X005943Y002726D02*
X004561Y002726D01*
X004564Y002825D02*
X004828Y002825D01*
X004776Y002923D02*
X004290Y002923D01*
X004242Y002923D02*
X003950Y002923D01*
X003969Y002969D02*
X004242Y002969D01*
X004242Y003284D01*
X004099Y003284D01*
X004061Y003274D01*
X004026Y003254D01*
X003998Y003226D01*
X003979Y003192D01*
X003969Y003154D01*
X003969Y002969D01*
X003969Y003022D02*
X003950Y003022D01*
X003950Y003120D02*
X003969Y003120D01*
X003950Y003219D02*
X003994Y003219D01*
X003950Y003317D02*
X004884Y003317D01*
X004884Y003416D02*
X003950Y003416D01*
X003950Y003514D02*
X004884Y003514D01*
X004884Y003613D02*
X003920Y003613D01*
X003822Y003711D02*
X004826Y003711D01*
X004727Y003810D02*
X003723Y003810D01*
X003820Y003908D02*
X004629Y003908D01*
X004530Y004007D02*
X003919Y004007D01*
X004417Y004105D02*
X004432Y004105D01*
X004560Y004401D02*
X004894Y004401D01*
X004894Y004499D02*
X004500Y004499D01*
X004500Y004598D02*
X004894Y004598D01*
X004894Y004696D02*
X004500Y004696D01*
X004500Y004795D02*
X004894Y004795D01*
X004894Y004893D02*
X004500Y004893D01*
X004500Y004992D02*
X004894Y004992D01*
X004894Y005050D02*
X004894Y004250D01*
X004959Y004186D01*
X005284Y004186D01*
X005468Y004002D01*
X005502Y003918D01*
X005618Y003802D01*
X005768Y003740D01*
X006532Y003740D01*
X006682Y003802D01*
X006798Y003918D01*
X006860Y004068D01*
X006860Y004232D01*
X006798Y004382D01*
X006682Y004498D01*
X006532Y004560D01*
X005768Y004560D01*
X005701Y004532D01*
X005508Y004725D01*
X005508Y004912D01*
X005618Y004802D01*
X005768Y004740D01*
X006200Y004740D01*
X006262Y004715D01*
X007351Y004715D01*
X007394Y004671D01*
X007361Y004652D01*
X007333Y004624D01*
X007313Y004590D01*
X007303Y004552D01*
X007303Y004364D01*
X007602Y004364D01*
X007602Y004267D01*
X007698Y004267D01*
X007698Y003949D01*
X007867Y003949D01*
X007905Y003959D01*
X007939Y003979D01*
X007967Y004007D01*
X007987Y004041D01*
X007997Y004079D01*
X007997Y004267D01*
X007698Y004267D01*
X007698Y004364D01*
X007997Y004364D01*
X007997Y004552D01*
X007987Y004590D01*
X007967Y004624D01*
X007939Y004652D01*
X007906Y004671D01*
X007949Y004715D01*
X008538Y004715D01*
X008638Y004756D01*
X008751Y004869D01*
X008819Y004897D01*
X008903Y004981D01*
X008948Y005091D01*
X008948Y005209D01*
X008903Y005319D01*
X008819Y005403D01*
X008709Y005448D01*
X008591Y005448D01*
X008481Y005403D01*
X008397Y005319D01*
X008371Y005255D01*
X007949Y005255D01*
X007892Y005311D01*
X007408Y005311D01*
X007351Y005255D01*
X006850Y005255D01*
X006798Y005382D01*
X006682Y005498D01*
X006532Y005560D01*
X005768Y005560D01*
X005618Y005498D01*
X005502Y005382D01*
X005440Y005232D01*
X005440Y005114D01*
X004959Y005114D01*
X004894Y005050D01*
X004934Y005090D02*
X004500Y005090D01*
X004424Y005189D02*
X005440Y005189D01*
X005463Y005287D02*
X002145Y005287D01*
X002150Y005189D02*
X003576Y005189D01*
X003478Y005090D02*
X002150Y005090D01*
X002150Y004893D02*
X002426Y004893D01*
X002413Y004880D02*
X002371Y004817D01*
X002342Y004747D01*
X002327Y004672D01*
X002327Y004663D01*
X002684Y004663D01*
X002684Y005020D01*
X002675Y005020D01*
X002600Y005006D01*
X002530Y004977D01*
X002467Y004934D01*
X002413Y004880D01*
X002361Y004795D02*
X002150Y004795D01*
X002150Y004696D02*
X002331Y004696D01*
X002327Y004598D02*
X002150Y004598D01*
X002141Y004499D02*
X002351Y004499D01*
X002405Y004401D02*
X002104Y004401D01*
X002110Y004302D02*
X002300Y004302D01*
X002300Y004204D02*
X002110Y004204D01*
X002110Y004105D02*
X002300Y004105D01*
X002300Y004007D02*
X002110Y004007D01*
X002110Y003908D02*
X002337Y003908D01*
X002337Y003810D02*
X002110Y003810D01*
X002110Y003711D02*
X002337Y003711D01*
X002337Y003613D02*
X002105Y003613D01*
X002110Y003514D02*
X002337Y003514D01*
X002337Y003416D02*
X002110Y003416D01*
X002110Y003317D02*
X002335Y003317D01*
X002297Y003219D02*
X002110Y003219D01*
X002110Y003120D02*
X002297Y003120D01*
X002302Y003022D02*
X002110Y003022D01*
X002110Y002923D02*
X002384Y002923D01*
X002361Y002825D02*
X002131Y002825D01*
X002150Y002726D02*
X002331Y002726D01*
X002327Y002628D02*
X002150Y002628D01*
X002150Y002529D02*
X002352Y002529D01*
X002406Y002431D02*
X002150Y002431D01*
X001698Y002431D02*
X001602Y002431D01*
X001602Y002529D02*
X001698Y002529D01*
X001698Y002628D02*
X001602Y002628D01*
X001602Y002726D02*
X001698Y002726D01*
X001698Y002825D02*
X001602Y002825D01*
X002107Y001899D02*
X002107Y001899D01*
X001350Y001446D02*
X011450Y001446D01*
X011450Y001544D02*
X005327Y001544D01*
X005425Y001643D02*
X011450Y001643D01*
X011450Y001741D02*
X005524Y001741D01*
X005622Y001840D02*
X011450Y001840D01*
X011450Y001938D02*
X005721Y001938D01*
X005819Y002037D02*
X006666Y002037D01*
X006666Y002135D02*
X005918Y002135D01*
X006016Y002234D02*
X006666Y002234D01*
X006676Y002332D02*
X006115Y002332D01*
X006213Y002431D02*
X006612Y002431D01*
X006439Y002889D02*
X006439Y002889D01*
X006439Y002889D01*
X006380Y002923D02*
X006665Y002923D01*
X006666Y003022D02*
X005291Y003022D01*
X005291Y003120D02*
X006666Y003120D01*
X006666Y003219D02*
X005253Y003219D01*
X005184Y003317D02*
X006717Y003317D01*
X007091Y003317D02*
X007209Y003317D01*
X007223Y003331D02*
X007158Y003266D01*
X007158Y002978D01*
X007172Y002965D01*
X007158Y002951D01*
X007158Y002663D01*
X007172Y002650D01*
X007158Y002637D01*
X007158Y002349D01*
X007172Y002335D01*
X007158Y002322D01*
X007158Y002034D01*
X007223Y001969D01*
X007570Y001969D01*
X007634Y002034D01*
X007634Y002322D01*
X007621Y002335D01*
X007634Y002349D01*
X007634Y002353D01*
X007635Y002353D01*
X007717Y002435D01*
X009233Y003950D01*
X009902Y003950D01*
X010111Y003741D01*
X010002Y003632D01*
X009940Y003482D01*
X009940Y003318D01*
X010002Y003168D01*
X010118Y003052D01*
X010268Y002990D01*
X011032Y002990D01*
X011182Y003052D01*
X011298Y003168D01*
X011360Y003318D01*
X011360Y003482D01*
X011298Y003632D01*
X011182Y003748D01*
X011032Y003810D01*
X010438Y003810D01*
X010251Y003997D01*
X010268Y003990D01*
X011032Y003990D01*
X011182Y004052D01*
X011298Y004168D01*
X011360Y004318D01*
X011360Y004482D01*
X011298Y004632D01*
X011182Y004748D01*
X011032Y004810D01*
X010268Y004810D01*
X010118Y004748D01*
X010002Y004632D01*
X009940Y004482D01*
X009940Y004350D01*
X009690Y004350D01*
X009690Y004414D01*
X009626Y004526D01*
X009626Y004526D01*
X009626Y004526D01*
X009514Y004590D01*
X009386Y004590D01*
X009274Y004526D01*
X009210Y004414D01*
X009210Y004350D01*
X009067Y004350D01*
X008985Y004268D01*
X007650Y002932D01*
X007634Y002932D01*
X007634Y002951D01*
X007621Y002965D01*
X007634Y002978D01*
X007634Y003266D01*
X007570Y003331D01*
X007223Y003331D01*
X007158Y003219D02*
X007142Y003219D01*
X007142Y003120D02*
X007158Y003120D01*
X007158Y003022D02*
X007142Y003022D01*
X007142Y002923D02*
X007158Y002923D01*
X007158Y002825D02*
X007142Y002825D01*
X007142Y002726D02*
X007158Y002726D01*
X007158Y002628D02*
X007142Y002628D01*
X007142Y002529D02*
X007158Y002529D01*
X007158Y002431D02*
X007142Y002431D01*
X007131Y002332D02*
X007169Y002332D01*
X007158Y002234D02*
X007142Y002234D01*
X007142Y002135D02*
X007158Y002135D01*
X007158Y002037D02*
X007142Y002037D01*
X007634Y002037D02*
X010085Y002037D01*
X010057Y002057D02*
X010114Y002015D01*
X010177Y001983D01*
X010245Y001961D01*
X010315Y001950D01*
X010600Y001950D01*
X010600Y002350D01*
X010700Y002350D01*
X010700Y002450D01*
X010600Y002450D01*
X010600Y002850D01*
X010315Y002850D01*
X010245Y002839D01*
X010177Y002817D01*
X010114Y002785D01*
X010057Y002743D01*
X010007Y002693D01*
X009965Y002636D01*
X009933Y002573D01*
X009911Y002505D01*
X009902Y002450D01*
X010600Y002450D01*
X010600Y002350D01*
X009902Y002350D01*
X009911Y002295D01*
X009933Y002227D01*
X009965Y002164D01*
X010007Y002107D01*
X010057Y002057D01*
X009986Y002135D02*
X007634Y002135D01*
X007634Y002234D02*
X009931Y002234D01*
X009905Y002332D02*
X007624Y002332D01*
X007713Y002431D02*
X010600Y002431D01*
X010600Y002529D02*
X010700Y002529D01*
X010700Y002450D02*
X010700Y002850D01*
X010985Y002850D01*
X011055Y002839D01*
X011123Y002817D01*
X011186Y002785D01*
X011243Y002743D01*
X011293Y002693D01*
X011335Y002636D01*
X011367Y002573D01*
X011389Y002505D01*
X011398Y002450D01*
X010700Y002450D01*
X010700Y002431D02*
X011450Y002431D01*
X011398Y002350D02*
X010700Y002350D01*
X010700Y001950D01*
X010985Y001950D01*
X011055Y001961D01*
X011123Y001983D01*
X011186Y002015D01*
X011243Y002057D01*
X011293Y002107D01*
X011335Y002164D01*
X011367Y002227D01*
X011389Y002295D01*
X011398Y002350D01*
X011395Y002332D02*
X011450Y002332D01*
X011450Y002234D02*
X011369Y002234D01*
X011314Y002135D02*
X011450Y002135D01*
X011450Y002037D02*
X011215Y002037D01*
X010700Y002037D02*
X010600Y002037D01*
X010600Y002135D02*
X010700Y002135D01*
X010700Y002234D02*
X010600Y002234D01*
X010600Y002332D02*
X010700Y002332D01*
X010700Y002628D02*
X010600Y002628D01*
X010600Y002726D02*
X010700Y002726D01*
X010700Y002825D02*
X010600Y002825D01*
X010200Y002825D02*
X008107Y002825D01*
X008206Y002923D02*
X011450Y002923D01*
X011450Y002825D02*
X011100Y002825D01*
X011260Y002726D02*
X011450Y002726D01*
X011450Y002628D02*
X011339Y002628D01*
X011381Y002529D02*
X011450Y002529D01*
X011450Y003022D02*
X011108Y003022D01*
X011250Y003120D02*
X011450Y003120D01*
X011450Y003219D02*
X011319Y003219D01*
X011359Y003317D02*
X011450Y003317D01*
X011450Y003416D02*
X011360Y003416D01*
X011347Y003514D02*
X011450Y003514D01*
X011450Y003613D02*
X011306Y003613D01*
X011219Y003711D02*
X011450Y003711D01*
X011450Y003810D02*
X011033Y003810D01*
X011071Y004007D02*
X011450Y004007D01*
X011450Y004105D02*
X011235Y004105D01*
X011312Y004204D02*
X011450Y004204D01*
X011450Y004302D02*
X011353Y004302D01*
X011360Y004401D02*
X011450Y004401D01*
X011450Y004499D02*
X011353Y004499D01*
X011312Y004598D02*
X011450Y004598D01*
X011450Y004696D02*
X011234Y004696D01*
X011069Y004795D02*
X011450Y004795D01*
X011450Y004893D02*
X008809Y004893D01*
X008907Y004992D02*
X010160Y004992D01*
X010177Y004983D02*
X010114Y005015D01*
X010057Y005057D01*
X010007Y005107D01*
X009965Y005164D01*
X009933Y005227D01*
X009911Y005295D01*
X009902Y005350D01*
X010600Y005350D01*
X010700Y005350D01*
X010700Y005450D01*
X010600Y005450D01*
X010600Y005850D01*
X010315Y005850D01*
X010245Y005839D01*
X010177Y005817D01*
X010114Y005785D01*
X010057Y005743D01*
X010007Y005693D01*
X009965Y005636D01*
X009933Y005573D01*
X009911Y005505D01*
X009902Y005450D01*
X010600Y005450D01*
X010600Y005350D01*
X010600Y004950D01*
X010315Y004950D01*
X010245Y004961D01*
X010177Y004983D01*
X010024Y005090D02*
X008948Y005090D01*
X008948Y005189D02*
X009953Y005189D01*
X009914Y005287D02*
X008916Y005287D01*
X008836Y005386D02*
X010600Y005386D01*
X010600Y005484D02*
X010700Y005484D01*
X010700Y005450D02*
X010700Y005850D01*
X010985Y005850D01*
X011055Y005839D01*
X011123Y005817D01*
X011186Y005785D01*
X011243Y005743D01*
X011293Y005693D01*
X011335Y005636D01*
X011367Y005573D01*
X011389Y005505D01*
X011398Y005450D01*
X010700Y005450D01*
X010700Y005386D02*
X011450Y005386D01*
X011398Y005350D02*
X010700Y005350D01*
X010700Y004950D01*
X010985Y004950D01*
X011055Y004961D01*
X011123Y004983D01*
X011186Y005015D01*
X011243Y005057D01*
X011293Y005107D01*
X011335Y005164D01*
X011367Y005227D01*
X011389Y005295D01*
X011398Y005350D01*
X011386Y005287D02*
X011450Y005287D01*
X011450Y005189D02*
X011347Y005189D01*
X011276Y005090D02*
X011450Y005090D01*
X011450Y004992D02*
X011140Y004992D01*
X011392Y005484D02*
X011450Y005484D01*
X011450Y005583D02*
X011362Y005583D01*
X011302Y005681D02*
X011450Y005681D01*
X011450Y005780D02*
X011193Y005780D01*
X011032Y005990D02*
X011182Y006052D01*
X011298Y006168D01*
X011360Y006318D01*
X011360Y006482D01*
X011298Y006632D01*
X011182Y006748D01*
X011032Y006810D01*
X010438Y006810D01*
X010251Y006997D01*
X010268Y006990D01*
X011032Y006990D01*
X011182Y007052D01*
X011298Y007168D01*
X011360Y007318D01*
X011360Y007482D01*
X011298Y007632D01*
X011182Y007748D01*
X011032Y007810D01*
X010268Y007810D01*
X010118Y007748D01*
X010002Y007632D01*
X009940Y007482D01*
X009940Y007350D01*
X009552Y007350D01*
X009383Y007252D01*
X009285Y007083D01*
X009285Y007020D01*
X009187Y007020D01*
X009126Y007126D01*
X009126Y007126D01*
X009126Y007126D01*
X009014Y007190D01*
X008886Y007190D01*
X008796Y007138D01*
X008730Y007252D01*
X008730Y007252D01*
X008561Y007350D01*
X007958Y007350D01*
X007943Y007365D01*
X007861Y007447D01*
X007634Y007447D01*
X007634Y007451D01*
X007621Y007465D01*
X007634Y007478D01*
X007634Y007766D01*
X007570Y007831D01*
X007223Y007831D01*
X007158Y007766D01*
X007158Y007478D01*
X007172Y007465D01*
X007158Y007451D01*
X007158Y007163D01*
X007172Y007150D01*
X007158Y007137D01*
X007158Y006849D01*
X007172Y006835D01*
X007158Y006822D01*
X007158Y006534D01*
X007223Y006469D01*
X007570Y006469D01*
X007634Y006534D01*
X007634Y006822D01*
X007621Y006835D01*
X007634Y006849D01*
X007634Y006853D01*
X007861Y006853D01*
X007943Y006935D01*
X007958Y006950D01*
X008428Y006950D01*
X008428Y006887D01*
X008526Y006718D01*
X008695Y006620D01*
X009418Y006620D01*
X009587Y006718D01*
X009685Y006887D01*
X009685Y006950D01*
X009902Y006950D01*
X010111Y006741D01*
X010002Y006632D01*
X009940Y006482D01*
X009940Y006318D01*
X010002Y006168D01*
X010118Y006052D01*
X010268Y005990D01*
X011032Y005990D01*
X011205Y006075D02*
X011450Y006075D01*
X011450Y005977D02*
X005259Y005977D01*
X005233Y005950D02*
X005315Y006032D01*
X006233Y006950D01*
X006592Y006950D01*
X006666Y006876D01*
X006666Y006849D01*
X006679Y006835D01*
X006666Y006822D01*
X006666Y006534D01*
X006730Y006469D01*
X007077Y006469D01*
X007142Y006534D01*
X007142Y006822D01*
X007128Y006835D01*
X007142Y006849D01*
X007142Y007137D01*
X007128Y007150D01*
X007142Y007163D01*
X007142Y007451D01*
X007128Y007465D01*
X007142Y007478D01*
X007142Y007766D01*
X007077Y007831D01*
X006730Y007831D01*
X006666Y007766D01*
X006666Y007478D01*
X006679Y007465D01*
X006667Y007452D01*
X006618Y007480D01*
X006608Y007490D01*
X006492Y007490D01*
X006482Y007480D01*
X006450Y007462D01*
X006418Y007480D01*
X006408Y007490D01*
X006286Y007490D01*
X006174Y007426D01*
X006131Y007350D01*
X006067Y007350D01*
X005067Y006350D01*
X004883Y006350D01*
X004850Y006383D01*
X004850Y006492D01*
X004914Y006556D01*
X005227Y006556D01*
X005291Y006620D01*
X005291Y006924D01*
X005227Y006988D01*
X004841Y006988D01*
X004818Y006965D01*
X004615Y007168D01*
X004560Y007223D01*
X004564Y007237D01*
X004564Y007421D01*
X004290Y007421D01*
X004290Y007469D01*
X004564Y007469D01*
X004564Y007654D01*
X004554Y007692D01*
X004534Y007726D01*
X004506Y007754D01*
X004472Y007774D01*
X004434Y007784D01*
X004290Y007784D01*
X004290Y007469D01*
X004242Y007469D01*
X004242Y007421D01*
X003969Y007421D01*
X003969Y007264D01*
X003950Y007283D01*
X003950Y007733D01*
X003868Y007815D01*
X003783Y007900D01*
X004637Y007900D01*
X004817Y007720D01*
X004776Y007680D01*
X004776Y007376D01*
X004841Y007312D01*
X005227Y007312D01*
X005291Y007376D01*
X005291Y007680D01*
X005227Y007744D01*
X005184Y007744D01*
X005184Y007777D01*
X004800Y008161D01*
X004800Y009012D01*
X004712Y009100D01*
X003488Y009100D01*
X003093Y008705D01*
X003084Y008747D01*
X003055Y008817D01*
X003013Y008880D01*
X002959Y008934D01*
X002896Y008977D01*
X002826Y009006D01*
X002751Y009020D01*
X002742Y009020D01*
X002742Y008663D01*
X002684Y008663D01*
X002684Y008606D01*
X002327Y008606D01*
X002327Y008596D01*
X002342Y008522D01*
X002371Y008451D01*
X002405Y008400D01*
X002388Y008400D01*
X002300Y008312D01*
X002300Y007988D01*
X002337Y007951D01*
X002337Y007782D01*
X002341Y007778D01*
X002337Y007774D01*
X002337Y007526D01*
X002341Y007522D01*
X002337Y007518D01*
X002337Y007319D01*
X002327Y007309D01*
X002307Y007275D01*
X002297Y007237D01*
X002297Y007138D01*
X002297Y007040D01*
X002307Y007002D01*
X002327Y006967D01*
X002355Y006939D01*
X002389Y006920D01*
X002414Y006913D01*
X002413Y006912D01*
X002371Y006849D01*
X002342Y006778D01*
X002327Y006704D01*
X002327Y006694D01*
X002684Y006694D01*
X002684Y006637D01*
X002327Y006637D01*
X002327Y006628D01*
X002342Y006553D01*
X002371Y006483D01*
X002413Y006420D01*
X002467Y006366D01*
X002530Y006323D01*
X002600Y006294D01*
X002675Y006280D01*
X002684Y006280D01*
X002684Y006637D01*
X002742Y006637D01*
X002742Y006694D01*
X003099Y006694D01*
X003099Y006704D01*
X003084Y006778D01*
X003055Y006849D01*
X003013Y006912D01*
X003012Y006913D01*
X003037Y006920D01*
X003071Y006939D01*
X003099Y006967D01*
X003119Y007002D01*
X003129Y007040D01*
X003129Y007138D01*
X002713Y007138D01*
X002713Y006909D01*
X002713Y007138D01*
X002713Y007138D01*
X002713Y007138D01*
X002297Y007138D01*
X002713Y007138D01*
X002713Y007138D01*
X003129Y007138D01*
X003129Y007237D01*
X003119Y007275D01*
X003099Y007309D01*
X003089Y007319D01*
X003089Y007510D01*
X003110Y007510D01*
X003110Y007492D01*
X003120Y007482D01*
X003161Y007411D01*
X003232Y007370D01*
X003242Y007360D01*
X003358Y007360D01*
X003368Y007370D01*
X003439Y007411D01*
X003480Y007482D01*
X003490Y007492D01*
X003490Y007550D01*
X003550Y007550D01*
X003550Y007117D01*
X003735Y006932D01*
X003817Y006850D01*
X004009Y006850D01*
X004009Y006620D01*
X004073Y006556D01*
X004386Y006556D01*
X004450Y006492D01*
X004450Y006217D01*
X004532Y006135D01*
X004717Y005950D01*
X005233Y005950D01*
X005358Y006075D02*
X010095Y006075D01*
X010000Y006174D02*
X005456Y006174D01*
X005555Y006272D02*
X009959Y006272D01*
X009940Y006371D02*
X005653Y006371D01*
X005752Y006469D02*
X009940Y006469D01*
X009976Y006568D02*
X007634Y006568D01*
X007634Y006666D02*
X008615Y006666D01*
X008526Y006718D02*
X008526Y006718D01*
X008526Y006718D01*
X008499Y006765D02*
X007634Y006765D01*
X007871Y006863D02*
X008442Y006863D01*
X008784Y007159D02*
X008831Y007159D01*
X008730Y007252D02*
X008730Y007252D01*
X008722Y007257D02*
X009391Y007257D01*
X009383Y007252D02*
X009383Y007252D01*
X009383Y007252D01*
X009329Y007159D02*
X009069Y007159D01*
X009164Y007060D02*
X009285Y007060D01*
X009614Y006765D02*
X010087Y006765D01*
X010036Y006666D02*
X009497Y006666D01*
X009587Y006718D02*
X009587Y006718D01*
X009587Y006718D01*
X009671Y006863D02*
X009989Y006863D01*
X010286Y006962D02*
X011450Y006962D01*
X011450Y007060D02*
X011190Y007060D01*
X011288Y007159D02*
X011450Y007159D01*
X011450Y007257D02*
X011335Y007257D01*
X011360Y007356D02*
X011450Y007356D01*
X011450Y007454D02*
X011360Y007454D01*
X011331Y007553D02*
X011450Y007553D01*
X011450Y007651D02*
X011279Y007651D01*
X011178Y007750D02*
X011450Y007750D01*
X011450Y007848D02*
X005113Y007848D01*
X005184Y007750D02*
X006666Y007750D01*
X006666Y007651D02*
X005291Y007651D01*
X005291Y007553D02*
X006666Y007553D01*
X006663Y007454D02*
X006669Y007454D01*
X006223Y007454D02*
X005291Y007454D01*
X005271Y007356D02*
X006134Y007356D01*
X006174Y007426D02*
X006174Y007426D01*
X006174Y007426D01*
X005974Y007257D02*
X004564Y007257D01*
X004564Y007356D02*
X004797Y007356D01*
X004776Y007454D02*
X004290Y007454D01*
X004242Y007454D02*
X003950Y007454D01*
X003969Y007469D02*
X004242Y007469D01*
X004242Y007784D01*
X004099Y007784D01*
X004061Y007774D01*
X004026Y007754D01*
X003998Y007726D01*
X003979Y007692D01*
X003969Y007654D01*
X003969Y007469D01*
X003969Y007553D02*
X003950Y007553D01*
X003950Y007651D02*
X003969Y007651D01*
X003933Y007750D02*
X004022Y007750D01*
X004242Y007750D02*
X004290Y007750D01*
X004290Y007651D02*
X004242Y007651D01*
X004242Y007553D02*
X004290Y007553D01*
X004564Y007553D02*
X004776Y007553D01*
X004776Y007651D02*
X004564Y007651D01*
X004511Y007750D02*
X004787Y007750D01*
X004689Y007848D02*
X003835Y007848D01*
X003550Y007454D02*
X003464Y007454D01*
X003439Y007411D02*
X003439Y007411D01*
X003439Y007411D01*
X003550Y007356D02*
X003089Y007356D01*
X003161Y007411D02*
X003161Y007411D01*
X003161Y007411D01*
X003136Y007454D02*
X003089Y007454D01*
X003123Y007257D02*
X003550Y007257D01*
X003550Y007159D02*
X003129Y007159D01*
X003129Y007060D02*
X003607Y007060D01*
X003706Y006962D02*
X003093Y006962D01*
X003046Y006863D02*
X003804Y006863D01*
X003735Y006932D02*
X003735Y006932D01*
X004009Y006765D02*
X003087Y006765D01*
X003099Y006637D02*
X002742Y006637D01*
X002742Y006280D01*
X002751Y006280D01*
X002826Y006294D01*
X002896Y006323D01*
X002959Y006366D01*
X003013Y006420D01*
X003055Y006483D01*
X003084Y006553D01*
X003099Y006628D01*
X003099Y006637D01*
X003087Y006568D02*
X004061Y006568D01*
X004009Y006666D02*
X002742Y006666D01*
X002742Y006694D02*
X002684Y006694D01*
X002684Y006909D01*
X002713Y006909D01*
X002742Y006909D01*
X002742Y006694D01*
X002684Y006666D02*
X002150Y006666D01*
X002150Y006568D02*
X002339Y006568D01*
X002380Y006469D02*
X002150Y006469D01*
X002150Y006371D02*
X002462Y006371D01*
X002684Y006371D02*
X002742Y006371D01*
X002742Y006469D02*
X002684Y006469D01*
X002684Y006568D02*
X002742Y006568D01*
X002742Y006765D02*
X002684Y006765D01*
X002684Y006863D02*
X002742Y006863D01*
X002713Y006962D02*
X002713Y006962D01*
X002713Y007060D02*
X002713Y007060D01*
X002380Y006863D02*
X002104Y006863D01*
X002110Y006962D02*
X002333Y006962D01*
X002297Y007060D02*
X002110Y007060D01*
X002110Y007159D02*
X002297Y007159D01*
X002303Y007257D02*
X002110Y007257D01*
X002110Y007356D02*
X002337Y007356D01*
X002337Y007454D02*
X002110Y007454D01*
X002110Y007553D02*
X002337Y007553D01*
X002337Y007651D02*
X002068Y007651D01*
X002110Y007750D02*
X002337Y007750D01*
X002337Y007848D02*
X002110Y007848D01*
X002110Y007947D02*
X002337Y007947D01*
X002300Y008045D02*
X002110Y008045D01*
X002110Y008144D02*
X002300Y008144D01*
X002300Y008242D02*
X002110Y008242D01*
X002110Y008341D02*
X002328Y008341D01*
X002379Y008439D02*
X002106Y008439D01*
X002150Y008538D02*
X002338Y008538D01*
X002327Y008663D02*
X002684Y008663D01*
X002684Y009020D01*
X002675Y009020D01*
X002600Y009006D01*
X002530Y008977D01*
X002467Y008934D01*
X002413Y008880D01*
X002371Y008817D01*
X002342Y008747D01*
X002327Y008672D01*
X002327Y008663D01*
X002339Y008735D02*
X002150Y008735D01*
X002150Y008833D02*
X002381Y008833D01*
X002464Y008932D02*
X001698Y008932D01*
X001698Y009030D02*
X001602Y009030D01*
X001602Y009129D02*
X001698Y009129D01*
X001698Y009227D02*
X001602Y009227D01*
X001602Y009326D02*
X001698Y009326D01*
X001698Y009424D02*
X001602Y009424D01*
X001602Y009523D02*
X001698Y009523D01*
X002002Y009523D02*
X003686Y009523D01*
X003686Y009459D02*
X003750Y009394D01*
X004113Y009394D01*
X004147Y009380D01*
X005040Y009380D01*
X005118Y009302D01*
X005268Y009240D01*
X006032Y009240D01*
X006182Y009302D01*
X006298Y009418D01*
X006360Y009568D01*
X006360Y009732D01*
X006298Y009882D01*
X006182Y009998D01*
X006032Y010060D01*
X005268Y010060D01*
X005118Y009998D01*
X005040Y009920D01*
X004614Y009920D01*
X004614Y009944D01*
X004550Y010008D01*
X003750Y010008D01*
X003686Y009944D01*
X003686Y009459D01*
X003720Y009424D02*
X002092Y009424D01*
X002137Y009326D02*
X005095Y009326D01*
X005196Y009030D02*
X004782Y009030D01*
X004800Y008932D02*
X005052Y008932D01*
X005002Y008882D02*
X005118Y008998D01*
X005268Y009060D01*
X005700Y009060D01*
X005762Y009085D01*
X006851Y009085D01*
X006894Y009129D01*
X006861Y009148D01*
X006833Y009176D01*
X006813Y009210D01*
X006803Y009248D01*
X006803Y009436D01*
X007102Y009436D01*
X007102Y009533D01*
X007102Y009851D01*
X006933Y009851D01*
X006895Y009841D01*
X006861Y009821D01*
X006833Y009793D01*
X006813Y009759D01*
X006803Y009721D01*
X006803Y009533D01*
X007102Y009533D01*
X007198Y009533D01*
X007198Y009851D01*
X007367Y009851D01*
X007405Y009841D01*
X007439Y009821D01*
X007467Y009793D01*
X007487Y009759D01*
X007497Y009721D01*
X007497Y009533D01*
X007198Y009533D01*
X007198Y009436D01*
X007497Y009436D01*
X007497Y009248D01*
X007487Y009210D01*
X007467Y009176D01*
X007439Y009148D01*
X007406Y009129D01*
X008747Y009129D01*
X008704Y009085D02*
X007449Y009085D01*
X007406Y009129D01*
X007491Y009227D02*
X008845Y009227D01*
X008944Y009326D02*
X007497Y009326D01*
X007497Y009424D02*
X009042Y009424D01*
X009141Y009523D02*
X007198Y009523D01*
X007102Y009523D02*
X006341Y009523D01*
X006360Y009621D02*
X006803Y009621D01*
X006803Y009720D02*
X006360Y009720D01*
X006324Y009818D02*
X006858Y009818D01*
X007102Y009818D02*
X007198Y009818D01*
X007198Y009720D02*
X007102Y009720D01*
X007102Y009621D02*
X007198Y009621D01*
X007497Y009621D02*
X009239Y009621D01*
X009247Y009629D02*
X009171Y009553D01*
X008704Y009085D01*
X009116Y008735D02*
X010048Y008735D01*
X010057Y008743D02*
X010007Y008693D01*
X009965Y008636D01*
X009933Y008573D01*
X009911Y008505D01*
X009902Y008450D01*
X010600Y008450D01*
X010600Y008850D01*
X010315Y008850D01*
X010245Y008839D01*
X010177Y008817D01*
X010114Y008785D01*
X010057Y008743D01*
X009965Y008636D02*
X009018Y008636D01*
X008968Y008586D02*
X009512Y009130D01*
X010040Y009130D01*
X010118Y009052D01*
X010268Y008990D01*
X011032Y008990D01*
X011182Y009052D01*
X011298Y009168D01*
X011360Y009318D01*
X011360Y009482D01*
X011298Y009632D01*
X011182Y009748D01*
X011032Y009810D01*
X010268Y009810D01*
X010118Y009748D01*
X010040Y009670D01*
X009346Y009670D01*
X009247Y009629D01*
X009510Y009129D02*
X010042Y009129D01*
X010172Y009030D02*
X009412Y009030D01*
X009313Y008932D02*
X011450Y008932D01*
X011450Y009030D02*
X011128Y009030D01*
X011258Y009129D02*
X011450Y009129D01*
X011450Y009227D02*
X011322Y009227D01*
X011360Y009326D02*
X011450Y009326D01*
X011450Y009424D02*
X011360Y009424D01*
X011343Y009523D02*
X011450Y009523D01*
X011450Y009621D02*
X011302Y009621D01*
X011210Y009720D02*
X011450Y009720D01*
X011450Y009818D02*
X007442Y009818D01*
X007497Y009720D02*
X010090Y009720D01*
X010208Y010015D02*
X006140Y010015D01*
X006263Y009917D02*
X011450Y009917D01*
X011450Y010015D02*
X011092Y010015D01*
X011032Y009990D02*
X011182Y010052D01*
X011298Y010168D01*
X011360Y010318D01*
X011360Y010482D01*
X011298Y010632D01*
X011182Y010748D01*
X011032Y010810D01*
X010452Y010810D01*
X010272Y010990D01*
X011032Y010990D01*
X011182Y011052D01*
X011298Y011168D01*
X011360Y011318D01*
X011360Y011482D01*
X011298Y011632D01*
X011182Y011748D01*
X011032Y011810D01*
X010452Y011810D01*
X010272Y011990D01*
X011032Y011990D01*
X011182Y012052D01*
X011298Y012168D01*
X011360Y012318D01*
X011360Y012482D01*
X011298Y012632D01*
X011182Y012748D01*
X011032Y012810D01*
X010480Y012810D01*
X008320Y014970D01*
X008320Y014977D01*
X008382Y015002D01*
X008498Y015118D01*
X008560Y015268D01*
X008560Y016032D01*
X008498Y016182D01*
X008382Y016298D01*
X008232Y016360D01*
X008068Y016360D01*
X007918Y016298D01*
X007802Y016182D01*
X007740Y016032D01*
X007740Y015268D01*
X007802Y015118D01*
X007918Y015002D01*
X007980Y014977D01*
X007980Y014830D01*
X008080Y014730D01*
X010090Y012720D01*
X010002Y012632D01*
X009940Y012482D01*
X009940Y012322D01*
X007550Y014712D01*
X007462Y014800D01*
X002832Y014800D01*
X002798Y014882D01*
X002682Y014998D01*
X002532Y015060D01*
X001768Y015060D01*
X001618Y014998D01*
X001502Y014882D01*
X001440Y014732D01*
X001440Y014568D01*
X001502Y014418D01*
X001618Y014302D01*
X001768Y014240D01*
X002532Y014240D01*
X002682Y014302D01*
X002798Y014418D01*
X002832Y014500D01*
X007338Y014500D01*
X010104Y011734D01*
X010002Y011632D01*
X009940Y011482D01*
X009940Y011322D01*
X007550Y013712D01*
X007462Y013800D01*
X002832Y013800D01*
X002798Y013882D01*
X002682Y013998D01*
X002532Y014060D01*
X001768Y014060D01*
X001618Y013998D01*
X001502Y013882D01*
X001440Y013732D01*
X001440Y013568D01*
X001502Y013418D01*
X001618Y013302D01*
X001768Y013240D01*
X002532Y013240D01*
X002682Y013302D01*
X002798Y013418D01*
X002832Y013500D01*
X007338Y013500D01*
X010104Y010734D01*
X010002Y010632D01*
X009940Y010482D01*
X009940Y010318D01*
X010002Y010168D01*
X010118Y010052D01*
X010268Y009990D01*
X011032Y009990D01*
X011243Y010114D02*
X011450Y010114D01*
X011450Y010212D02*
X011316Y010212D01*
X011357Y010311D02*
X011450Y010311D01*
X011450Y010409D02*
X011360Y010409D01*
X011349Y010508D02*
X011450Y010508D01*
X011450Y010606D02*
X011308Y010606D01*
X011225Y010705D02*
X011450Y010705D01*
X011450Y010803D02*
X011048Y010803D01*
X011056Y011000D02*
X011450Y011000D01*
X011450Y010902D02*
X010361Y010902D01*
X010075Y010705D02*
X002897Y010705D01*
X002898Y010700D02*
X002889Y010755D01*
X002867Y010823D01*
X002835Y010886D01*
X002793Y010943D01*
X002743Y010993D01*
X002686Y011035D01*
X002623Y011067D01*
X002555Y011089D01*
X002485Y011100D01*
X002200Y011100D01*
X002200Y010700D01*
X002100Y010700D01*
X002100Y011100D01*
X001815Y011100D01*
X001745Y011089D01*
X001677Y011067D01*
X001614Y011035D01*
X001557Y010993D01*
X001507Y010943D01*
X001465Y010886D01*
X001433Y010823D01*
X001411Y010755D01*
X001402Y010700D01*
X002100Y010700D01*
X002100Y010600D01*
X002200Y010600D01*
X002200Y010700D01*
X002898Y010700D01*
X002898Y010600D02*
X002200Y010600D01*
X002200Y010200D01*
X002485Y010200D01*
X002555Y010211D01*
X002623Y010233D01*
X002686Y010265D01*
X002743Y010307D01*
X002793Y010357D01*
X002835Y010414D01*
X002867Y010477D01*
X002889Y010545D01*
X002898Y010600D01*
X002877Y010508D02*
X009951Y010508D01*
X009940Y010409D02*
X002831Y010409D01*
X002747Y010311D02*
X009943Y010311D01*
X009984Y010212D02*
X002558Y010212D01*
X002200Y010212D02*
X002100Y010212D01*
X002100Y010200D02*
X002100Y010600D01*
X001402Y010600D01*
X001411Y010545D01*
X001433Y010477D01*
X001465Y010414D01*
X001507Y010357D01*
X001557Y010307D01*
X001614Y010265D01*
X001677Y010233D01*
X001745Y010211D01*
X001815Y010200D01*
X002100Y010200D01*
X002100Y010311D02*
X002200Y010311D01*
X002200Y010409D02*
X002100Y010409D01*
X002100Y010508D02*
X002200Y010508D01*
X002200Y010606D02*
X009992Y010606D01*
X010035Y010803D02*
X002873Y010803D01*
X002823Y010902D02*
X009936Y010902D01*
X009838Y011000D02*
X002734Y011000D01*
X002495Y011099D02*
X009739Y011099D01*
X009641Y011197D02*
X001350Y011197D01*
X001350Y011099D02*
X001805Y011099D01*
X001768Y011240D02*
X001618Y011302D01*
X001502Y011418D01*
X001440Y011568D01*
X001440Y011732D01*
X001502Y011882D01*
X001618Y011998D01*
X001768Y012060D01*
X002532Y012060D01*
X002682Y011998D01*
X002798Y011882D01*
X002860Y011732D01*
X002860Y011568D01*
X002798Y011418D01*
X002682Y011302D01*
X002532Y011240D01*
X001768Y011240D01*
X001634Y011296D02*
X001350Y011296D01*
X001350Y011394D02*
X001526Y011394D01*
X001471Y011493D02*
X001350Y011493D01*
X001350Y011591D02*
X001440Y011591D01*
X001440Y011690D02*
X001350Y011690D01*
X001350Y011788D02*
X001463Y011788D01*
X001507Y011887D02*
X001350Y011887D01*
X001350Y011985D02*
X001605Y011985D01*
X001350Y012084D02*
X008754Y012084D01*
X008656Y012182D02*
X001350Y012182D01*
X001350Y012281D02*
X001671Y012281D01*
X001618Y012302D02*
X001768Y012240D01*
X002532Y012240D01*
X002682Y012302D01*
X002798Y012418D01*
X002860Y012568D01*
X002860Y012732D01*
X002798Y012882D01*
X002682Y012998D01*
X002532Y013060D01*
X001768Y013060D01*
X001618Y012998D01*
X001502Y012882D01*
X001440Y012732D01*
X001440Y012568D01*
X001502Y012418D01*
X001618Y012302D01*
X001541Y012379D02*
X001350Y012379D01*
X001350Y012478D02*
X001478Y012478D01*
X001440Y012576D02*
X001350Y012576D01*
X001350Y012675D02*
X001440Y012675D01*
X001457Y012773D02*
X001350Y012773D01*
X001350Y012872D02*
X001498Y012872D01*
X001590Y012970D02*
X001350Y012970D01*
X001350Y013069D02*
X007769Y013069D01*
X007671Y013167D02*
X001350Y013167D01*
X001350Y013266D02*
X001707Y013266D01*
X001556Y013364D02*
X001350Y013364D01*
X001350Y013463D02*
X001484Y013463D01*
X001443Y013561D02*
X001350Y013561D01*
X001350Y013660D02*
X001440Y013660D01*
X001451Y013758D02*
X001350Y013758D01*
X001350Y013857D02*
X001492Y013857D01*
X001575Y013955D02*
X001350Y013955D01*
X001350Y014054D02*
X001753Y014054D01*
X001743Y014251D02*
X001350Y014251D01*
X001350Y014349D02*
X001571Y014349D01*
X001490Y014448D02*
X001350Y014448D01*
X001350Y014546D02*
X001449Y014546D01*
X001440Y014645D02*
X001350Y014645D01*
X001350Y014743D02*
X001445Y014743D01*
X001486Y014842D02*
X001350Y014842D01*
X001350Y014940D02*
X001560Y014940D01*
X001717Y015039D02*
X001350Y015039D01*
X001350Y015137D02*
X006753Y015137D01*
X006765Y015114D02*
X006733Y015177D01*
X006711Y015245D01*
X006700Y015315D01*
X006700Y015600D01*
X007100Y015600D01*
X007200Y015600D01*
X007200Y015700D01*
X007600Y015700D01*
X007600Y015985D01*
X007589Y016055D01*
X007567Y016123D01*
X007535Y016186D01*
X007493Y016243D01*
X007443Y016293D01*
X007386Y016335D01*
X007323Y016367D01*
X007255Y016389D01*
X007200Y016398D01*
X007200Y015700D01*
X007100Y015700D01*
X007100Y016398D01*
X007045Y016389D01*
X006977Y016367D01*
X006914Y016335D01*
X006857Y016293D01*
X006807Y016243D01*
X006765Y016186D01*
X006733Y016123D01*
X006711Y016055D01*
X006700Y015985D01*
X006700Y015700D01*
X007100Y015700D01*
X007100Y015600D01*
X007100Y014902D01*
X007045Y014911D01*
X006977Y014933D01*
X006914Y014965D01*
X006857Y015007D01*
X006807Y015057D01*
X006765Y015114D01*
X006825Y015039D02*
X002583Y015039D01*
X002740Y014940D02*
X006963Y014940D01*
X007100Y014940D02*
X007200Y014940D01*
X007200Y014902D02*
X007255Y014911D01*
X007323Y014933D01*
X007386Y014965D01*
X007443Y015007D01*
X007493Y015057D01*
X007535Y015114D01*
X007567Y015177D01*
X007589Y015245D01*
X007600Y015315D01*
X007600Y015600D01*
X007200Y015600D01*
X007200Y014902D01*
X007200Y015039D02*
X007100Y015039D01*
X007100Y015137D02*
X007200Y015137D01*
X007200Y015236D02*
X007100Y015236D01*
X007100Y015334D02*
X007200Y015334D01*
X007200Y015433D02*
X007100Y015433D01*
X007100Y015531D02*
X007200Y015531D01*
X007200Y015630D02*
X007740Y015630D01*
X007740Y015728D02*
X007600Y015728D01*
X007600Y015827D02*
X007740Y015827D01*
X007740Y015925D02*
X007600Y015925D01*
X007594Y016024D02*
X007740Y016024D01*
X007777Y016122D02*
X007567Y016122D01*
X007510Y016221D02*
X007841Y016221D01*
X007970Y016319D02*
X007408Y016319D01*
X007200Y016319D02*
X007100Y016319D01*
X007100Y016221D02*
X007200Y016221D01*
X007200Y016122D02*
X007100Y016122D01*
X007100Y016024D02*
X007200Y016024D01*
X007200Y015925D02*
X007100Y015925D01*
X007100Y015827D02*
X007200Y015827D01*
X007200Y015728D02*
X007100Y015728D01*
X007100Y015630D02*
X002860Y015630D01*
X002860Y015568D02*
X002860Y015732D01*
X002798Y015882D01*
X002682Y015998D01*
X002532Y016060D01*
X001768Y016060D01*
X001618Y015998D01*
X001502Y015882D01*
X001440Y015732D01*
X001440Y015568D01*
X001502Y015418D01*
X001618Y015302D01*
X001768Y015240D01*
X002532Y015240D01*
X002682Y015302D01*
X002798Y015418D01*
X002860Y015568D01*
X002845Y015531D02*
X006700Y015531D01*
X006700Y015433D02*
X002804Y015433D01*
X002714Y015334D02*
X006700Y015334D01*
X006714Y015236D02*
X001350Y015236D01*
X001350Y015334D02*
X001586Y015334D01*
X001496Y015433D02*
X001350Y015433D01*
X001350Y015531D02*
X001455Y015531D01*
X001440Y015630D02*
X001350Y015630D01*
X001350Y015728D02*
X001440Y015728D01*
X001479Y015827D02*
X001350Y015827D01*
X001350Y015925D02*
X001545Y015925D01*
X001680Y016024D02*
X001350Y016024D01*
X001350Y016122D02*
X006733Y016122D01*
X006706Y016024D02*
X002620Y016024D01*
X002755Y015925D02*
X006700Y015925D01*
X006700Y015827D02*
X002821Y015827D01*
X002860Y015728D02*
X006700Y015728D01*
X006790Y016221D02*
X001350Y016221D01*
X001350Y016319D02*
X006892Y016319D01*
X007600Y015531D02*
X007740Y015531D01*
X007740Y015433D02*
X007600Y015433D01*
X007600Y015334D02*
X007740Y015334D01*
X007754Y015236D02*
X007586Y015236D01*
X007547Y015137D02*
X007794Y015137D01*
X007882Y015039D02*
X007475Y015039D01*
X007337Y014940D02*
X007980Y014940D01*
X007980Y014842D02*
X002814Y014842D01*
X002810Y014448D02*
X007390Y014448D01*
X007489Y014349D02*
X002729Y014349D01*
X002557Y014251D02*
X007587Y014251D01*
X007686Y014152D02*
X001350Y014152D01*
X002547Y014054D02*
X007784Y014054D01*
X007883Y013955D02*
X002725Y013955D01*
X002808Y013857D02*
X007981Y013857D01*
X008080Y013758D02*
X007504Y013758D01*
X007603Y013660D02*
X008178Y013660D01*
X008277Y013561D02*
X007701Y013561D01*
X007800Y013463D02*
X008375Y013463D01*
X008474Y013364D02*
X007898Y013364D01*
X007997Y013266D02*
X008572Y013266D01*
X008671Y013167D02*
X008095Y013167D01*
X008194Y013069D02*
X008769Y013069D01*
X008868Y012970D02*
X008292Y012970D01*
X008391Y012872D02*
X008966Y012872D01*
X009065Y012773D02*
X008489Y012773D01*
X008588Y012675D02*
X009163Y012675D01*
X009262Y012576D02*
X008686Y012576D01*
X008785Y012478D02*
X009360Y012478D01*
X009459Y012379D02*
X008883Y012379D01*
X008982Y012281D02*
X009557Y012281D01*
X009656Y012182D02*
X009080Y012182D01*
X009179Y012084D02*
X009754Y012084D01*
X009853Y011985D02*
X009277Y011985D01*
X009376Y011887D02*
X009951Y011887D01*
X010050Y011788D02*
X009474Y011788D01*
X009573Y011690D02*
X010060Y011690D01*
X009985Y011591D02*
X009671Y011591D01*
X009770Y011493D02*
X009945Y011493D01*
X009940Y011394D02*
X009868Y011394D01*
X009542Y011296D02*
X002666Y011296D01*
X002774Y011394D02*
X009444Y011394D01*
X009345Y011493D02*
X002829Y011493D01*
X002860Y011591D02*
X009247Y011591D01*
X009148Y011690D02*
X002860Y011690D01*
X002837Y011788D02*
X009050Y011788D01*
X008951Y011887D02*
X002793Y011887D01*
X002695Y011985D02*
X008853Y011985D01*
X008557Y012281D02*
X002629Y012281D01*
X002759Y012379D02*
X008459Y012379D01*
X008360Y012478D02*
X002822Y012478D01*
X002860Y012576D02*
X008262Y012576D01*
X008163Y012675D02*
X002860Y012675D01*
X002843Y012773D02*
X008065Y012773D01*
X007966Y012872D02*
X002802Y012872D01*
X002710Y012970D02*
X007868Y012970D01*
X007572Y013266D02*
X002593Y013266D01*
X002744Y013364D02*
X007474Y013364D01*
X007375Y013463D02*
X002816Y013463D01*
X002200Y011099D02*
X002100Y011099D01*
X002100Y011000D02*
X002200Y011000D01*
X002200Y010902D02*
X002100Y010902D01*
X002100Y010803D02*
X002200Y010803D01*
X002200Y010705D02*
X002100Y010705D01*
X002100Y010606D02*
X001350Y010606D01*
X001350Y010508D02*
X001423Y010508D01*
X001469Y010409D02*
X001350Y010409D01*
X001350Y010311D02*
X001553Y010311D01*
X001742Y010212D02*
X001350Y010212D01*
X001350Y010114D02*
X010057Y010114D01*
X010226Y008833D02*
X009215Y008833D01*
X008968Y008586D02*
X008869Y008545D01*
X007449Y008545D01*
X007392Y008489D01*
X006908Y008489D01*
X006851Y008545D01*
X006350Y008545D01*
X006298Y008418D01*
X006182Y008302D01*
X006032Y008240D01*
X005268Y008240D01*
X005118Y008302D01*
X005002Y008418D01*
X004940Y008568D01*
X004940Y008732D01*
X005002Y008882D01*
X004982Y008833D02*
X004800Y008833D01*
X004800Y008735D02*
X004941Y008735D01*
X004940Y008636D02*
X004800Y008636D01*
X004800Y008538D02*
X004953Y008538D01*
X004994Y008439D02*
X004800Y008439D01*
X004800Y008341D02*
X005080Y008341D01*
X005264Y008242D02*
X004800Y008242D01*
X004817Y008144D02*
X009980Y008144D01*
X009965Y008164D02*
X010007Y008107D01*
X010057Y008057D01*
X010114Y008015D01*
X010177Y007983D01*
X010245Y007961D01*
X010315Y007950D01*
X010600Y007950D01*
X010600Y008350D01*
X010700Y008350D01*
X010700Y008450D01*
X010600Y008450D01*
X010600Y008350D01*
X009902Y008350D01*
X009911Y008295D01*
X009933Y008227D01*
X009965Y008164D01*
X009928Y008242D02*
X006036Y008242D01*
X006220Y008341D02*
X009904Y008341D01*
X009922Y008538D02*
X007441Y008538D01*
X006859Y008538D02*
X006347Y008538D01*
X006306Y008439D02*
X010600Y008439D01*
X010600Y008341D02*
X010700Y008341D01*
X010700Y008350D02*
X010700Y007950D01*
X010985Y007950D01*
X011055Y007961D01*
X011123Y007983D01*
X011186Y008015D01*
X011243Y008057D01*
X011293Y008107D01*
X011335Y008164D01*
X011367Y008227D01*
X011389Y008295D01*
X011398Y008350D01*
X010700Y008350D01*
X010700Y008439D02*
X011450Y008439D01*
X011398Y008450D02*
X011389Y008505D01*
X011367Y008573D01*
X011335Y008636D01*
X011293Y008693D01*
X011243Y008743D01*
X011186Y008785D01*
X011123Y008817D01*
X011055Y008839D01*
X010985Y008850D01*
X010700Y008850D01*
X010700Y008450D01*
X011398Y008450D01*
X011378Y008538D02*
X011450Y008538D01*
X011450Y008636D02*
X011335Y008636D01*
X011252Y008735D02*
X011450Y008735D01*
X011450Y008833D02*
X011074Y008833D01*
X010700Y008833D02*
X010600Y008833D01*
X010600Y008735D02*
X010700Y008735D01*
X010700Y008636D02*
X010600Y008636D01*
X010600Y008538D02*
X010700Y008538D01*
X010700Y008242D02*
X010600Y008242D01*
X010600Y008144D02*
X010700Y008144D01*
X010700Y008045D02*
X010600Y008045D01*
X010073Y008045D02*
X004916Y008045D01*
X005014Y007947D02*
X011450Y007947D01*
X011450Y008045D02*
X011227Y008045D01*
X011320Y008144D02*
X011450Y008144D01*
X011450Y008242D02*
X011372Y008242D01*
X011396Y008341D02*
X011450Y008341D01*
X011450Y006863D02*
X010385Y006863D01*
X009940Y007356D02*
X007952Y007356D01*
X007631Y007454D02*
X009940Y007454D01*
X009969Y007553D02*
X007634Y007553D01*
X007634Y007651D02*
X010021Y007651D01*
X010122Y007750D02*
X007634Y007750D01*
X007158Y007750D02*
X007142Y007750D01*
X007142Y007651D02*
X007158Y007651D01*
X007158Y007553D02*
X007142Y007553D01*
X007139Y007454D02*
X007161Y007454D01*
X007158Y007356D02*
X007142Y007356D01*
X007142Y007257D02*
X007158Y007257D01*
X007163Y007159D02*
X007137Y007159D01*
X007142Y007060D02*
X007158Y007060D01*
X007158Y006962D02*
X007142Y006962D01*
X007142Y006863D02*
X007158Y006863D01*
X007158Y006765D02*
X007142Y006765D01*
X007142Y006666D02*
X007158Y006666D01*
X007158Y006568D02*
X007142Y006568D01*
X006666Y006568D02*
X005850Y006568D01*
X005949Y006666D02*
X006666Y006666D01*
X006666Y006765D02*
X006047Y006765D01*
X006146Y006863D02*
X006666Y006863D01*
X005876Y007159D02*
X004624Y007159D01*
X004723Y007060D02*
X005777Y007060D01*
X005679Y006962D02*
X005254Y006962D01*
X005291Y006863D02*
X005580Y006863D01*
X005482Y006765D02*
X005291Y006765D01*
X005291Y006666D02*
X005383Y006666D01*
X005285Y006568D02*
X005239Y006568D01*
X005186Y006469D02*
X004850Y006469D01*
X004862Y006371D02*
X005088Y006371D01*
X004691Y005977D02*
X002137Y005977D01*
X002136Y005967D02*
X002136Y005967D01*
X002107Y005899D02*
X002107Y005899D01*
X002093Y005878D02*
X011450Y005878D01*
X011450Y006174D02*
X011300Y006174D01*
X011341Y006272D02*
X011450Y006272D01*
X011450Y006371D02*
X011360Y006371D01*
X011360Y006469D02*
X011450Y006469D01*
X011450Y006568D02*
X011324Y006568D01*
X011264Y006666D02*
X011450Y006666D01*
X011450Y006765D02*
X011141Y006765D01*
X010700Y005780D02*
X010600Y005780D01*
X010600Y005681D02*
X010700Y005681D01*
X010700Y005583D02*
X010600Y005583D01*
X010600Y005287D02*
X010700Y005287D01*
X010700Y005189D02*
X010600Y005189D01*
X010600Y005090D02*
X010700Y005090D01*
X010700Y004992D02*
X010600Y004992D01*
X010231Y004795D02*
X008676Y004795D01*
X009019Y004302D02*
X007698Y004302D01*
X007602Y004302D02*
X006831Y004302D01*
X006860Y004204D02*
X007303Y004204D01*
X007303Y004267D02*
X007303Y004079D01*
X007313Y004041D01*
X007333Y004007D01*
X007361Y003979D01*
X007395Y003959D01*
X007433Y003949D01*
X007602Y003949D01*
X007602Y004267D01*
X007303Y004267D01*
X007303Y004401D02*
X006779Y004401D01*
X006679Y004499D02*
X007303Y004499D01*
X007318Y004598D02*
X005636Y004598D01*
X005537Y004696D02*
X007370Y004696D01*
X007602Y004204D02*
X007698Y004204D01*
X007698Y004105D02*
X007602Y004105D01*
X007602Y004007D02*
X007698Y004007D01*
X007967Y004007D02*
X008724Y004007D01*
X008822Y004105D02*
X007997Y004105D01*
X007997Y004204D02*
X008921Y004204D01*
X009210Y004401D02*
X007997Y004401D01*
X007997Y004499D02*
X009259Y004499D01*
X009274Y004526D02*
X009274Y004526D01*
X009641Y004499D02*
X009947Y004499D01*
X009940Y004401D02*
X009690Y004401D01*
X009988Y004598D02*
X007982Y004598D01*
X007930Y004696D02*
X010066Y004696D01*
X009908Y005484D02*
X006696Y005484D01*
X006794Y005386D02*
X008464Y005386D01*
X008384Y005287D02*
X007917Y005287D01*
X007383Y005287D02*
X006837Y005287D01*
X006860Y004105D02*
X007303Y004105D01*
X007333Y004007D02*
X006834Y004007D01*
X006788Y003908D02*
X008625Y003908D01*
X008527Y003810D02*
X006689Y003810D01*
X006220Y002923D02*
X005291Y002923D01*
X005240Y002825D02*
X006042Y002825D01*
X006161Y002889D02*
X006161Y002889D01*
X006161Y002889D01*
X005611Y003810D02*
X005151Y003810D01*
X005184Y003711D02*
X008428Y003711D01*
X008330Y003613D02*
X005184Y003613D01*
X005184Y003514D02*
X008231Y003514D01*
X008133Y003416D02*
X005184Y003416D01*
X005053Y003908D02*
X005512Y003908D01*
X005463Y004007D02*
X004954Y004007D01*
X004856Y004105D02*
X005364Y004105D01*
X004941Y004204D02*
X004757Y004204D01*
X004659Y004302D02*
X004894Y004302D01*
X005508Y004795D02*
X005637Y004795D01*
X005527Y004893D02*
X005508Y004893D01*
X005506Y005386D02*
X002114Y005386D01*
X002045Y005484D02*
X005604Y005484D01*
X004592Y006075D02*
X002150Y006075D01*
X002150Y006174D02*
X004494Y006174D01*
X004450Y006272D02*
X002150Y006272D01*
X001698Y006272D02*
X001602Y006272D01*
X001602Y006174D02*
X001698Y006174D01*
X001698Y006075D02*
X001602Y006075D01*
X001602Y005977D02*
X001698Y005977D01*
X001698Y005878D02*
X001602Y005878D01*
X001602Y005780D02*
X001698Y005780D01*
X001698Y005583D02*
X001602Y005583D01*
X001602Y005484D02*
X001698Y005484D01*
X001698Y005386D02*
X001602Y005386D01*
X001602Y005287D02*
X001698Y005287D01*
X001698Y005189D02*
X001602Y005189D01*
X001602Y005090D02*
X001698Y005090D01*
X001698Y004992D02*
X002566Y004992D01*
X002684Y004992D02*
X002742Y004992D01*
X002742Y004893D02*
X002684Y004893D01*
X002684Y004795D02*
X002742Y004795D01*
X002742Y004696D02*
X002684Y004696D01*
X002860Y004992D02*
X003379Y004992D01*
X003281Y004893D02*
X003000Y004893D01*
X003065Y004795D02*
X003182Y004795D01*
X003172Y003514D02*
X003453Y003514D01*
X003550Y003416D02*
X003089Y003416D01*
X003091Y003317D02*
X003550Y003317D01*
X003449Y003219D02*
X003129Y003219D01*
X003129Y003120D02*
X003410Y003120D01*
X003426Y003022D02*
X003124Y003022D01*
X003958Y002825D02*
X003969Y002825D01*
X004242Y003022D02*
X004290Y003022D01*
X004290Y003120D02*
X004242Y003120D01*
X004242Y003219D02*
X004290Y003219D01*
X004538Y003219D02*
X004815Y003219D01*
X004776Y003120D02*
X004564Y003120D01*
X004564Y003022D02*
X004776Y003022D01*
X007583Y003317D02*
X008034Y003317D01*
X007936Y003219D02*
X007634Y003219D01*
X007634Y003120D02*
X007837Y003120D01*
X007739Y003022D02*
X007634Y003022D01*
X007910Y002628D02*
X009961Y002628D01*
X009919Y002529D02*
X007812Y002529D01*
X008009Y002726D02*
X010040Y002726D01*
X010192Y003022D02*
X008304Y003022D01*
X008403Y003120D02*
X010050Y003120D01*
X009981Y003219D02*
X008501Y003219D01*
X008600Y003317D02*
X009941Y003317D01*
X009940Y003416D02*
X008698Y003416D01*
X008797Y003514D02*
X009953Y003514D01*
X009994Y003613D02*
X008895Y003613D01*
X008994Y003711D02*
X010081Y003711D01*
X010043Y003810D02*
X009092Y003810D01*
X009191Y003908D02*
X009944Y003908D01*
X010340Y003908D02*
X011450Y003908D01*
X009938Y005583D02*
X001886Y005583D01*
X001954Y005746D02*
X001954Y005746D01*
X002005Y005780D02*
X010107Y005780D01*
X009998Y005681D02*
X001350Y005681D01*
X001350Y005583D02*
X001414Y005583D01*
X002015Y005786D02*
X002015Y005786D01*
X001698Y006371D02*
X001602Y006371D01*
X001602Y006469D02*
X001698Y006469D01*
X001698Y006568D02*
X001602Y006568D01*
X001602Y006666D02*
X001698Y006666D01*
X001698Y006765D02*
X001602Y006765D01*
X002150Y006765D02*
X002339Y006765D01*
X002964Y006371D02*
X004450Y006371D01*
X004450Y006469D02*
X003046Y006469D01*
X003950Y007356D02*
X003969Y007356D01*
X003122Y008735D02*
X003087Y008735D01*
X003045Y008833D02*
X003221Y008833D01*
X003319Y008932D02*
X002962Y008932D01*
X002742Y008932D02*
X002684Y008932D01*
X002684Y008833D02*
X002742Y008833D01*
X002742Y008735D02*
X002684Y008735D01*
X002684Y008636D02*
X002150Y008636D01*
X002150Y009030D02*
X003418Y009030D01*
X003686Y009621D02*
X001350Y009621D01*
X001350Y009720D02*
X003686Y009720D01*
X003686Y009818D02*
X001350Y009818D01*
X001350Y009917D02*
X003686Y009917D01*
X005160Y010015D02*
X001350Y010015D01*
X001350Y010705D02*
X001403Y010705D01*
X001427Y010803D02*
X001350Y010803D01*
X001350Y010902D02*
X001477Y010902D01*
X001566Y011000D02*
X001350Y011000D01*
X002150Y009227D02*
X006809Y009227D01*
X006803Y009326D02*
X006205Y009326D01*
X006300Y009424D02*
X006803Y009424D01*
X006894Y009129D02*
X002150Y009129D01*
X001698Y008833D02*
X001602Y008833D01*
X001602Y008735D02*
X001698Y008735D01*
X001698Y008636D02*
X001602Y008636D01*
X001602Y008538D02*
X001698Y008538D01*
X001698Y004893D02*
X001602Y004893D01*
X001602Y004795D02*
X001698Y004795D01*
X001698Y004696D02*
X001602Y004696D01*
X001602Y004598D02*
X001698Y004598D01*
X001698Y004499D02*
X001602Y004499D01*
X007943Y006935D02*
X007943Y006935D01*
X011228Y011099D02*
X011450Y011099D01*
X011450Y011197D02*
X011310Y011197D01*
X011351Y011296D02*
X011450Y011296D01*
X011450Y011394D02*
X011360Y011394D01*
X011355Y011493D02*
X011450Y011493D01*
X011450Y011591D02*
X011315Y011591D01*
X011240Y011690D02*
X011450Y011690D01*
X011450Y011788D02*
X011085Y011788D01*
X011213Y012084D02*
X011450Y012084D01*
X011450Y012182D02*
X011303Y012182D01*
X011344Y012281D02*
X011450Y012281D01*
X011450Y012379D02*
X011360Y012379D01*
X011360Y012478D02*
X011450Y012478D01*
X011450Y012576D02*
X011321Y012576D01*
X011255Y012675D02*
X011450Y012675D01*
X011450Y012773D02*
X011121Y012773D01*
X011450Y012872D02*
X010419Y012872D01*
X010320Y012970D02*
X011450Y012970D01*
X011450Y013069D02*
X010222Y013069D01*
X010123Y013167D02*
X011450Y013167D01*
X011450Y013266D02*
X010025Y013266D01*
X009926Y013364D02*
X011450Y013364D01*
X011450Y013463D02*
X009828Y013463D01*
X009729Y013561D02*
X011450Y013561D01*
X011450Y013660D02*
X009631Y013660D01*
X009532Y013758D02*
X011450Y013758D01*
X011450Y013857D02*
X009434Y013857D01*
X009335Y013955D02*
X011450Y013955D01*
X011450Y014054D02*
X009237Y014054D01*
X009138Y014152D02*
X011450Y014152D01*
X011450Y014251D02*
X009040Y014251D01*
X008941Y014349D02*
X011450Y014349D01*
X011450Y014448D02*
X008843Y014448D01*
X008744Y014546D02*
X011450Y014546D01*
X011450Y014645D02*
X008646Y014645D01*
X008547Y014743D02*
X011450Y014743D01*
X011450Y014842D02*
X008449Y014842D01*
X008350Y014940D02*
X011450Y014940D01*
X011450Y015039D02*
X008418Y015039D01*
X008506Y015137D02*
X011450Y015137D01*
X011450Y015236D02*
X011048Y015236D01*
X011042Y015230D02*
X011070Y015258D01*
X011090Y015292D01*
X011100Y015330D01*
X011100Y015600D01*
X010700Y015600D01*
X010700Y015700D01*
X011100Y015700D01*
X011100Y015970D01*
X011090Y016008D01*
X011070Y016042D01*
X011042Y016070D01*
X011008Y016090D01*
X010970Y016100D01*
X010700Y016100D01*
X010700Y015700D01*
X010600Y015700D01*
X010600Y016100D01*
X010330Y016100D01*
X010292Y016090D01*
X010258Y016070D01*
X010230Y016042D01*
X010210Y016008D01*
X010200Y015970D01*
X010200Y015700D01*
X010600Y015700D01*
X010600Y015600D01*
X010700Y015600D01*
X010700Y015200D01*
X010970Y015200D01*
X011008Y015210D01*
X011042Y015230D01*
X011100Y015334D02*
X011450Y015334D01*
X011450Y015433D02*
X011100Y015433D01*
X011100Y015531D02*
X011450Y015531D01*
X011450Y015630D02*
X010700Y015630D01*
X010700Y015728D02*
X010600Y015728D01*
X010600Y015630D02*
X010060Y015630D01*
X010060Y015728D02*
X010200Y015728D01*
X010200Y015827D02*
X010060Y015827D01*
X010060Y015925D02*
X010200Y015925D01*
X010219Y016024D02*
X010032Y016024D01*
X010060Y015996D02*
X009996Y016060D01*
X009304Y016060D01*
X009240Y015996D01*
X009240Y015304D01*
X009304Y015240D01*
X009996Y015240D01*
X010060Y015304D01*
X010060Y015996D01*
X010200Y015600D02*
X010200Y015330D01*
X010210Y015292D01*
X010230Y015258D01*
X010258Y015230D01*
X010292Y015210D01*
X010330Y015200D01*
X010600Y015200D01*
X010600Y015600D01*
X010200Y015600D01*
X010200Y015531D02*
X010060Y015531D01*
X010060Y015433D02*
X010200Y015433D01*
X010200Y015334D02*
X010060Y015334D01*
X010252Y015236D02*
X008546Y015236D01*
X008560Y015334D02*
X009240Y015334D01*
X009240Y015433D02*
X008560Y015433D01*
X008560Y015531D02*
X009240Y015531D01*
X009240Y015630D02*
X008560Y015630D01*
X008560Y015728D02*
X009240Y015728D01*
X009240Y015827D02*
X008560Y015827D01*
X008560Y015925D02*
X009240Y015925D01*
X009268Y016024D02*
X008560Y016024D01*
X008523Y016122D02*
X011450Y016122D01*
X011450Y016024D02*
X011081Y016024D01*
X011100Y015925D02*
X011450Y015925D01*
X011450Y015827D02*
X011100Y015827D01*
X011100Y015728D02*
X011450Y015728D01*
X011450Y016221D02*
X008459Y016221D01*
X008330Y016319D02*
X011450Y016319D01*
X011450Y016418D02*
X001350Y016418D01*
X007519Y014743D02*
X008067Y014743D01*
X008165Y014645D02*
X007618Y014645D01*
X007716Y014546D02*
X008264Y014546D01*
X008362Y014448D02*
X007815Y014448D01*
X007913Y014349D02*
X008461Y014349D01*
X008559Y014251D02*
X008012Y014251D01*
X008110Y014152D02*
X008658Y014152D01*
X008756Y014054D02*
X008209Y014054D01*
X008307Y013955D02*
X008855Y013955D01*
X008953Y013857D02*
X008406Y013857D01*
X008504Y013758D02*
X009052Y013758D01*
X009150Y013660D02*
X008603Y013660D01*
X008701Y013561D02*
X009249Y013561D01*
X009347Y013463D02*
X008800Y013463D01*
X008898Y013364D02*
X009446Y013364D01*
X009544Y013266D02*
X008997Y013266D01*
X009095Y013167D02*
X009643Y013167D01*
X009741Y013069D02*
X009194Y013069D01*
X009292Y012970D02*
X009840Y012970D01*
X009938Y012872D02*
X009391Y012872D01*
X009489Y012773D02*
X010037Y012773D01*
X010045Y012675D02*
X009588Y012675D01*
X009686Y012576D02*
X009979Y012576D01*
X009940Y012478D02*
X009785Y012478D01*
X009883Y012379D02*
X009940Y012379D01*
X010277Y011985D02*
X011450Y011985D01*
X011450Y011887D02*
X010376Y011887D01*
X010600Y015236D02*
X010700Y015236D01*
X010700Y015334D02*
X010600Y015334D01*
X010600Y015433D02*
X010700Y015433D01*
X010700Y015531D02*
X010600Y015531D01*
X010600Y015827D02*
X010700Y015827D01*
X010700Y015925D02*
X010600Y015925D01*
X010600Y016024D02*
X010700Y016024D01*
D24*
X007200Y014150D03*
X006150Y012150D03*
X004650Y015650D03*
X003150Y009650D03*
X004550Y007850D03*
X002700Y005700D03*
X004300Y003650D03*
X002700Y001650D03*
X006300Y001750D03*
X006250Y003250D03*
X007950Y005750D03*
X007150Y008200D03*
D25*
X007150Y008815D02*
X005815Y008815D01*
X005650Y008650D01*
X005650Y009650D02*
X004201Y009650D01*
X007150Y008815D02*
X008815Y008815D01*
X009400Y009400D01*
X010650Y009400D01*
X008650Y005150D02*
X008485Y004985D01*
X007650Y004985D01*
X006315Y004985D01*
X006150Y005150D01*
X006150Y004150D02*
X005701Y004150D01*
X005201Y004650D01*
D26*
X008650Y005150D03*
D27*
X010650Y012400D02*
X008150Y014900D01*
X008150Y015650D01*
D28*
X007400Y014650D02*
X002150Y014650D01*
X002150Y013650D02*
X007400Y013650D01*
X010650Y010400D01*
X010650Y011400D02*
X007400Y014650D01*
X004650Y008950D02*
X003550Y008950D01*
X002850Y008250D01*
X002450Y008250D01*
X002450Y008085D01*
X003020Y008085D01*
X003055Y008050D01*
X004418Y008050D01*
X004453Y008085D01*
X004647Y008085D01*
X004650Y008082D01*
X004650Y008950D01*
X004650Y008922D02*
X003522Y008922D01*
X003443Y008843D02*
X004650Y008843D01*
X004650Y008765D02*
X003365Y008765D01*
X003286Y008686D02*
X004650Y008686D01*
X004650Y008608D02*
X003208Y008608D01*
X003129Y008529D02*
X004650Y008529D01*
X004650Y008451D02*
X003051Y008451D01*
X002972Y008372D02*
X004650Y008372D01*
X004650Y008294D02*
X002894Y008294D01*
X003047Y008058D02*
X004426Y008058D01*
X004650Y008137D02*
X002450Y008137D01*
X002450Y008215D02*
X004650Y008215D01*
X005034Y007715D02*
X004150Y008599D01*
X005034Y007715D02*
X005034Y007528D01*
X004350Y005050D02*
X003650Y005050D01*
X002850Y004250D01*
X002450Y004250D01*
X002450Y004085D01*
X003020Y004085D01*
X003055Y004050D01*
X003750Y004050D01*
X003950Y004250D01*
X004350Y004250D01*
X004350Y005050D01*
X004350Y004997D02*
X003597Y004997D01*
X003518Y004918D02*
X004350Y004918D01*
X004350Y004840D02*
X003440Y004840D01*
X003361Y004761D02*
X004350Y004761D01*
X004350Y004683D02*
X003283Y004683D01*
X003204Y004604D02*
X004350Y004604D01*
X004350Y004526D02*
X003126Y004526D01*
X003047Y004447D02*
X004350Y004447D01*
X004350Y004369D02*
X002969Y004369D01*
X002890Y004290D02*
X004350Y004290D01*
X004099Y004650D02*
X005034Y003715D01*
X005034Y003028D01*
X003912Y004212D02*
X002450Y004212D01*
X002450Y004133D02*
X003833Y004133D01*
X003755Y004055D02*
X003050Y004055D01*
D29*
X004201Y009650D02*
X004150Y009701D01*
M02*
