G75*
%MOIN*%
%OFA0B0*%
%FSLAX24Y24*%
%IPPOS*%
%LPD*%
%AMOC8*
5,1,8,0,0,1.08239X$1,22.5*
%
%ADD10R,0.0444X0.0483*%
%ADD11R,0.0759X0.0444*%
%ADD12R,0.0444X0.0759*%
%ADD13C,0.0650*%
%ADD14R,0.0650X0.0650*%
%ADD15C,0.0641*%
%ADD16C,0.0522*%
%ADD17R,0.0571X0.0197*%
%ADD18C,0.0050*%
%ADD19R,0.0345X0.0428*%
%ADD20R,0.0345X0.0263*%
%ADD21R,0.0306X0.0247*%
D10*
X007150Y008815D03*
X007150Y009485D03*
X007650Y004985D03*
X007650Y004315D03*
D11*
X004150Y008599D03*
X004150Y009701D03*
D12*
X004099Y004650D03*
X005201Y004650D03*
D13*
X005850Y004150D02*
X006450Y004150D01*
X006450Y005150D02*
X005850Y005150D01*
X005950Y008650D02*
X005350Y008650D01*
X005350Y009650D02*
X005950Y009650D01*
X002450Y010650D02*
X001850Y010650D01*
X001850Y011650D02*
X002450Y011650D01*
X002450Y012650D02*
X001850Y012650D01*
X001850Y013650D02*
X002450Y013650D01*
X002450Y014650D02*
X001850Y014650D01*
X001850Y015650D02*
X002450Y015650D01*
X007150Y015350D02*
X007150Y015950D01*
X008150Y015950D02*
X008150Y015350D01*
X010350Y012400D02*
X010950Y012400D01*
X010950Y011400D02*
X010350Y011400D01*
X010350Y010400D02*
X010950Y010400D01*
X010950Y009400D02*
X010350Y009400D01*
X010350Y008400D02*
X010950Y008400D01*
X010950Y007400D02*
X010350Y007400D01*
X010350Y006400D02*
X010950Y006400D01*
X010950Y005400D02*
X010350Y005400D01*
X010350Y004400D02*
X010950Y004400D01*
X010950Y003400D02*
X010350Y003400D01*
X010350Y002400D02*
X010950Y002400D01*
D14*
X010650Y015650D03*
X009650Y015650D03*
D15*
X001650Y008979D03*
X001650Y006321D03*
X001650Y004979D03*
X001650Y002321D03*
D16*
X002713Y002666D03*
X002713Y004634D03*
X002713Y006666D03*
X002713Y008634D03*
D17*
X002713Y008162D03*
X002713Y007906D03*
X002713Y007650D03*
X002713Y007394D03*
X002713Y007138D03*
X002713Y004162D03*
X002713Y003906D03*
X002713Y003650D03*
X002713Y003394D03*
X002713Y003138D03*
D18*
X001437Y001898D02*
X001399Y001921D01*
X001368Y001952D01*
X001345Y001990D01*
X001330Y002031D01*
X001325Y002075D01*
X001325Y002744D01*
X001975Y002744D01*
X001975Y002075D01*
X001970Y002031D01*
X001955Y001990D01*
X001932Y001952D01*
X001901Y001921D01*
X001863Y001898D01*
X001822Y001883D01*
X001778Y001878D01*
X001522Y001878D01*
X001478Y001883D01*
X001437Y001898D01*
X001395Y001926D02*
X001905Y001926D01*
X001946Y001975D02*
X001354Y001975D01*
X001333Y002023D02*
X001967Y002023D01*
X001974Y002072D02*
X001326Y002072D01*
X001325Y002120D02*
X001975Y002120D01*
X001975Y002169D02*
X001325Y002169D01*
X001325Y002217D02*
X001975Y002217D01*
X001975Y002266D02*
X001325Y002266D01*
X001325Y002314D02*
X001975Y002314D01*
X001975Y002363D02*
X001325Y002363D01*
X001325Y002411D02*
X001975Y002411D01*
X001975Y002460D02*
X001325Y002460D01*
X001325Y002508D02*
X001975Y002508D01*
X001975Y002557D02*
X001325Y002557D01*
X001325Y002605D02*
X001975Y002605D01*
X001975Y002654D02*
X001325Y002654D01*
X001325Y002702D02*
X001975Y002702D01*
X001975Y002961D02*
X001975Y003552D01*
X001325Y003552D01*
X001325Y002961D01*
X001975Y002961D01*
X001975Y002993D02*
X001325Y002993D01*
X001325Y003042D02*
X001975Y003042D01*
X001975Y003090D02*
X001325Y003090D01*
X001325Y003139D02*
X001975Y003139D01*
X001975Y003187D02*
X001325Y003187D01*
X001325Y003236D02*
X001975Y003236D01*
X001975Y003284D02*
X001325Y003284D01*
X001325Y003333D02*
X001975Y003333D01*
X001975Y003381D02*
X001325Y003381D01*
X001325Y003430D02*
X001975Y003430D01*
X001975Y003478D02*
X001325Y003478D01*
X001325Y003527D02*
X001975Y003527D01*
X001975Y003748D02*
X001975Y004339D01*
X001325Y004339D01*
X001325Y003748D01*
X001975Y003748D01*
X001975Y003769D02*
X001325Y003769D01*
X001325Y003818D02*
X001975Y003818D01*
X001975Y003866D02*
X001325Y003866D01*
X001325Y003915D02*
X001975Y003915D01*
X001975Y003963D02*
X001325Y003963D01*
X001325Y004012D02*
X001975Y004012D01*
X001975Y004060D02*
X001325Y004060D01*
X001325Y004109D02*
X001975Y004109D01*
X001975Y004157D02*
X001325Y004157D01*
X001325Y004206D02*
X001975Y004206D01*
X001975Y004254D02*
X001325Y004254D01*
X001325Y004303D02*
X001975Y004303D01*
X001975Y004556D02*
X001325Y004556D01*
X001325Y005225D01*
X001330Y005269D01*
X001345Y005310D01*
X001368Y005348D01*
X001399Y005379D01*
X001437Y005402D01*
X001478Y005417D01*
X001522Y005422D01*
X001778Y005422D01*
X001822Y005417D01*
X001863Y005402D01*
X001901Y005379D01*
X001932Y005348D01*
X001955Y005310D01*
X001970Y005269D01*
X001975Y005225D01*
X001975Y004556D01*
X001975Y004594D02*
X001325Y004594D01*
X001325Y004642D02*
X001975Y004642D01*
X001975Y004691D02*
X001325Y004691D01*
X001325Y004739D02*
X001975Y004739D01*
X001975Y004788D02*
X001325Y004788D01*
X001325Y004836D02*
X001975Y004836D01*
X001975Y004885D02*
X001325Y004885D01*
X001325Y004933D02*
X001975Y004933D01*
X001975Y004982D02*
X001325Y004982D01*
X001325Y005030D02*
X001975Y005030D01*
X001975Y005079D02*
X001325Y005079D01*
X001325Y005127D02*
X001975Y005127D01*
X001975Y005176D02*
X001325Y005176D01*
X001325Y005224D02*
X001975Y005224D01*
X001968Y005273D02*
X001332Y005273D01*
X001351Y005321D02*
X001949Y005321D01*
X001910Y005370D02*
X001390Y005370D01*
X001490Y005418D02*
X001810Y005418D01*
X001778Y005878D02*
X001522Y005878D01*
X001478Y005883D01*
X001437Y005898D01*
X001399Y005921D01*
X001368Y005952D01*
X001345Y005990D01*
X001330Y006031D01*
X001325Y006075D01*
X001325Y006744D01*
X001975Y006744D01*
X001975Y006075D01*
X001970Y006031D01*
X001955Y005990D01*
X001932Y005952D01*
X001901Y005921D01*
X001863Y005898D01*
X001822Y005883D01*
X001778Y005878D01*
X001872Y005903D02*
X001428Y005903D01*
X001369Y005952D02*
X001931Y005952D01*
X001959Y006000D02*
X001341Y006000D01*
X001328Y006049D02*
X001972Y006049D01*
X001975Y006097D02*
X001325Y006097D01*
X001325Y006146D02*
X001975Y006146D01*
X001975Y006194D02*
X001325Y006194D01*
X001325Y006243D02*
X001975Y006243D01*
X001975Y006291D02*
X001325Y006291D01*
X001325Y006340D02*
X001975Y006340D01*
X001975Y006388D02*
X001325Y006388D01*
X001325Y006437D02*
X001975Y006437D01*
X001975Y006485D02*
X001325Y006485D01*
X001325Y006534D02*
X001975Y006534D01*
X001975Y006582D02*
X001325Y006582D01*
X001325Y006631D02*
X001975Y006631D01*
X001975Y006679D02*
X001325Y006679D01*
X001325Y006728D02*
X001975Y006728D01*
X001975Y006961D02*
X001975Y007552D01*
X001325Y007552D01*
X001325Y006961D01*
X001975Y006961D01*
X001975Y006970D02*
X001325Y006970D01*
X001325Y007019D02*
X001975Y007019D01*
X001975Y007067D02*
X001325Y007067D01*
X001325Y007116D02*
X001975Y007116D01*
X001975Y007164D02*
X001325Y007164D01*
X001325Y007213D02*
X001975Y007213D01*
X001975Y007261D02*
X001325Y007261D01*
X001325Y007310D02*
X001975Y007310D01*
X001975Y007358D02*
X001325Y007358D01*
X001325Y007407D02*
X001975Y007407D01*
X001975Y007455D02*
X001325Y007455D01*
X001325Y007504D02*
X001975Y007504D01*
X001975Y007748D02*
X001975Y008339D01*
X001325Y008339D01*
X001325Y007748D01*
X001975Y007748D01*
X001975Y007795D02*
X001325Y007795D01*
X001325Y007843D02*
X001975Y007843D01*
X001975Y007892D02*
X001325Y007892D01*
X001325Y007940D02*
X001975Y007940D01*
X001975Y007989D02*
X001325Y007989D01*
X001325Y008037D02*
X001975Y008037D01*
X001975Y008086D02*
X001325Y008086D01*
X001325Y008134D02*
X001975Y008134D01*
X001975Y008183D02*
X001325Y008183D01*
X001325Y008231D02*
X001975Y008231D01*
X001975Y008280D02*
X001325Y008280D01*
X001325Y008328D02*
X001975Y008328D01*
X001975Y008556D02*
X001325Y008556D01*
X001325Y009225D01*
X001330Y009269D01*
X001345Y009310D01*
X001368Y009348D01*
X001399Y009379D01*
X001437Y009402D01*
X001478Y009417D01*
X001522Y009422D01*
X001778Y009422D01*
X001822Y009417D01*
X001863Y009402D01*
X001901Y009379D01*
X001932Y009348D01*
X001955Y009310D01*
X001970Y009269D01*
X001975Y009225D01*
X001975Y008556D01*
X001975Y008571D02*
X001325Y008571D01*
X001325Y008619D02*
X001975Y008619D01*
X001975Y008668D02*
X001325Y008668D01*
X001325Y008716D02*
X001975Y008716D01*
X001975Y008765D02*
X001325Y008765D01*
X001325Y008813D02*
X001975Y008813D01*
X001975Y008862D02*
X001325Y008862D01*
X001325Y008910D02*
X001975Y008910D01*
X001975Y008959D02*
X001325Y008959D01*
X001325Y009007D02*
X001975Y009007D01*
X001975Y009056D02*
X001325Y009056D01*
X001325Y009104D02*
X001975Y009104D01*
X001975Y009153D02*
X001325Y009153D01*
X001325Y009201D02*
X001975Y009201D01*
X001972Y009250D02*
X001328Y009250D01*
X001340Y009298D02*
X001960Y009298D01*
X001932Y009347D02*
X001368Y009347D01*
X001425Y009395D02*
X001875Y009395D01*
D19*
X004266Y007445D03*
X004266Y002945D03*
D20*
X004266Y002272D03*
X005034Y002272D03*
X005034Y003028D03*
X005034Y006772D03*
X005034Y007528D03*
X004266Y006772D03*
D21*
X006904Y006678D03*
X006904Y006993D03*
X006904Y007307D03*
X006904Y007622D03*
X007396Y007622D03*
X007396Y007307D03*
X007396Y006993D03*
X007396Y006678D03*
X007396Y003122D03*
X007396Y002807D03*
X007396Y002493D03*
X007396Y002178D03*
X006904Y002178D03*
X006904Y002493D03*
X006904Y002807D03*
X006904Y003122D03*
M02*
