G75*
%MOIN*%
%OFA0B0*%
%FSLAX24Y24*%
%IPPOS*%
%LPD*%
%AMOC8*
5,1,8,0,0,1.08239X$1,22.5*
%
%ADD10C,0.0040*%
%ADD11C,0.0060*%
%ADD12C,0.0100*%
%ADD13C,0.0080*%
%ADD14C,0.0020*%
%ADD15C,0.0050*%
D10*
X004359Y001457D02*
X004283Y001534D01*
X004283Y001841D01*
X004359Y001918D01*
X004513Y001918D01*
X004590Y001841D01*
X004590Y001534D01*
X004513Y001457D01*
X004359Y001457D01*
X004436Y001611D02*
X004590Y001457D01*
X004743Y001457D02*
X005050Y001764D01*
X005050Y001841D01*
X004973Y001918D01*
X004820Y001918D01*
X004743Y001841D01*
X004743Y001457D02*
X005050Y001457D01*
X007320Y003597D02*
X007397Y003520D01*
X007550Y003520D01*
X007627Y003597D01*
X007780Y003520D02*
X008087Y003827D01*
X008087Y003904D01*
X008011Y003980D01*
X007857Y003980D01*
X007780Y003904D01*
X007627Y003904D02*
X007550Y003980D01*
X007397Y003980D01*
X007320Y003904D01*
X007320Y003597D01*
X007780Y003520D02*
X008087Y003520D01*
X008670Y003630D02*
X008670Y003170D01*
X008670Y003323D02*
X008900Y003323D01*
X008977Y003400D01*
X008977Y003554D01*
X008900Y003630D01*
X008670Y003630D01*
X009130Y003630D02*
X009284Y003630D01*
X009207Y003630D02*
X009207Y003170D01*
X009130Y003170D02*
X009284Y003170D01*
X009437Y003400D02*
X009744Y003400D01*
X009591Y003247D02*
X009591Y003554D01*
X009284Y004170D02*
X009130Y004170D01*
X009207Y004170D02*
X009207Y004630D01*
X009130Y004630D02*
X009284Y004630D01*
X009437Y004400D02*
X009744Y004400D01*
X008977Y004400D02*
X008900Y004323D01*
X008670Y004323D01*
X008670Y004170D02*
X008670Y004630D01*
X008900Y004630D01*
X008977Y004554D01*
X008977Y004400D01*
X008900Y005170D02*
X008747Y005170D01*
X008670Y005247D01*
X008670Y005554D01*
X008747Y005630D01*
X008900Y005630D01*
X008977Y005554D01*
X008977Y005400D02*
X008823Y005400D01*
X008977Y005400D02*
X008977Y005247D01*
X008900Y005170D01*
X009130Y005170D02*
X009130Y005630D01*
X009437Y005170D01*
X009437Y005630D01*
X009591Y005630D02*
X009821Y005630D01*
X009898Y005554D01*
X009898Y005247D01*
X009821Y005170D01*
X009591Y005170D01*
X009591Y005630D01*
X009321Y006170D02*
X009168Y006170D01*
X009091Y006247D01*
X009091Y006630D01*
X008937Y006554D02*
X008861Y006630D01*
X008707Y006630D01*
X008630Y006554D01*
X008630Y006247D01*
X008707Y006170D01*
X008861Y006170D01*
X008937Y006247D01*
X009321Y006170D02*
X009398Y006247D01*
X009398Y006630D01*
X009551Y006400D02*
X009858Y006400D01*
X009705Y006247D02*
X009705Y006554D01*
X009321Y007170D02*
X009168Y007170D01*
X009091Y007247D01*
X009091Y007630D01*
X008937Y007554D02*
X008861Y007630D01*
X008707Y007630D01*
X008630Y007554D01*
X008630Y007247D01*
X008707Y007170D01*
X008861Y007170D01*
X008937Y007247D01*
X009321Y007170D02*
X009398Y007247D01*
X009398Y007630D01*
X009551Y007400D02*
X009858Y007400D01*
X009821Y008170D02*
X009591Y008170D01*
X009591Y008630D01*
X009821Y008630D01*
X009898Y008554D01*
X009898Y008247D01*
X009821Y008170D01*
X009437Y008170D02*
X009437Y008630D01*
X009130Y008630D02*
X009437Y008170D01*
X009130Y008170D02*
X009130Y008630D01*
X008977Y008554D02*
X008900Y008630D01*
X008747Y008630D01*
X008670Y008554D01*
X008670Y008247D01*
X008747Y008170D01*
X008900Y008170D01*
X008977Y008247D01*
X008977Y008400D01*
X008823Y008400D01*
X008823Y009170D02*
X008977Y009323D01*
X008977Y009630D01*
X009130Y009554D02*
X009130Y009247D01*
X009207Y009170D01*
X009361Y009170D01*
X009437Y009247D01*
X009591Y009247D02*
X009668Y009170D01*
X009821Y009170D01*
X009898Y009247D01*
X009898Y009554D02*
X009821Y009630D01*
X009668Y009630D01*
X009591Y009554D01*
X009591Y009247D01*
X009437Y009554D02*
X009361Y009630D01*
X009207Y009630D01*
X009130Y009554D01*
X008823Y009170D02*
X008670Y009323D01*
X008670Y009630D01*
X009323Y010170D02*
X009323Y010630D01*
X009170Y010630D02*
X009477Y010630D01*
X009630Y010630D02*
X009937Y010170D01*
X009630Y010170D02*
X009937Y010630D01*
X009937Y011170D02*
X009630Y011630D01*
X009477Y011554D02*
X009477Y011400D01*
X009400Y011323D01*
X009170Y011323D01*
X009170Y011170D02*
X009170Y011630D01*
X009400Y011630D01*
X009477Y011554D01*
X009323Y011323D02*
X009477Y011170D01*
X009630Y011170D02*
X009937Y011630D01*
X009784Y012170D02*
X009937Y012323D01*
X009937Y012630D01*
X009630Y012630D02*
X009630Y012323D01*
X009784Y012170D01*
X009477Y012247D02*
X009400Y012170D01*
X009247Y012170D01*
X009170Y012247D01*
X009170Y012400D02*
X009323Y012477D01*
X009400Y012477D01*
X009477Y012400D01*
X009477Y012247D01*
X009477Y012630D02*
X009170Y012630D01*
X009170Y012400D01*
X008430Y012450D02*
X008430Y012297D01*
X008353Y012220D01*
X008200Y012220D02*
X008123Y012373D01*
X008123Y012450D01*
X008200Y012527D01*
X008353Y012527D01*
X008430Y012450D01*
X008200Y012220D02*
X007970Y012220D01*
X007970Y012527D01*
X007970Y012680D02*
X008277Y012680D01*
X008430Y012834D01*
X008277Y012987D01*
X007970Y012987D01*
X008046Y013601D02*
X007970Y013678D01*
X007970Y013831D01*
X008046Y013908D01*
X008353Y013908D01*
X008430Y013831D01*
X008430Y013678D01*
X008353Y013601D01*
X008046Y013601D01*
X007970Y014062D02*
X008353Y014062D01*
X008430Y014138D01*
X008430Y014292D01*
X008353Y014368D01*
X007970Y014368D01*
X007970Y014522D02*
X007970Y014829D01*
X007970Y014675D02*
X008430Y014675D01*
X008892Y014230D02*
X008892Y013923D01*
X009046Y013770D01*
X009199Y013923D01*
X009199Y014230D01*
X009353Y014230D02*
X009506Y014230D01*
X009429Y014230D02*
X009429Y013770D01*
X009353Y013770D02*
X009506Y013770D01*
X009660Y013770D02*
X009660Y014230D01*
X009967Y013770D01*
X009967Y014230D01*
X010189Y014154D02*
X010189Y013847D01*
X010266Y013770D01*
X010419Y013770D01*
X010496Y013847D01*
X010496Y014000D01*
X010342Y014000D01*
X010189Y014154D02*
X010266Y014230D01*
X010419Y014230D01*
X010496Y014154D01*
X010649Y014230D02*
X010956Y013770D01*
X010956Y014230D01*
X011110Y014230D02*
X011340Y014230D01*
X011417Y014154D01*
X011417Y013847D01*
X011340Y013770D01*
X011110Y013770D01*
X011110Y014230D01*
X010649Y014230D02*
X010649Y013770D01*
X007380Y013697D02*
X007380Y013850D01*
X007303Y013927D01*
X007150Y013927D01*
X007150Y013773D01*
X007303Y013620D02*
X006996Y013620D01*
X006920Y013697D01*
X006920Y013850D01*
X006996Y013927D01*
X006920Y014080D02*
X007380Y014387D01*
X006920Y014387D01*
X006920Y014541D02*
X006920Y014771D01*
X006996Y014848D01*
X007303Y014848D01*
X007380Y014771D01*
X007380Y014541D01*
X006920Y014541D01*
X006920Y014080D02*
X007380Y014080D01*
X007380Y013697D02*
X007303Y013620D01*
X007363Y010330D02*
X007363Y009870D01*
X007210Y009870D02*
X007517Y009870D01*
X007210Y010177D02*
X007363Y010330D01*
X007056Y010254D02*
X006979Y010330D01*
X006826Y010330D01*
X006749Y010254D01*
X006749Y009947D01*
X006826Y009870D01*
X006979Y009870D01*
X007056Y009947D01*
X006530Y008018D02*
X006377Y007865D01*
X006377Y007942D02*
X006377Y007712D01*
X006530Y007712D02*
X006070Y007712D01*
X006070Y007942D01*
X006146Y008018D01*
X006300Y008018D01*
X006377Y007942D01*
X006530Y007558D02*
X006530Y007251D01*
X006070Y007251D01*
X006070Y007558D01*
X006300Y007405D02*
X006300Y007251D01*
X006530Y007098D02*
X006070Y007098D01*
X006070Y006791D02*
X006530Y006791D01*
X006377Y006944D01*
X006530Y007098D01*
X006453Y006637D02*
X006146Y006637D01*
X006070Y006561D01*
X006070Y006407D01*
X006146Y006330D01*
X006453Y006330D01*
X006530Y006407D01*
X006530Y006561D01*
X006453Y006637D01*
X006300Y006177D02*
X006146Y006177D01*
X006070Y006100D01*
X006070Y005870D01*
X006530Y005870D01*
X006377Y005870D02*
X006377Y006100D01*
X006300Y006177D01*
X005780Y006100D02*
X005780Y005947D01*
X005703Y005870D01*
X005320Y005870D01*
X005100Y005957D02*
X004793Y005957D01*
X004946Y005957D02*
X004946Y006418D01*
X004793Y006264D01*
X004640Y006341D02*
X004640Y006034D01*
X004563Y005957D01*
X004409Y005957D01*
X004333Y006034D01*
X004333Y006341D01*
X004409Y006418D01*
X004563Y006418D01*
X004640Y006341D01*
X004486Y006111D02*
X004640Y005957D01*
X005320Y006177D02*
X005703Y006177D01*
X005780Y006100D01*
X005703Y006330D02*
X005780Y006407D01*
X005780Y006561D01*
X005703Y006637D01*
X005627Y006637D01*
X005550Y006561D01*
X005550Y006407D01*
X005473Y006330D01*
X005396Y006330D01*
X005320Y006407D01*
X005320Y006561D01*
X005396Y006637D01*
X005320Y006791D02*
X005320Y007021D01*
X005396Y007098D01*
X005473Y007098D01*
X005550Y007021D01*
X005550Y006791D01*
X005550Y007021D02*
X005627Y007098D01*
X005703Y007098D01*
X005780Y007021D01*
X005780Y006791D01*
X005320Y006791D01*
X008170Y006630D02*
X008170Y006170D01*
X008477Y006170D02*
X008477Y006630D01*
X008323Y006477D01*
X008170Y006630D01*
X008170Y007170D02*
X008170Y007630D01*
X008323Y007477D01*
X008477Y007630D01*
X008477Y007170D01*
X008747Y002630D02*
X008670Y002554D01*
X008670Y002247D01*
X008747Y002170D01*
X008900Y002170D01*
X008977Y002247D01*
X008977Y002400D01*
X008823Y002400D01*
X008977Y002554D02*
X008900Y002630D01*
X008747Y002630D01*
X009130Y002630D02*
X009130Y002170D01*
X009437Y002170D02*
X009130Y002630D01*
X009437Y002630D02*
X009437Y002170D01*
X009591Y002170D02*
X009821Y002170D01*
X009898Y002247D01*
X009898Y002554D01*
X009821Y002630D01*
X009591Y002630D01*
X009591Y002170D01*
D11*
X010150Y002150D02*
X010400Y001900D01*
X010900Y001900D01*
X011150Y002150D01*
X011150Y002650D01*
X010900Y002900D01*
X011150Y003150D01*
X011150Y003650D01*
X010900Y003900D01*
X010400Y003900D01*
X010150Y003650D01*
X010150Y003150D01*
X010400Y002900D01*
X010900Y002900D01*
X010400Y002900D02*
X010150Y002650D01*
X010150Y002150D01*
X010400Y003900D02*
X010150Y004150D01*
X010150Y004650D01*
X010400Y004900D01*
X010150Y005150D01*
X010150Y005650D01*
X010400Y005900D01*
X010150Y006150D01*
X010150Y006650D01*
X010400Y006900D01*
X010900Y006900D01*
X011150Y006650D01*
X011150Y006150D01*
X010900Y005900D01*
X011150Y005650D01*
X011150Y005150D01*
X010900Y004900D01*
X011150Y004650D01*
X011150Y004150D01*
X010900Y003900D01*
X010900Y004900D02*
X010400Y004900D01*
X010400Y005900D02*
X010900Y005900D01*
X010900Y006900D02*
X011150Y007150D01*
X011150Y007650D01*
X010900Y007900D01*
X011150Y008150D01*
X011150Y008650D01*
X010900Y008900D01*
X011150Y009150D01*
X011150Y009650D01*
X010900Y009900D01*
X010400Y009900D01*
X010150Y009650D01*
X010150Y009150D01*
X010400Y008900D01*
X010900Y008900D01*
X010400Y008900D02*
X010150Y008650D01*
X010150Y008150D01*
X010400Y007900D01*
X010900Y007900D01*
X010400Y007900D02*
X010150Y007650D01*
X010150Y007150D01*
X010400Y006900D01*
X010400Y009900D02*
X010150Y010150D01*
X010150Y010650D01*
X010400Y010900D01*
X010150Y011150D01*
X010150Y011650D01*
X010400Y011900D01*
X010150Y012150D01*
X010150Y012650D01*
X010400Y012900D01*
X010900Y012900D01*
X011150Y012650D01*
X011150Y012150D01*
X010900Y011900D01*
X011150Y011650D01*
X011150Y011150D01*
X010900Y010900D01*
X011150Y010650D01*
X011150Y010150D01*
X010900Y009900D01*
X010900Y010900D02*
X010400Y010900D01*
X010400Y011900D02*
X010900Y011900D01*
X008400Y015150D02*
X007900Y015150D01*
X007650Y015400D01*
X007400Y015150D01*
X006900Y015150D01*
X006650Y015400D01*
X006650Y015900D01*
X006900Y016150D01*
X007400Y016150D01*
X007650Y015900D01*
X007900Y016150D01*
X008400Y016150D01*
X008650Y015900D01*
X008650Y015400D01*
X008400Y015150D01*
X007650Y015400D02*
X007650Y015900D01*
X004570Y014815D02*
X004570Y014388D01*
X003929Y014388D01*
X004143Y014170D02*
X004570Y014170D01*
X004250Y014170D02*
X004250Y013743D01*
X004143Y013743D02*
X003929Y013957D01*
X004143Y014170D01*
X004143Y013743D02*
X004570Y013743D01*
X004570Y013527D02*
X004570Y013314D01*
X004570Y013420D02*
X003929Y013420D01*
X003929Y013314D02*
X003929Y013527D01*
X003670Y013589D02*
X003670Y013269D01*
X003029Y013269D01*
X003029Y013589D01*
X003136Y013696D01*
X003563Y013696D01*
X003670Y013589D01*
X003670Y013914D02*
X003670Y014127D01*
X003670Y014020D02*
X003029Y014020D01*
X003029Y013914D02*
X003029Y014127D01*
X002650Y013900D02*
X002650Y013400D01*
X002400Y013150D01*
X002650Y012900D01*
X002650Y012400D01*
X002400Y012150D01*
X002650Y011900D01*
X002650Y011400D01*
X002400Y011150D01*
X002650Y010900D01*
X002650Y010400D01*
X002400Y010150D01*
X001900Y010150D01*
X001650Y010400D01*
X001650Y010900D01*
X001900Y011150D01*
X001650Y011400D01*
X001650Y011900D01*
X001900Y012150D01*
X002400Y012150D01*
X001900Y012150D02*
X001650Y012400D01*
X001650Y012900D01*
X001900Y013150D01*
X001650Y013400D01*
X001650Y013900D01*
X001900Y014150D01*
X001650Y014400D01*
X001650Y014900D01*
X001900Y015150D01*
X001650Y015400D01*
X001650Y015900D01*
X001900Y016150D01*
X002400Y016150D01*
X002650Y015900D01*
X002650Y015400D01*
X002400Y015150D01*
X002650Y014900D01*
X002650Y014400D01*
X002400Y014150D01*
X002650Y013900D01*
X002400Y014150D02*
X001900Y014150D01*
X001900Y013150D02*
X002400Y013150D01*
X003029Y013052D02*
X003029Y012625D01*
X003029Y012407D02*
X003029Y011980D01*
X003670Y011980D01*
X003929Y012025D02*
X003929Y012452D01*
X003929Y012669D02*
X003929Y012989D01*
X004036Y013096D01*
X004250Y013096D01*
X004356Y012989D01*
X004356Y012669D01*
X004356Y012883D02*
X004570Y013096D01*
X004570Y012669D02*
X003929Y012669D01*
X003670Y012838D02*
X003029Y012838D01*
X003350Y012194D02*
X003350Y011980D01*
X003929Y012025D02*
X004570Y012025D01*
X004570Y012452D01*
X004250Y012238D02*
X004250Y012025D01*
X004356Y011807D02*
X004463Y011807D01*
X004570Y011700D01*
X004570Y011487D01*
X004463Y011380D01*
X004250Y011487D02*
X004250Y011700D01*
X004356Y011807D01*
X004036Y011807D02*
X003929Y011700D01*
X003929Y011487D01*
X004036Y011380D01*
X004143Y011380D01*
X004250Y011487D01*
X005400Y010150D02*
X005900Y010150D01*
X006150Y009900D01*
X006150Y009400D01*
X005900Y009150D01*
X006150Y008900D01*
X006150Y008400D01*
X005900Y008150D01*
X005400Y008150D01*
X005150Y008400D01*
X005150Y008900D01*
X005400Y009150D01*
X005150Y009400D01*
X005150Y009900D01*
X005400Y010150D01*
X005400Y009150D02*
X005900Y009150D01*
X005900Y005650D02*
X005650Y005400D01*
X005650Y004900D01*
X005900Y004650D01*
X005650Y004400D01*
X005650Y003900D01*
X005900Y003650D01*
X006400Y003650D01*
X006650Y003900D01*
X006650Y004400D01*
X006400Y004650D01*
X005900Y004650D01*
X006400Y004650D02*
X006650Y004900D01*
X006650Y005400D01*
X006400Y005650D01*
X005900Y005650D01*
X002400Y011150D02*
X001900Y011150D01*
X001900Y015150D02*
X002400Y015150D01*
D12*
X006150Y009150D02*
X006400Y009150D01*
X006400Y008200D01*
X005300Y005700D02*
X005300Y005450D01*
X005400Y005350D01*
D13*
X004900Y004950D02*
X004400Y004950D01*
X004400Y004350D02*
X004900Y004350D01*
X004450Y008900D02*
X004450Y009400D01*
X003850Y009400D02*
X003850Y008900D01*
D14*
X004010Y010060D02*
X004010Y010280D01*
X004157Y010280D01*
X004231Y010207D02*
X004304Y010280D01*
X004304Y010060D01*
X004231Y010060D02*
X004378Y010060D01*
X004083Y010170D02*
X004010Y010170D01*
X004818Y004140D02*
X004965Y004140D01*
X005039Y004103D02*
X005076Y004140D01*
X005149Y004140D01*
X005186Y004103D01*
X005186Y004067D01*
X005039Y003920D01*
X005186Y003920D01*
X004891Y004030D02*
X004818Y004030D01*
X004818Y003920D02*
X004818Y004140D01*
D15*
X002831Y002075D02*
X002142Y002075D01*
X002831Y002075D02*
X002831Y002272D01*
X004374Y002059D02*
X004926Y002059D01*
X004926Y002473D02*
X004926Y002827D01*
X004530Y003044D02*
X004532Y003065D01*
X004538Y003086D01*
X004547Y003106D01*
X004560Y003123D01*
X004575Y003138D01*
X004593Y003150D01*
X004613Y003158D01*
X004634Y003163D01*
X004655Y003164D01*
X004677Y003161D01*
X004697Y003154D01*
X004716Y003144D01*
X004733Y003131D01*
X004747Y003115D01*
X004758Y003096D01*
X004766Y003076D01*
X004770Y003055D01*
X004770Y003033D01*
X004766Y003012D01*
X004758Y002992D01*
X004747Y002973D01*
X004733Y002957D01*
X004716Y002944D01*
X004697Y002934D01*
X004677Y002927D01*
X004655Y002924D01*
X004634Y002925D01*
X004613Y002930D01*
X004593Y002938D01*
X004575Y002950D01*
X004560Y002965D01*
X004547Y002982D01*
X004538Y003002D01*
X004532Y003023D01*
X004530Y003044D01*
X004394Y003241D02*
X004374Y003241D01*
X004394Y003241D02*
X004926Y003241D01*
X006754Y001925D02*
X006754Y001475D01*
X006754Y001625D02*
X006979Y001625D01*
X007054Y001700D01*
X007054Y001850D01*
X006979Y001925D01*
X006754Y001925D01*
X006904Y001625D02*
X007054Y001475D01*
X007215Y001475D02*
X007515Y001775D01*
X007515Y001850D01*
X007440Y001925D01*
X007290Y001925D01*
X007215Y001850D01*
X007215Y001475D02*
X007515Y001475D01*
X007565Y005925D02*
X007265Y005925D01*
X007415Y005925D02*
X007415Y006375D01*
X007265Y006225D01*
X007104Y006300D02*
X007104Y006150D01*
X007029Y006075D01*
X006804Y006075D01*
X006804Y005925D02*
X006804Y006375D01*
X007029Y006375D01*
X007104Y006300D01*
X006954Y006075D02*
X007104Y005925D01*
X004926Y006559D02*
X004374Y006559D01*
X004926Y006973D02*
X004926Y007327D01*
X004530Y007544D02*
X004532Y007565D01*
X004538Y007586D01*
X004547Y007606D01*
X004560Y007623D01*
X004575Y007638D01*
X004593Y007650D01*
X004613Y007658D01*
X004634Y007663D01*
X004655Y007664D01*
X004677Y007661D01*
X004697Y007654D01*
X004716Y007644D01*
X004733Y007631D01*
X004747Y007615D01*
X004758Y007596D01*
X004766Y007576D01*
X004770Y007555D01*
X004770Y007533D01*
X004766Y007512D01*
X004758Y007492D01*
X004747Y007473D01*
X004733Y007457D01*
X004716Y007444D01*
X004697Y007434D01*
X004677Y007427D01*
X004655Y007424D01*
X004634Y007425D01*
X004613Y007430D01*
X004593Y007438D01*
X004575Y007450D01*
X004560Y007465D01*
X004547Y007482D01*
X004538Y007502D01*
X004532Y007523D01*
X004530Y007544D01*
X004394Y007741D02*
X004374Y007741D01*
X004394Y007741D02*
X004926Y007741D01*
X002831Y009028D02*
X002831Y009225D01*
X002142Y009225D01*
X002831Y006272D02*
X002831Y006075D01*
X002142Y006075D01*
X002142Y005225D02*
X002831Y005225D01*
X002831Y005028D01*
X009059Y014370D02*
X009059Y016634D01*
X011225Y016634D01*
X011225Y014370D01*
X009059Y014370D01*
X009059Y016634D02*
X009059Y016930D01*
X011225Y016930D01*
X011225Y016634D01*
M02*
