G75*
%MOIN*%
%OFA0B0*%
%FSLAX24Y24*%
%IPPOS*%
%LPD*%
%AMOC8*
5,1,8,0,0,1.08239X$1,22.5*
%
%ADD10C,0.0600*%
%ADD11R,0.0600X0.0600*%
%ADD12C,0.0591*%
%ADD13C,0.0472*%
%ADD14C,0.0100*%
%ADD15C,0.0270*%
%ADD16C,0.0320*%
%ADD17C,0.0376*%
D10*
X005850Y004150D02*
X006450Y004150D01*
X006450Y005150D02*
X005850Y005150D01*
X005950Y008650D02*
X005350Y008650D01*
X005350Y009650D02*
X005950Y009650D01*
X002450Y010650D02*
X001850Y010650D01*
X001850Y011650D02*
X002450Y011650D01*
X002450Y012650D02*
X001850Y012650D01*
X001850Y013650D02*
X002450Y013650D01*
X002450Y014650D02*
X001850Y014650D01*
X001850Y015650D02*
X002450Y015650D01*
X007150Y015350D02*
X007150Y015950D01*
X008150Y015950D02*
X008150Y015350D01*
X010350Y012400D02*
X010950Y012400D01*
X010950Y011400D02*
X010350Y011400D01*
X010350Y010400D02*
X010950Y010400D01*
X010950Y009400D02*
X010350Y009400D01*
X010350Y008400D02*
X010950Y008400D01*
X010950Y007400D02*
X010350Y007400D01*
X010350Y006400D02*
X010950Y006400D01*
X010950Y005400D02*
X010350Y005400D01*
X010350Y004400D02*
X010950Y004400D01*
X010950Y003400D02*
X010350Y003400D01*
X010350Y002400D02*
X010950Y002400D01*
D11*
X010650Y015650D03*
X009650Y015650D03*
D12*
X001650Y008979D03*
X001650Y006321D03*
X001650Y004979D03*
X001650Y002321D03*
D13*
X002713Y002666D03*
X002713Y004634D03*
X002713Y006666D03*
X002713Y008634D03*
D14*
X001350Y001992D02*
X001350Y001350D01*
X011450Y001350D01*
X011450Y016450D01*
X001350Y016450D01*
X001350Y009308D01*
X001360Y009318D01*
X001417Y009360D01*
X001479Y009391D01*
X001546Y009413D01*
X001602Y009422D01*
X001602Y009027D01*
X001698Y009027D01*
X001698Y009422D01*
X001754Y009413D01*
X001821Y009391D01*
X001883Y009360D01*
X001940Y009318D01*
X001990Y009269D01*
X002031Y009212D01*
X002063Y009150D01*
X002084Y009083D01*
X002093Y009027D01*
X001698Y009027D01*
X001698Y008930D01*
X001698Y008536D01*
X001754Y008544D01*
X001821Y008566D01*
X001883Y008598D01*
X001940Y008639D01*
X001990Y008689D01*
X002031Y008745D01*
X002063Y008808D01*
X002084Y008874D01*
X002093Y008930D01*
X001698Y008930D01*
X001602Y008930D01*
X001602Y008536D01*
X001546Y008544D01*
X001479Y008566D01*
X001417Y008598D01*
X001360Y008639D01*
X001350Y008649D01*
X001350Y006651D01*
X001360Y006661D01*
X001417Y006702D01*
X001479Y006734D01*
X001546Y006756D01*
X001602Y006764D01*
X001602Y006370D01*
X001698Y006370D01*
X001698Y006764D01*
X001754Y006756D01*
X001821Y006734D01*
X001883Y006702D01*
X001940Y006661D01*
X001990Y006611D01*
X002031Y006555D01*
X002063Y006492D01*
X002084Y006426D01*
X002093Y006370D01*
X001698Y006370D01*
X001698Y006273D01*
X001698Y005878D01*
X001754Y005887D01*
X001821Y005909D01*
X001883Y005940D01*
X001940Y005982D01*
X001990Y006031D01*
X002031Y006088D01*
X002063Y006150D01*
X002084Y006217D01*
X002093Y006273D01*
X001698Y006273D01*
X001602Y006273D01*
X001602Y005878D01*
X001546Y005887D01*
X001479Y005909D01*
X001417Y005940D01*
X001360Y005982D01*
X001350Y005992D01*
X001350Y005308D01*
X001360Y005318D01*
X001417Y005360D01*
X001479Y005391D01*
X001546Y005413D01*
X001602Y005422D01*
X001602Y005027D01*
X001698Y005027D01*
X001698Y005422D01*
X001754Y005413D01*
X001821Y005391D01*
X001883Y005360D01*
X001940Y005318D01*
X001990Y005269D01*
X002031Y005212D01*
X002063Y005150D01*
X002084Y005083D01*
X002093Y005027D01*
X001698Y005027D01*
X001698Y004930D01*
X001698Y004536D01*
X001754Y004544D01*
X001821Y004566D01*
X001883Y004598D01*
X001940Y004639D01*
X001990Y004689D01*
X002031Y004745D01*
X002063Y004808D01*
X002084Y004874D01*
X002093Y004930D01*
X001698Y004930D01*
X001602Y004930D01*
X001602Y004536D01*
X001546Y004544D01*
X001479Y004566D01*
X001417Y004598D01*
X001360Y004639D01*
X001350Y004649D01*
X001350Y002651D01*
X001360Y002661D01*
X001417Y002702D01*
X001479Y002734D01*
X001546Y002756D01*
X001602Y002764D01*
X001602Y002370D01*
X001698Y002370D01*
X001698Y002764D01*
X001754Y002756D01*
X001821Y002734D01*
X001883Y002702D01*
X001940Y002661D01*
X001990Y002611D01*
X002031Y002555D01*
X002063Y002492D01*
X002084Y002426D01*
X002093Y002370D01*
X001698Y002370D01*
X001698Y002273D01*
X001698Y001878D01*
X001754Y001887D01*
X001821Y001909D01*
X001883Y001940D01*
X001940Y001982D01*
X001990Y002031D01*
X002031Y002088D01*
X002063Y002150D01*
X002084Y002217D01*
X002093Y002273D01*
X001698Y002273D01*
X001602Y002273D01*
X001602Y001878D01*
X001546Y001887D01*
X001479Y001909D01*
X001417Y001940D01*
X001360Y001982D01*
X001350Y001992D01*
X001350Y001938D02*
X001421Y001938D01*
X001350Y001840D02*
X011450Y001840D01*
X011450Y001938D02*
X001879Y001938D01*
X001994Y002037D02*
X010085Y002037D01*
X010057Y002057D02*
X010114Y002015D01*
X010177Y001983D01*
X010245Y001961D01*
X010315Y001950D01*
X010600Y001950D01*
X010600Y002350D01*
X010700Y002350D01*
X010700Y002450D01*
X010600Y002450D01*
X010600Y002850D01*
X010315Y002850D01*
X010245Y002839D01*
X010177Y002817D01*
X010114Y002785D01*
X010057Y002743D01*
X010007Y002693D01*
X009965Y002636D01*
X009933Y002573D01*
X009911Y002505D01*
X009902Y002450D01*
X010600Y002450D01*
X010600Y002350D01*
X009902Y002350D01*
X009911Y002295D01*
X009933Y002227D01*
X009965Y002164D01*
X010007Y002107D01*
X010057Y002057D01*
X009986Y002135D02*
X002055Y002135D01*
X002087Y002234D02*
X009931Y002234D01*
X009905Y002332D02*
X002909Y002332D01*
X002896Y002323D02*
X002959Y002366D01*
X003013Y002420D01*
X003055Y002483D01*
X003084Y002553D01*
X003099Y002628D01*
X003099Y002637D01*
X002742Y002637D01*
X002742Y002694D01*
X003099Y002694D01*
X003099Y002704D01*
X003084Y002778D01*
X003055Y002849D01*
X003013Y002912D01*
X002959Y002966D01*
X002896Y003008D01*
X002826Y003037D01*
X002751Y003052D01*
X002742Y003052D01*
X002742Y002694D01*
X002684Y002694D01*
X002684Y002637D01*
X002327Y002637D01*
X002327Y002628D01*
X002342Y002553D01*
X002371Y002483D01*
X002413Y002420D01*
X002467Y002366D01*
X002530Y002323D01*
X002600Y002294D01*
X002675Y002280D01*
X002684Y002280D01*
X002684Y002637D01*
X002742Y002637D01*
X002742Y002280D01*
X002751Y002280D01*
X002826Y002294D01*
X002896Y002323D01*
X002742Y002332D02*
X002684Y002332D01*
X002684Y002431D02*
X002742Y002431D01*
X002742Y002529D02*
X002684Y002529D01*
X002684Y002628D02*
X002742Y002628D01*
X002684Y002694D02*
X002327Y002694D01*
X002327Y002704D01*
X002342Y002778D01*
X002371Y002849D01*
X002413Y002912D01*
X002467Y002966D01*
X002530Y003008D01*
X002600Y003037D01*
X002675Y003052D01*
X002684Y003052D01*
X002684Y002694D01*
X002684Y002726D02*
X002742Y002726D01*
X002742Y002825D02*
X002684Y002825D01*
X002684Y002923D02*
X002742Y002923D01*
X002742Y003022D02*
X002684Y003022D01*
X002563Y003022D02*
X001350Y003022D01*
X001350Y003120D02*
X010050Y003120D01*
X010002Y003168D02*
X010118Y003052D01*
X010268Y002990D01*
X011032Y002990D01*
X011182Y003052D01*
X011298Y003168D01*
X011360Y003318D01*
X011360Y003482D01*
X011298Y003632D01*
X011182Y003748D01*
X011032Y003810D01*
X010268Y003810D01*
X010118Y003748D01*
X010002Y003632D01*
X009940Y003482D01*
X009940Y003318D01*
X010002Y003168D01*
X009981Y003219D02*
X001350Y003219D01*
X001350Y003317D02*
X009941Y003317D01*
X009940Y003416D02*
X001350Y003416D01*
X001350Y003514D02*
X009953Y003514D01*
X009994Y003613D02*
X001350Y003613D01*
X001350Y003711D02*
X010081Y003711D01*
X010267Y003810D02*
X006689Y003810D01*
X006682Y003802D02*
X006798Y003918D01*
X006860Y004068D01*
X006860Y004232D01*
X006798Y004382D01*
X006682Y004498D01*
X006532Y004560D01*
X005768Y004560D01*
X005618Y004498D01*
X005502Y004382D01*
X005440Y004232D01*
X005440Y004068D01*
X005502Y003918D01*
X005618Y003802D01*
X005768Y003740D01*
X006532Y003740D01*
X006682Y003802D01*
X006788Y003908D02*
X011450Y003908D01*
X011450Y003810D02*
X011033Y003810D01*
X011032Y003990D02*
X011182Y004052D01*
X011298Y004168D01*
X011360Y004318D01*
X011360Y004482D01*
X011298Y004632D01*
X011182Y004748D01*
X011032Y004810D01*
X010268Y004810D01*
X010118Y004748D01*
X010002Y004632D01*
X009940Y004482D01*
X009940Y004318D01*
X010002Y004168D01*
X010118Y004052D01*
X010268Y003990D01*
X011032Y003990D01*
X011071Y004007D02*
X011450Y004007D01*
X011450Y004105D02*
X011235Y004105D01*
X011312Y004204D02*
X011450Y004204D01*
X011450Y004302D02*
X011353Y004302D01*
X011360Y004401D02*
X011450Y004401D01*
X011450Y004499D02*
X011353Y004499D01*
X011312Y004598D02*
X011450Y004598D01*
X011450Y004696D02*
X011234Y004696D01*
X011069Y004795D02*
X011450Y004795D01*
X011450Y004893D02*
X008809Y004893D01*
X008819Y004897D02*
X008903Y004981D01*
X008948Y005091D01*
X008948Y005209D01*
X008920Y005277D01*
X008920Y008538D01*
X009512Y009130D01*
X010040Y009130D01*
X010118Y009052D01*
X010268Y008990D01*
X011032Y008990D01*
X011182Y009052D01*
X011298Y009168D01*
X011360Y009318D01*
X011360Y009482D01*
X011298Y009632D01*
X011182Y009748D01*
X011032Y009810D01*
X010268Y009810D01*
X010165Y009767D01*
X009920Y010012D01*
X009920Y015240D01*
X009996Y015240D01*
X010060Y015304D01*
X010060Y015996D01*
X009996Y016060D01*
X009304Y016060D01*
X009240Y015996D01*
X009240Y015304D01*
X009304Y015240D01*
X009380Y015240D01*
X009380Y009846D01*
X009421Y009747D01*
X009498Y009670D01*
X009346Y009670D01*
X009247Y009629D01*
X009171Y009553D01*
X008421Y008803D01*
X008380Y008704D01*
X008380Y005277D01*
X008352Y005209D01*
X008352Y005091D01*
X008397Y004981D01*
X008481Y004897D01*
X008591Y004852D01*
X008709Y004852D01*
X008819Y004897D01*
X008907Y004992D02*
X010160Y004992D01*
X010177Y004983D02*
X010114Y005015D01*
X010057Y005057D01*
X010007Y005107D01*
X009965Y005164D01*
X009933Y005227D01*
X009911Y005295D01*
X009902Y005350D01*
X010600Y005350D01*
X010700Y005350D01*
X010700Y005450D01*
X010600Y005450D01*
X010600Y005850D01*
X010315Y005850D01*
X010245Y005839D01*
X010177Y005817D01*
X010114Y005785D01*
X010057Y005743D01*
X010007Y005693D01*
X009965Y005636D01*
X009933Y005573D01*
X009911Y005505D01*
X009902Y005450D01*
X010600Y005450D01*
X010600Y005350D01*
X010600Y004950D01*
X010315Y004950D01*
X010245Y004961D01*
X010177Y004983D01*
X010024Y005090D02*
X008948Y005090D01*
X008948Y005189D02*
X009953Y005189D01*
X009914Y005287D02*
X008920Y005287D01*
X008920Y005386D02*
X010600Y005386D01*
X010600Y005484D02*
X010700Y005484D01*
X010700Y005450D02*
X010700Y005850D01*
X010985Y005850D01*
X011055Y005839D01*
X011123Y005817D01*
X011186Y005785D01*
X011243Y005743D01*
X011293Y005693D01*
X011335Y005636D01*
X011367Y005573D01*
X011389Y005505D01*
X011398Y005450D01*
X010700Y005450D01*
X010700Y005386D02*
X011450Y005386D01*
X011398Y005350D02*
X010700Y005350D01*
X010700Y004950D01*
X010985Y004950D01*
X011055Y004961D01*
X011123Y004983D01*
X011186Y005015D01*
X011243Y005057D01*
X011293Y005107D01*
X011335Y005164D01*
X011367Y005227D01*
X011389Y005295D01*
X011398Y005350D01*
X011386Y005287D02*
X011450Y005287D01*
X011450Y005189D02*
X011347Y005189D01*
X011276Y005090D02*
X011450Y005090D01*
X011450Y004992D02*
X011140Y004992D01*
X011392Y005484D02*
X011450Y005484D01*
X011450Y005583D02*
X011362Y005583D01*
X011302Y005681D02*
X011450Y005681D01*
X011450Y005780D02*
X011193Y005780D01*
X011032Y005990D02*
X011182Y006052D01*
X011298Y006168D01*
X011360Y006318D01*
X011360Y006482D01*
X011298Y006632D01*
X011182Y006748D01*
X011032Y006810D01*
X010268Y006810D01*
X010118Y006748D01*
X010002Y006632D01*
X009940Y006482D01*
X009940Y006318D01*
X010002Y006168D01*
X010118Y006052D01*
X010268Y005990D01*
X011032Y005990D01*
X011205Y006075D02*
X011450Y006075D01*
X011450Y005977D02*
X008920Y005977D01*
X008920Y006075D02*
X010095Y006075D01*
X010000Y006174D02*
X008920Y006174D01*
X008920Y006272D02*
X009959Y006272D01*
X009940Y006371D02*
X008920Y006371D01*
X008920Y006469D02*
X009940Y006469D01*
X009976Y006568D02*
X008920Y006568D01*
X008920Y006666D02*
X010036Y006666D01*
X010159Y006765D02*
X008920Y006765D01*
X008920Y006863D02*
X011450Y006863D01*
X011450Y006765D02*
X011141Y006765D01*
X011264Y006666D02*
X011450Y006666D01*
X011450Y006568D02*
X011324Y006568D01*
X011360Y006469D02*
X011450Y006469D01*
X011450Y006371D02*
X011360Y006371D01*
X011341Y006272D02*
X011450Y006272D01*
X011450Y006174D02*
X011300Y006174D01*
X011450Y005878D02*
X008920Y005878D01*
X008920Y005780D02*
X010107Y005780D01*
X009998Y005681D02*
X008920Y005681D01*
X008920Y005583D02*
X009938Y005583D01*
X009908Y005484D02*
X008920Y005484D01*
X008491Y004893D02*
X006773Y004893D01*
X006798Y004918D02*
X006860Y005068D01*
X006860Y005232D01*
X006798Y005382D01*
X006682Y005498D01*
X006532Y005560D01*
X005768Y005560D01*
X005618Y005498D01*
X005502Y005382D01*
X005440Y005232D01*
X005440Y005068D01*
X005502Y004918D01*
X005618Y004802D01*
X005768Y004740D01*
X006532Y004740D01*
X006682Y004802D01*
X006798Y004918D01*
X006828Y004992D02*
X008393Y004992D01*
X008352Y005090D02*
X006860Y005090D01*
X006860Y005189D02*
X008352Y005189D01*
X008380Y005287D02*
X006837Y005287D01*
X006794Y005386D02*
X008380Y005386D01*
X008380Y005484D02*
X006696Y005484D01*
X006663Y004795D02*
X010231Y004795D01*
X010066Y004696D02*
X003094Y004696D01*
X003099Y004672D02*
X003084Y004747D01*
X003055Y004817D01*
X003013Y004880D01*
X002959Y004934D01*
X002896Y004977D01*
X002826Y005006D01*
X002751Y005020D01*
X002742Y005020D01*
X002742Y004663D01*
X003099Y004663D01*
X003099Y004672D01*
X003099Y004606D02*
X002742Y004606D01*
X002742Y004663D01*
X002684Y004663D01*
X002684Y004606D01*
X002327Y004606D01*
X002327Y004596D01*
X002342Y004522D01*
X002371Y004451D01*
X002413Y004388D01*
X002467Y004334D01*
X002530Y004292D01*
X002600Y004263D01*
X002675Y004248D01*
X002684Y004248D01*
X002684Y004606D01*
X002742Y004606D01*
X002742Y004248D01*
X002751Y004248D01*
X002826Y004263D01*
X002896Y004292D01*
X002959Y004334D01*
X003013Y004388D01*
X003055Y004451D01*
X003084Y004522D01*
X003099Y004596D01*
X003099Y004606D01*
X003099Y004598D02*
X009988Y004598D01*
X009947Y004499D02*
X006679Y004499D01*
X006779Y004401D02*
X009940Y004401D01*
X009947Y004302D02*
X006831Y004302D01*
X006860Y004204D02*
X009988Y004204D01*
X010065Y004105D02*
X006860Y004105D01*
X006834Y004007D02*
X010229Y004007D01*
X010192Y003022D02*
X002863Y003022D01*
X003002Y002923D02*
X011450Y002923D01*
X011450Y002825D02*
X011100Y002825D01*
X011123Y002817D02*
X011055Y002839D01*
X010985Y002850D01*
X010700Y002850D01*
X010700Y002450D01*
X011398Y002450D01*
X011389Y002505D01*
X011367Y002573D01*
X011335Y002636D01*
X011293Y002693D01*
X011243Y002743D01*
X011186Y002785D01*
X011123Y002817D01*
X011260Y002726D02*
X011450Y002726D01*
X011450Y002628D02*
X011339Y002628D01*
X011381Y002529D02*
X011450Y002529D01*
X011450Y002431D02*
X010700Y002431D01*
X010700Y002350D02*
X011398Y002350D01*
X011389Y002295D01*
X011367Y002227D01*
X011335Y002164D01*
X011293Y002107D01*
X011243Y002057D01*
X011186Y002015D01*
X011123Y001983D01*
X011055Y001961D01*
X010985Y001950D01*
X010700Y001950D01*
X010700Y002350D01*
X010700Y002332D02*
X010600Y002332D01*
X010600Y002234D02*
X010700Y002234D01*
X010700Y002135D02*
X010600Y002135D01*
X010600Y002037D02*
X010700Y002037D01*
X010600Y002431D02*
X003020Y002431D01*
X003074Y002529D02*
X009919Y002529D01*
X009961Y002628D02*
X003099Y002628D01*
X003095Y002726D02*
X010040Y002726D01*
X010200Y002825D02*
X003065Y002825D01*
X002517Y002332D02*
X001698Y002332D01*
X001698Y002234D02*
X001602Y002234D01*
X001602Y002135D02*
X001698Y002135D01*
X001698Y002037D02*
X001602Y002037D01*
X001602Y001938D02*
X001698Y001938D01*
X001350Y001741D02*
X011450Y001741D01*
X011450Y001643D02*
X001350Y001643D01*
X001350Y001544D02*
X011450Y001544D01*
X011450Y001446D02*
X001350Y001446D01*
X001602Y002431D02*
X001698Y002431D01*
X001698Y002529D02*
X001602Y002529D01*
X001602Y002628D02*
X001698Y002628D01*
X001698Y002726D02*
X001602Y002726D01*
X001464Y002726D02*
X001350Y002726D01*
X001350Y002825D02*
X002361Y002825D01*
X002331Y002726D02*
X001836Y002726D01*
X001973Y002628D02*
X002327Y002628D01*
X002352Y002529D02*
X002044Y002529D01*
X002083Y002431D02*
X002406Y002431D01*
X002424Y002923D02*
X001350Y002923D01*
X001350Y003810D02*
X005611Y003810D01*
X005512Y003908D02*
X001350Y003908D01*
X001350Y004007D02*
X005466Y004007D01*
X005440Y004105D02*
X001350Y004105D01*
X001350Y004204D02*
X005440Y004204D01*
X005469Y004302D02*
X002911Y004302D01*
X003021Y004401D02*
X005521Y004401D01*
X005621Y004499D02*
X003075Y004499D01*
X003065Y004795D02*
X005637Y004795D01*
X005527Y004893D02*
X003000Y004893D01*
X002860Y004992D02*
X005472Y004992D01*
X005440Y005090D02*
X002082Y005090D01*
X002043Y005189D02*
X005440Y005189D01*
X005463Y005287D02*
X001971Y005287D01*
X001832Y005386D02*
X005506Y005386D01*
X005604Y005484D02*
X001350Y005484D01*
X001350Y005386D02*
X001468Y005386D01*
X001602Y005386D02*
X001698Y005386D01*
X001698Y005287D02*
X001602Y005287D01*
X001602Y005189D02*
X001698Y005189D01*
X001698Y005090D02*
X001602Y005090D01*
X001698Y004992D02*
X002566Y004992D01*
X002600Y005006D02*
X002530Y004977D01*
X002467Y004934D01*
X002413Y004880D01*
X002371Y004817D01*
X002342Y004747D01*
X002327Y004672D01*
X002327Y004663D01*
X002684Y004663D01*
X002684Y005020D01*
X002675Y005020D01*
X002600Y005006D01*
X002684Y004992D02*
X002742Y004992D01*
X002742Y004893D02*
X002684Y004893D01*
X002684Y004795D02*
X002742Y004795D01*
X002742Y004696D02*
X002684Y004696D01*
X002684Y004598D02*
X002742Y004598D01*
X002742Y004499D02*
X002684Y004499D01*
X002684Y004401D02*
X002742Y004401D01*
X002742Y004302D02*
X002684Y004302D01*
X002515Y004302D02*
X001350Y004302D01*
X001350Y004401D02*
X002405Y004401D01*
X002351Y004499D02*
X001350Y004499D01*
X001350Y004598D02*
X001417Y004598D01*
X001602Y004598D02*
X001698Y004598D01*
X001698Y004696D02*
X001602Y004696D01*
X001602Y004795D02*
X001698Y004795D01*
X001698Y004893D02*
X001602Y004893D01*
X001883Y004598D02*
X002327Y004598D01*
X002331Y004696D02*
X001995Y004696D01*
X002056Y004795D02*
X002361Y004795D01*
X002426Y004893D02*
X002087Y004893D01*
X001350Y005583D02*
X008380Y005583D01*
X008380Y005681D02*
X001350Y005681D01*
X001350Y005780D02*
X008380Y005780D01*
X008380Y005878D02*
X001350Y005878D01*
X001350Y005977D02*
X001367Y005977D01*
X001602Y005977D02*
X001698Y005977D01*
X001698Y006075D02*
X001602Y006075D01*
X001602Y006174D02*
X001698Y006174D01*
X001698Y006272D02*
X001602Y006272D01*
X001602Y006371D02*
X001698Y006371D01*
X001698Y006469D02*
X001602Y006469D01*
X001602Y006568D02*
X001698Y006568D01*
X001698Y006666D02*
X001602Y006666D01*
X001367Y006666D02*
X001350Y006666D01*
X001350Y006765D02*
X002339Y006765D01*
X002342Y006778D02*
X002327Y006704D01*
X002327Y006694D01*
X002684Y006694D01*
X002684Y006637D01*
X002327Y006637D01*
X002327Y006628D01*
X002342Y006553D01*
X002371Y006483D01*
X002413Y006420D01*
X002467Y006366D01*
X002530Y006323D01*
X002600Y006294D01*
X002675Y006280D01*
X002684Y006280D01*
X002684Y006637D01*
X002742Y006637D01*
X002742Y006694D01*
X003099Y006694D01*
X003099Y006704D01*
X003084Y006778D01*
X003055Y006849D01*
X003013Y006912D01*
X002959Y006966D01*
X002896Y007008D01*
X002826Y007037D01*
X002751Y007052D01*
X002742Y007052D01*
X002742Y006694D01*
X002684Y006694D01*
X002684Y007052D01*
X002675Y007052D01*
X002600Y007037D01*
X002530Y007008D01*
X002467Y006966D01*
X002413Y006912D01*
X002371Y006849D01*
X002342Y006778D01*
X002380Y006863D02*
X001350Y006863D01*
X001350Y006962D02*
X002463Y006962D01*
X002684Y006962D02*
X002742Y006962D01*
X002742Y006863D02*
X002684Y006863D01*
X002684Y006765D02*
X002742Y006765D01*
X002742Y006666D02*
X008380Y006666D01*
X008380Y006568D02*
X003087Y006568D01*
X003084Y006553D02*
X003099Y006628D01*
X003099Y006637D01*
X002742Y006637D01*
X002742Y006280D01*
X002751Y006280D01*
X002826Y006294D01*
X002896Y006323D01*
X002959Y006366D01*
X003013Y006420D01*
X003055Y006483D01*
X003084Y006553D01*
X003046Y006469D02*
X008380Y006469D01*
X008380Y006371D02*
X002964Y006371D01*
X002742Y006371D02*
X002684Y006371D01*
X002684Y006469D02*
X002742Y006469D01*
X002742Y006568D02*
X002684Y006568D01*
X002684Y006666D02*
X001933Y006666D01*
X002021Y006568D02*
X002339Y006568D01*
X002380Y006469D02*
X002070Y006469D01*
X002093Y006371D02*
X002462Y006371D01*
X002093Y006272D02*
X008380Y006272D01*
X008380Y006174D02*
X002070Y006174D01*
X002021Y006075D02*
X008380Y006075D01*
X008380Y005977D02*
X001933Y005977D01*
X001350Y007060D02*
X008380Y007060D01*
X008380Y006962D02*
X002963Y006962D01*
X003046Y006863D02*
X008380Y006863D01*
X008380Y006765D02*
X003087Y006765D01*
X002751Y008248D02*
X002826Y008263D01*
X002896Y008292D01*
X002959Y008334D01*
X003013Y008388D01*
X003055Y008451D01*
X003084Y008522D01*
X003099Y008596D01*
X003099Y008606D01*
X002742Y008606D01*
X002742Y008663D01*
X003099Y008663D01*
X003099Y008672D01*
X003084Y008747D01*
X003055Y008817D01*
X003013Y008880D01*
X002959Y008934D01*
X002896Y008977D01*
X002826Y009006D01*
X002751Y009020D01*
X002742Y009020D01*
X002742Y008663D01*
X002684Y008663D01*
X002684Y008606D01*
X002327Y008606D01*
X002327Y008596D01*
X002342Y008522D01*
X002371Y008451D01*
X002413Y008388D01*
X002467Y008334D01*
X002530Y008292D01*
X002600Y008263D01*
X002675Y008248D01*
X002684Y008248D01*
X002684Y008606D01*
X002742Y008606D01*
X002742Y008248D01*
X002751Y008248D01*
X002742Y008341D02*
X002684Y008341D01*
X002684Y008439D02*
X002742Y008439D01*
X002742Y008538D02*
X002684Y008538D01*
X002684Y008636D02*
X001936Y008636D01*
X002023Y008735D02*
X002339Y008735D01*
X002342Y008747D02*
X002327Y008672D01*
X002327Y008663D01*
X002684Y008663D01*
X002684Y009020D01*
X002675Y009020D01*
X002600Y009006D01*
X002530Y008977D01*
X002467Y008934D01*
X002413Y008880D01*
X002371Y008817D01*
X002342Y008747D01*
X002381Y008833D02*
X002071Y008833D01*
X002093Y009030D02*
X005196Y009030D01*
X005268Y009060D02*
X005118Y008998D01*
X005002Y008882D01*
X004940Y008732D01*
X004940Y008568D01*
X005002Y008418D01*
X005118Y008302D01*
X005268Y008240D01*
X006032Y008240D01*
X006182Y008302D01*
X006298Y008418D01*
X006360Y008568D01*
X006360Y008732D01*
X006298Y008882D01*
X006182Y008998D01*
X006032Y009060D01*
X005268Y009060D01*
X005268Y009240D02*
X005118Y009302D01*
X005002Y009418D01*
X004940Y009568D01*
X004940Y009732D01*
X005002Y009882D01*
X005118Y009998D01*
X005268Y010060D01*
X006032Y010060D01*
X006182Y009998D01*
X006298Y009882D01*
X006360Y009732D01*
X006360Y009568D01*
X006298Y009418D01*
X006182Y009302D01*
X006032Y009240D01*
X005268Y009240D01*
X005095Y009326D02*
X001930Y009326D01*
X002020Y009227D02*
X008845Y009227D01*
X008747Y009129D02*
X002070Y009129D01*
X001698Y009129D02*
X001602Y009129D01*
X001602Y009227D02*
X001698Y009227D01*
X001698Y009326D02*
X001602Y009326D01*
X001370Y009326D02*
X001350Y009326D01*
X001350Y009424D02*
X005000Y009424D01*
X004959Y009523D02*
X001350Y009523D01*
X001350Y009621D02*
X004940Y009621D01*
X004940Y009720D02*
X001350Y009720D01*
X001350Y009818D02*
X004976Y009818D01*
X005037Y009917D02*
X001350Y009917D01*
X001350Y010015D02*
X005160Y010015D01*
X005052Y008932D02*
X002962Y008932D01*
X003045Y008833D02*
X004982Y008833D01*
X004941Y008735D02*
X003087Y008735D01*
X003088Y008538D02*
X004953Y008538D01*
X004940Y008636D02*
X002742Y008636D01*
X002742Y008735D02*
X002684Y008735D01*
X002684Y008833D02*
X002742Y008833D01*
X002742Y008932D02*
X002684Y008932D01*
X002464Y008932D02*
X001698Y008932D01*
X001698Y009030D02*
X001602Y009030D01*
X001602Y008833D02*
X001698Y008833D01*
X001698Y008735D02*
X001602Y008735D01*
X001602Y008636D02*
X001698Y008636D01*
X001698Y008538D02*
X001602Y008538D01*
X001589Y008538D02*
X001350Y008538D01*
X001350Y008636D02*
X001364Y008636D01*
X001350Y008439D02*
X002379Y008439D01*
X002338Y008538D02*
X001711Y008538D01*
X001350Y008341D02*
X002461Y008341D01*
X002965Y008341D02*
X005080Y008341D01*
X004994Y008439D02*
X003047Y008439D01*
X002555Y010211D02*
X002485Y010200D01*
X002200Y010200D01*
X002200Y010600D01*
X002200Y010700D01*
X002100Y010700D01*
X002100Y011100D01*
X001815Y011100D01*
X001745Y011089D01*
X001677Y011067D01*
X001614Y011035D01*
X001557Y010993D01*
X001507Y010943D01*
X001465Y010886D01*
X001433Y010823D01*
X001411Y010755D01*
X001402Y010700D01*
X002100Y010700D01*
X002100Y010600D01*
X002200Y010600D01*
X002898Y010600D01*
X002889Y010545D01*
X002867Y010477D01*
X002835Y010414D01*
X002793Y010357D01*
X002743Y010307D01*
X002686Y010265D01*
X002623Y010233D01*
X002555Y010211D01*
X002558Y010212D02*
X009380Y010212D01*
X009380Y010114D02*
X001350Y010114D01*
X001350Y010212D02*
X001742Y010212D01*
X001745Y010211D02*
X001815Y010200D01*
X002100Y010200D01*
X002100Y010600D01*
X001402Y010600D01*
X001411Y010545D01*
X001433Y010477D01*
X001465Y010414D01*
X001507Y010357D01*
X001557Y010307D01*
X001614Y010265D01*
X001677Y010233D01*
X001745Y010211D01*
X001553Y010311D02*
X001350Y010311D01*
X001350Y010409D02*
X001469Y010409D01*
X001423Y010508D02*
X001350Y010508D01*
X001350Y010606D02*
X002100Y010606D01*
X002100Y010508D02*
X002200Y010508D01*
X002200Y010606D02*
X009380Y010606D01*
X009380Y010508D02*
X002877Y010508D01*
X002831Y010409D02*
X009380Y010409D01*
X009380Y010311D02*
X002747Y010311D01*
X002898Y010700D02*
X002889Y010755D01*
X002867Y010823D01*
X002835Y010886D01*
X002793Y010943D01*
X002743Y010993D01*
X002686Y011035D01*
X002623Y011067D01*
X002555Y011089D01*
X002485Y011100D01*
X002200Y011100D01*
X002200Y010700D01*
X002898Y010700D01*
X002897Y010705D02*
X009380Y010705D01*
X009380Y010803D02*
X002873Y010803D01*
X002823Y010902D02*
X009380Y010902D01*
X009380Y011000D02*
X002734Y011000D01*
X002495Y011099D02*
X009380Y011099D01*
X009380Y011197D02*
X001350Y011197D01*
X001350Y011099D02*
X001805Y011099D01*
X001768Y011240D02*
X001618Y011302D01*
X001502Y011418D01*
X001440Y011568D01*
X001440Y011732D01*
X001502Y011882D01*
X001618Y011998D01*
X001768Y012060D01*
X002532Y012060D01*
X002682Y011998D01*
X002798Y011882D01*
X002860Y011732D01*
X002860Y011568D01*
X002798Y011418D01*
X002682Y011302D01*
X002532Y011240D01*
X001768Y011240D01*
X001634Y011296D02*
X001350Y011296D01*
X001350Y011394D02*
X001526Y011394D01*
X001471Y011493D02*
X001350Y011493D01*
X001350Y011591D02*
X001440Y011591D01*
X001440Y011690D02*
X001350Y011690D01*
X001350Y011788D02*
X001463Y011788D01*
X001507Y011887D02*
X001350Y011887D01*
X001350Y011985D02*
X001605Y011985D01*
X001350Y012084D02*
X009380Y012084D01*
X009380Y012182D02*
X001350Y012182D01*
X001350Y012281D02*
X001671Y012281D01*
X001618Y012302D02*
X001768Y012240D01*
X002532Y012240D01*
X002682Y012302D01*
X002798Y012418D01*
X002860Y012568D01*
X002860Y012732D01*
X002798Y012882D01*
X002682Y012998D01*
X002532Y013060D01*
X001768Y013060D01*
X001618Y012998D01*
X001502Y012882D01*
X001440Y012732D01*
X001440Y012568D01*
X001502Y012418D01*
X001618Y012302D01*
X001541Y012379D02*
X001350Y012379D01*
X001350Y012478D02*
X001478Y012478D01*
X001440Y012576D02*
X001350Y012576D01*
X001350Y012675D02*
X001440Y012675D01*
X001457Y012773D02*
X001350Y012773D01*
X001350Y012872D02*
X001498Y012872D01*
X001590Y012970D02*
X001350Y012970D01*
X001350Y013069D02*
X009380Y013069D01*
X009380Y013167D02*
X001350Y013167D01*
X001350Y013266D02*
X001707Y013266D01*
X001768Y013240D02*
X001618Y013302D01*
X001502Y013418D01*
X001440Y013568D01*
X001440Y013732D01*
X001502Y013882D01*
X001618Y013998D01*
X001768Y014060D01*
X002532Y014060D01*
X002682Y013998D01*
X002798Y013882D01*
X002860Y013732D01*
X002860Y013568D01*
X002798Y013418D01*
X002682Y013302D01*
X002532Y013240D01*
X001768Y013240D01*
X001556Y013364D02*
X001350Y013364D01*
X001350Y013463D02*
X001484Y013463D01*
X001443Y013561D02*
X001350Y013561D01*
X001350Y013660D02*
X001440Y013660D01*
X001451Y013758D02*
X001350Y013758D01*
X001350Y013857D02*
X001492Y013857D01*
X001575Y013955D02*
X001350Y013955D01*
X001350Y014054D02*
X001753Y014054D01*
X001768Y014240D02*
X001618Y014302D01*
X001502Y014418D01*
X001440Y014568D01*
X001440Y014732D01*
X001502Y014882D01*
X001618Y014998D01*
X001768Y015060D01*
X002532Y015060D01*
X002682Y014998D01*
X002798Y014882D01*
X002860Y014732D01*
X002860Y014568D01*
X002798Y014418D01*
X002682Y014302D01*
X002532Y014240D01*
X001768Y014240D01*
X001743Y014251D02*
X001350Y014251D01*
X001350Y014349D02*
X001571Y014349D01*
X001490Y014448D02*
X001350Y014448D01*
X001350Y014546D02*
X001449Y014546D01*
X001440Y014645D02*
X001350Y014645D01*
X001350Y014743D02*
X001445Y014743D01*
X001486Y014842D02*
X001350Y014842D01*
X001350Y014940D02*
X001560Y014940D01*
X001717Y015039D02*
X001350Y015039D01*
X001350Y015137D02*
X006753Y015137D01*
X006765Y015114D02*
X006733Y015177D01*
X006711Y015245D01*
X006700Y015315D01*
X006700Y015600D01*
X007100Y015600D01*
X007200Y015600D01*
X007200Y015700D01*
X007600Y015700D01*
X007600Y015985D01*
X007589Y016055D01*
X007567Y016123D01*
X007535Y016186D01*
X007493Y016243D01*
X007443Y016293D01*
X007386Y016335D01*
X007323Y016367D01*
X007255Y016389D01*
X007200Y016398D01*
X007200Y015700D01*
X007100Y015700D01*
X007100Y016398D01*
X007045Y016389D01*
X006977Y016367D01*
X006914Y016335D01*
X006857Y016293D01*
X006807Y016243D01*
X006765Y016186D01*
X006733Y016123D01*
X006711Y016055D01*
X006700Y015985D01*
X006700Y015700D01*
X007100Y015700D01*
X007100Y015600D01*
X007100Y014902D01*
X007045Y014911D01*
X006977Y014933D01*
X006914Y014965D01*
X006857Y015007D01*
X006807Y015057D01*
X006765Y015114D01*
X006825Y015039D02*
X002583Y015039D01*
X002740Y014940D02*
X006963Y014940D01*
X007100Y014940D02*
X007200Y014940D01*
X007200Y014902D02*
X007255Y014911D01*
X007323Y014933D01*
X007386Y014965D01*
X007443Y015007D01*
X007493Y015057D01*
X007535Y015114D01*
X007567Y015177D01*
X007589Y015245D01*
X007600Y015315D01*
X007600Y015600D01*
X007200Y015600D01*
X007200Y014902D01*
X007200Y015039D02*
X007100Y015039D01*
X007100Y015137D02*
X007200Y015137D01*
X007200Y015236D02*
X007100Y015236D01*
X007100Y015334D02*
X007200Y015334D01*
X007200Y015433D02*
X007100Y015433D01*
X007100Y015531D02*
X007200Y015531D01*
X007200Y015630D02*
X007740Y015630D01*
X007740Y015728D02*
X007600Y015728D01*
X007600Y015827D02*
X007740Y015827D01*
X007740Y015925D02*
X007600Y015925D01*
X007594Y016024D02*
X007740Y016024D01*
X007740Y016032D02*
X007802Y016182D01*
X007918Y016298D01*
X008068Y016360D01*
X008232Y016360D01*
X008382Y016298D01*
X008498Y016182D01*
X008560Y016032D01*
X008560Y015268D01*
X008498Y015118D01*
X008382Y015002D01*
X008232Y014940D01*
X009380Y014940D01*
X009380Y014842D02*
X002814Y014842D01*
X002855Y014743D02*
X009380Y014743D01*
X009380Y014645D02*
X002860Y014645D01*
X002851Y014546D02*
X009380Y014546D01*
X009380Y014448D02*
X002810Y014448D01*
X002729Y014349D02*
X009380Y014349D01*
X009380Y014251D02*
X002557Y014251D01*
X002547Y014054D02*
X009380Y014054D01*
X009380Y014152D02*
X001350Y014152D01*
X001350Y015236D02*
X006714Y015236D01*
X006700Y015334D02*
X002714Y015334D01*
X002682Y015302D02*
X002798Y015418D01*
X002860Y015568D01*
X002860Y015732D01*
X002798Y015882D01*
X002682Y015998D01*
X002532Y016060D01*
X001768Y016060D01*
X001618Y015998D01*
X001502Y015882D01*
X001440Y015732D01*
X001440Y015568D01*
X001502Y015418D01*
X001618Y015302D01*
X001768Y015240D01*
X002532Y015240D01*
X002682Y015302D01*
X002804Y015433D02*
X006700Y015433D01*
X006700Y015531D02*
X002845Y015531D01*
X002860Y015630D02*
X007100Y015630D01*
X007100Y015728D02*
X007200Y015728D01*
X007200Y015827D02*
X007100Y015827D01*
X007100Y015925D02*
X007200Y015925D01*
X007200Y016024D02*
X007100Y016024D01*
X007100Y016122D02*
X007200Y016122D01*
X007200Y016221D02*
X007100Y016221D01*
X007100Y016319D02*
X007200Y016319D01*
X007408Y016319D02*
X007970Y016319D01*
X007841Y016221D02*
X007510Y016221D01*
X007567Y016122D02*
X007777Y016122D01*
X007740Y016032D02*
X007740Y015268D01*
X007802Y015118D01*
X007918Y015002D01*
X008068Y014940D01*
X007337Y014940D01*
X007475Y015039D02*
X007882Y015039D01*
X007794Y015137D02*
X007547Y015137D01*
X007586Y015236D02*
X007754Y015236D01*
X007740Y015334D02*
X007600Y015334D01*
X007600Y015433D02*
X007740Y015433D01*
X007740Y015531D02*
X007600Y015531D01*
X008068Y014940D02*
X008232Y014940D01*
X008418Y015039D02*
X009380Y015039D01*
X009380Y015137D02*
X008506Y015137D01*
X008546Y015236D02*
X009380Y015236D01*
X009240Y015334D02*
X008560Y015334D01*
X008560Y015433D02*
X009240Y015433D01*
X009240Y015531D02*
X008560Y015531D01*
X008560Y015630D02*
X009240Y015630D01*
X009240Y015728D02*
X008560Y015728D01*
X008560Y015827D02*
X009240Y015827D01*
X009240Y015925D02*
X008560Y015925D01*
X008560Y016024D02*
X009268Y016024D01*
X008523Y016122D02*
X011450Y016122D01*
X011450Y016024D02*
X011081Y016024D01*
X011090Y016008D02*
X011070Y016042D01*
X011042Y016070D01*
X011008Y016090D01*
X010970Y016100D01*
X010700Y016100D01*
X010700Y015700D01*
X011100Y015700D01*
X011100Y015970D01*
X011090Y016008D01*
X011100Y015925D02*
X011450Y015925D01*
X011450Y015827D02*
X011100Y015827D01*
X011100Y015728D02*
X011450Y015728D01*
X011450Y015630D02*
X010700Y015630D01*
X010700Y015600D02*
X010700Y015700D01*
X010600Y015700D01*
X010600Y016100D01*
X010330Y016100D01*
X010292Y016090D01*
X010258Y016070D01*
X010230Y016042D01*
X010210Y016008D01*
X010200Y015970D01*
X010200Y015700D01*
X010600Y015700D01*
X010600Y015600D01*
X010700Y015600D01*
X011100Y015600D01*
X011100Y015330D01*
X011090Y015292D01*
X011070Y015258D01*
X011042Y015230D01*
X011008Y015210D01*
X010970Y015200D01*
X010700Y015200D01*
X010700Y015600D01*
X010700Y015531D02*
X010600Y015531D01*
X010600Y015600D02*
X010600Y015200D01*
X010330Y015200D01*
X010292Y015210D01*
X010258Y015230D01*
X010230Y015258D01*
X010210Y015292D01*
X010200Y015330D01*
X010200Y015600D01*
X010600Y015600D01*
X010600Y015630D02*
X010060Y015630D01*
X010060Y015728D02*
X010200Y015728D01*
X010200Y015827D02*
X010060Y015827D01*
X010060Y015925D02*
X010200Y015925D01*
X010219Y016024D02*
X010032Y016024D01*
X010060Y015531D02*
X010200Y015531D01*
X010200Y015433D02*
X010060Y015433D01*
X010060Y015334D02*
X010200Y015334D01*
X010252Y015236D02*
X009920Y015236D01*
X009920Y015137D02*
X011450Y015137D01*
X011450Y015039D02*
X009920Y015039D01*
X009920Y014940D02*
X011450Y014940D01*
X011450Y014842D02*
X009920Y014842D01*
X009920Y014743D02*
X011450Y014743D01*
X011450Y014645D02*
X009920Y014645D01*
X009920Y014546D02*
X011450Y014546D01*
X011450Y014448D02*
X009920Y014448D01*
X009920Y014349D02*
X011450Y014349D01*
X011450Y014251D02*
X009920Y014251D01*
X009920Y014152D02*
X011450Y014152D01*
X011450Y014054D02*
X009920Y014054D01*
X009920Y013955D02*
X011450Y013955D01*
X011450Y013857D02*
X009920Y013857D01*
X009920Y013758D02*
X011450Y013758D01*
X011450Y013660D02*
X009920Y013660D01*
X009920Y013561D02*
X011450Y013561D01*
X011450Y013463D02*
X009920Y013463D01*
X009920Y013364D02*
X011450Y013364D01*
X011450Y013266D02*
X009920Y013266D01*
X009920Y013167D02*
X011450Y013167D01*
X011450Y013069D02*
X009920Y013069D01*
X009920Y012970D02*
X011450Y012970D01*
X011450Y012872D02*
X009920Y012872D01*
X009920Y012773D02*
X010179Y012773D01*
X010118Y012748D02*
X010002Y012632D01*
X009940Y012482D01*
X009940Y012318D01*
X010002Y012168D01*
X010118Y012052D01*
X010268Y011990D01*
X011032Y011990D01*
X011182Y012052D01*
X011298Y012168D01*
X011360Y012318D01*
X011360Y012482D01*
X011298Y012632D01*
X011182Y012748D01*
X011032Y012810D01*
X010268Y012810D01*
X010118Y012748D01*
X010045Y012675D02*
X009920Y012675D01*
X009920Y012576D02*
X009979Y012576D01*
X009940Y012478D02*
X009920Y012478D01*
X009920Y012379D02*
X009940Y012379D01*
X009956Y012281D02*
X009920Y012281D01*
X009920Y012182D02*
X009997Y012182D01*
X009920Y012084D02*
X010087Y012084D01*
X009920Y011985D02*
X011450Y011985D01*
X011450Y011887D02*
X009920Y011887D01*
X009920Y011788D02*
X010215Y011788D01*
X010268Y011810D02*
X010118Y011748D01*
X010002Y011632D01*
X009940Y011482D01*
X009940Y011318D01*
X010002Y011168D01*
X010118Y011052D01*
X010268Y010990D01*
X011032Y010990D01*
X011182Y011052D01*
X011298Y011168D01*
X011360Y011318D01*
X011360Y011482D01*
X011298Y011632D01*
X011182Y011748D01*
X011032Y011810D01*
X010268Y011810D01*
X010060Y011690D02*
X009920Y011690D01*
X009920Y011591D02*
X009985Y011591D01*
X009945Y011493D02*
X009920Y011493D01*
X009920Y011394D02*
X009940Y011394D01*
X009949Y011296D02*
X009920Y011296D01*
X009920Y011197D02*
X009990Y011197D01*
X009920Y011099D02*
X010072Y011099D01*
X009920Y011000D02*
X010244Y011000D01*
X010268Y010810D02*
X010118Y010748D01*
X010002Y010632D01*
X009940Y010482D01*
X009940Y010318D01*
X010002Y010168D01*
X010118Y010052D01*
X010268Y009990D01*
X011032Y009990D01*
X011182Y010052D01*
X011298Y010168D01*
X011360Y010318D01*
X011360Y010482D01*
X011298Y010632D01*
X011182Y010748D01*
X011032Y010810D01*
X010268Y010810D01*
X010252Y010803D02*
X009920Y010803D01*
X009920Y010705D02*
X010075Y010705D01*
X009992Y010606D02*
X009920Y010606D01*
X009920Y010508D02*
X009951Y010508D01*
X009940Y010409D02*
X009920Y010409D01*
X009920Y010311D02*
X009943Y010311D01*
X009920Y010212D02*
X009984Y010212D01*
X009920Y010114D02*
X010057Y010114D01*
X009920Y010015D02*
X010208Y010015D01*
X010015Y009917D02*
X011450Y009917D01*
X011450Y010015D02*
X011092Y010015D01*
X011243Y010114D02*
X011450Y010114D01*
X011450Y010212D02*
X011316Y010212D01*
X011357Y010311D02*
X011450Y010311D01*
X011450Y010409D02*
X011360Y010409D01*
X011349Y010508D02*
X011450Y010508D01*
X011450Y010606D02*
X011308Y010606D01*
X011225Y010705D02*
X011450Y010705D01*
X011450Y010803D02*
X011048Y010803D01*
X011056Y011000D02*
X011450Y011000D01*
X011450Y010902D02*
X009920Y010902D01*
X009380Y011296D02*
X002666Y011296D01*
X002774Y011394D02*
X009380Y011394D01*
X009380Y011493D02*
X002829Y011493D01*
X002860Y011591D02*
X009380Y011591D01*
X009380Y011690D02*
X002860Y011690D01*
X002837Y011788D02*
X009380Y011788D01*
X009380Y011887D02*
X002793Y011887D01*
X002695Y011985D02*
X009380Y011985D01*
X009380Y012281D02*
X002629Y012281D01*
X002759Y012379D02*
X009380Y012379D01*
X009380Y012478D02*
X002822Y012478D01*
X002860Y012576D02*
X009380Y012576D01*
X009380Y012675D02*
X002860Y012675D01*
X002843Y012773D02*
X009380Y012773D01*
X009380Y012872D02*
X002802Y012872D01*
X002710Y012970D02*
X009380Y012970D01*
X009380Y013266D02*
X002593Y013266D01*
X002744Y013364D02*
X009380Y013364D01*
X009380Y013463D02*
X002816Y013463D01*
X002857Y013561D02*
X009380Y013561D01*
X009380Y013660D02*
X002860Y013660D01*
X002849Y013758D02*
X009380Y013758D01*
X009380Y013857D02*
X002808Y013857D01*
X002725Y013955D02*
X009380Y013955D01*
X010600Y015236D02*
X010700Y015236D01*
X010700Y015334D02*
X010600Y015334D01*
X010600Y015433D02*
X010700Y015433D01*
X010700Y015728D02*
X010600Y015728D01*
X010600Y015827D02*
X010700Y015827D01*
X010700Y015925D02*
X010600Y015925D01*
X010600Y016024D02*
X010700Y016024D01*
X011100Y015531D02*
X011450Y015531D01*
X011450Y015433D02*
X011100Y015433D01*
X011100Y015334D02*
X011450Y015334D01*
X011450Y015236D02*
X011048Y015236D01*
X011450Y016221D02*
X008459Y016221D01*
X008330Y016319D02*
X011450Y016319D01*
X011450Y016418D02*
X001350Y016418D01*
X001350Y016319D02*
X006892Y016319D01*
X006790Y016221D02*
X001350Y016221D01*
X001350Y016122D02*
X006733Y016122D01*
X006706Y016024D02*
X002620Y016024D01*
X002755Y015925D02*
X006700Y015925D01*
X006700Y015827D02*
X002821Y015827D01*
X002860Y015728D02*
X006700Y015728D01*
X011085Y011788D02*
X011450Y011788D01*
X011450Y011690D02*
X011240Y011690D01*
X011315Y011591D02*
X011450Y011591D01*
X011450Y011493D02*
X011355Y011493D01*
X011360Y011394D02*
X011450Y011394D01*
X011450Y011296D02*
X011351Y011296D01*
X011310Y011197D02*
X011450Y011197D01*
X011450Y011099D02*
X011228Y011099D01*
X011213Y012084D02*
X011450Y012084D01*
X011450Y012182D02*
X011303Y012182D01*
X011344Y012281D02*
X011450Y012281D01*
X011450Y012379D02*
X011360Y012379D01*
X011360Y012478D02*
X011450Y012478D01*
X011450Y012576D02*
X011321Y012576D01*
X011255Y012675D02*
X011450Y012675D01*
X011450Y012773D02*
X011121Y012773D01*
X009380Y010015D02*
X006140Y010015D01*
X006263Y009917D02*
X009380Y009917D01*
X009392Y009818D02*
X006324Y009818D01*
X006360Y009720D02*
X009449Y009720D01*
X009239Y009621D02*
X006360Y009621D01*
X006341Y009523D02*
X009141Y009523D01*
X009042Y009424D02*
X006300Y009424D01*
X006205Y009326D02*
X008944Y009326D01*
X008648Y009030D02*
X006104Y009030D01*
X006248Y008932D02*
X008550Y008932D01*
X008451Y008833D02*
X006318Y008833D01*
X006359Y008735D02*
X008393Y008735D01*
X008380Y008636D02*
X006360Y008636D01*
X006347Y008538D02*
X008380Y008538D01*
X008380Y008439D02*
X006306Y008439D01*
X006220Y008341D02*
X008380Y008341D01*
X008380Y008242D02*
X006036Y008242D01*
X005264Y008242D02*
X001350Y008242D01*
X001350Y008144D02*
X008380Y008144D01*
X008380Y008045D02*
X001350Y008045D01*
X001350Y007947D02*
X008380Y007947D01*
X008380Y007848D02*
X001350Y007848D01*
X001350Y007750D02*
X008380Y007750D01*
X008380Y007651D02*
X001350Y007651D01*
X001350Y007553D02*
X008380Y007553D01*
X008380Y007454D02*
X001350Y007454D01*
X001350Y007356D02*
X008380Y007356D01*
X008380Y007257D02*
X001350Y007257D01*
X001350Y007159D02*
X008380Y007159D01*
X008920Y007159D02*
X010012Y007159D01*
X010002Y007168D02*
X010118Y007052D01*
X010268Y006990D01*
X011032Y006990D01*
X011182Y007052D01*
X011298Y007168D01*
X011360Y007318D01*
X011360Y007482D01*
X011298Y007632D01*
X011182Y007748D01*
X011032Y007810D01*
X010268Y007810D01*
X010118Y007748D01*
X010002Y007632D01*
X009940Y007482D01*
X009940Y007318D01*
X010002Y007168D01*
X009965Y007257D02*
X008920Y007257D01*
X008920Y007356D02*
X009940Y007356D01*
X009940Y007454D02*
X008920Y007454D01*
X008920Y007553D02*
X009969Y007553D01*
X010021Y007651D02*
X008920Y007651D01*
X008920Y007750D02*
X010122Y007750D01*
X010177Y007983D02*
X010245Y007961D01*
X010315Y007950D01*
X010600Y007950D01*
X010600Y008350D01*
X010700Y008350D01*
X010700Y008450D01*
X010600Y008450D01*
X010600Y008850D01*
X010315Y008850D01*
X010245Y008839D01*
X010177Y008817D01*
X010114Y008785D01*
X010057Y008743D01*
X010007Y008693D01*
X009965Y008636D01*
X009933Y008573D01*
X009911Y008505D01*
X009902Y008450D01*
X010600Y008450D01*
X010600Y008350D01*
X009902Y008350D01*
X009911Y008295D01*
X009933Y008227D01*
X009965Y008164D01*
X010007Y008107D01*
X010057Y008057D01*
X010114Y008015D01*
X010177Y007983D01*
X010073Y008045D02*
X008920Y008045D01*
X008920Y007947D02*
X011450Y007947D01*
X011450Y008045D02*
X011227Y008045D01*
X011243Y008057D02*
X011293Y008107D01*
X011335Y008164D01*
X011367Y008227D01*
X011389Y008295D01*
X011398Y008350D01*
X010700Y008350D01*
X010700Y007950D01*
X010985Y007950D01*
X011055Y007961D01*
X011123Y007983D01*
X011186Y008015D01*
X011243Y008057D01*
X011320Y008144D02*
X011450Y008144D01*
X011450Y008242D02*
X011372Y008242D01*
X011396Y008341D02*
X011450Y008341D01*
X011450Y008439D02*
X010700Y008439D01*
X010700Y008450D02*
X011398Y008450D01*
X011389Y008505D01*
X011367Y008573D01*
X011335Y008636D01*
X011293Y008693D01*
X011243Y008743D01*
X011186Y008785D01*
X011123Y008817D01*
X011055Y008839D01*
X010985Y008850D01*
X010700Y008850D01*
X010700Y008450D01*
X010700Y008538D02*
X010600Y008538D01*
X010600Y008636D02*
X010700Y008636D01*
X010700Y008735D02*
X010600Y008735D01*
X010600Y008833D02*
X010700Y008833D01*
X011074Y008833D02*
X011450Y008833D01*
X011450Y008735D02*
X011252Y008735D01*
X011335Y008636D02*
X011450Y008636D01*
X011450Y008538D02*
X011378Y008538D01*
X011450Y008932D02*
X009313Y008932D01*
X009412Y009030D02*
X010172Y009030D01*
X010042Y009129D02*
X009510Y009129D01*
X009215Y008833D02*
X010226Y008833D01*
X010048Y008735D02*
X009116Y008735D01*
X009018Y008636D02*
X009965Y008636D01*
X009922Y008538D02*
X008920Y008538D01*
X008920Y008439D02*
X010600Y008439D01*
X010600Y008341D02*
X010700Y008341D01*
X010700Y008242D02*
X010600Y008242D01*
X010600Y008144D02*
X010700Y008144D01*
X010700Y008045D02*
X010600Y008045D01*
X009980Y008144D02*
X008920Y008144D01*
X008920Y008242D02*
X009928Y008242D01*
X009904Y008341D02*
X008920Y008341D01*
X008920Y007848D02*
X011450Y007848D01*
X011450Y007750D02*
X011178Y007750D01*
X011279Y007651D02*
X011450Y007651D01*
X011450Y007553D02*
X011331Y007553D01*
X011360Y007454D02*
X011450Y007454D01*
X011450Y007356D02*
X011360Y007356D01*
X011335Y007257D02*
X011450Y007257D01*
X011450Y007159D02*
X011288Y007159D01*
X011190Y007060D02*
X011450Y007060D01*
X011450Y006962D02*
X008920Y006962D01*
X008920Y007060D02*
X010110Y007060D01*
X010600Y005780D02*
X010700Y005780D01*
X010700Y005681D02*
X010600Y005681D01*
X010600Y005583D02*
X010700Y005583D01*
X010700Y005287D02*
X010600Y005287D01*
X010600Y005189D02*
X010700Y005189D01*
X010700Y005090D02*
X010600Y005090D01*
X010600Y004992D02*
X010700Y004992D01*
X011219Y003711D02*
X011450Y003711D01*
X011450Y003613D02*
X011306Y003613D01*
X011347Y003514D02*
X011450Y003514D01*
X011450Y003416D02*
X011360Y003416D01*
X011359Y003317D02*
X011450Y003317D01*
X011450Y003219D02*
X011319Y003219D01*
X011250Y003120D02*
X011450Y003120D01*
X011450Y003022D02*
X011108Y003022D01*
X010700Y002825D02*
X010600Y002825D01*
X010600Y002726D02*
X010700Y002726D01*
X010700Y002628D02*
X010600Y002628D01*
X010600Y002529D02*
X010700Y002529D01*
X011215Y002037D02*
X011450Y002037D01*
X011450Y002135D02*
X011314Y002135D01*
X011369Y002234D02*
X011450Y002234D01*
X011450Y002332D02*
X011395Y002332D01*
X011450Y009030D02*
X011128Y009030D01*
X011258Y009129D02*
X011450Y009129D01*
X011450Y009227D02*
X011322Y009227D01*
X011360Y009326D02*
X011450Y009326D01*
X011450Y009424D02*
X011360Y009424D01*
X011343Y009523D02*
X011450Y009523D01*
X011450Y009621D02*
X011302Y009621D01*
X011210Y009720D02*
X011450Y009720D01*
X011450Y009818D02*
X010114Y009818D01*
X002200Y010212D02*
X002100Y010212D01*
X002100Y010311D02*
X002200Y010311D01*
X002200Y010409D02*
X002100Y010409D01*
X002100Y010705D02*
X002200Y010705D01*
X002200Y010803D02*
X002100Y010803D01*
X002100Y010902D02*
X002200Y010902D01*
X002200Y011000D02*
X002100Y011000D01*
X002100Y011099D02*
X002200Y011099D01*
X001566Y011000D02*
X001350Y011000D01*
X001350Y010902D02*
X001477Y010902D01*
X001427Y010803D02*
X001350Y010803D01*
X001350Y010705D02*
X001403Y010705D01*
X001350Y015334D02*
X001586Y015334D01*
X001496Y015433D02*
X001350Y015433D01*
X001350Y015531D02*
X001455Y015531D01*
X001440Y015630D02*
X001350Y015630D01*
X001350Y015728D02*
X001440Y015728D01*
X001479Y015827D02*
X001350Y015827D01*
X001350Y015925D02*
X001545Y015925D01*
X001680Y016024D02*
X001350Y016024D01*
D15*
X004650Y015650D03*
X007200Y014150D03*
X006150Y012150D03*
X003150Y009650D03*
X004550Y007850D03*
X002700Y005700D03*
X004300Y003650D03*
X002700Y001650D03*
X006300Y001750D03*
X006250Y003250D03*
X007950Y005750D03*
X007150Y008200D03*
D16*
X008650Y008650D02*
X009400Y009400D01*
X010150Y009400D01*
X009650Y009900D01*
X009650Y015650D01*
X010150Y009400D02*
X010650Y009400D01*
X008650Y008650D02*
X008650Y005150D01*
D17*
X008650Y005150D03*
M02*
